<svg width="1800" height="960" viewBox="0 0 1800 960" fill="none" xmlns="http://www.w3.org/2000/svg">
<g clip-path="url(#clip0_1717_21869)">
<rect width="1800" height="960" fill="url(#paint0_radial_1717_21869)"/>
<path fill-rule="evenodd" clip-rule="evenodd" d="M-4.56535 764.346L-4.56524 764.346L-4.56505 764.346C7.59531 769.915 22.7218 776.843 33.6144 774.508C38.2909 773.506 42.6748 772.114 46.5381 770.887C55.9033 767.913 62.2093 765.91 62.2093 772.793C62.2093 781.169 23.1601 802.702 -8.13395 797.171L-8.13396 1025L154.285 1025C143.899 1003.7 133.265 991.816 125.898 983.586C117.445 974.142 113.294 969.504 118.757 960.947C128.078 946.349 142.592 944.12 154.085 942.354C159.761 941.482 164.701 940.723 167.913 938.643C171.131 936.56 172.092 932.283 173.267 927.056C175.64 916.498 178.883 902.068 203.351 894.035C239.932 882.025 271.369 897.467 280.515 906.045C289.66 914.623 299.948 906.045 302.235 897.467C303.157 894.006 306.684 892.22 311.352 889.857C318.256 886.363 327.654 881.606 334.815 868.3C346.818 845.996 330.242 833.986 317.668 825.979C305.093 817.973 306.807 799.1 317.668 797.384C328.002 795.752 327.985 790.494 327.959 782.597C327.957 782.195 327.956 781.786 327.956 781.371C327.956 772.793 334.815 761.355 351.391 767.645C367.967 773.936 376.54 767.645 375.397 746.485C374.28 725.805 399.367 714.411 418.113 705.897C418.549 705.699 418.981 705.503 419.409 705.308C438.271 696.73 457.705 684.148 459.991 666.419C462.278 648.69 479.997 631.533 501.145 630.962C522.294 630.39 530.867 622.955 538.87 605.798C542.876 597.207 548.316 595.642 554.041 593.996C559.75 592.353 565.741 590.63 570.878 581.778C581.167 564.049 574.308 544.605 537.155 544.033C505.527 543.546 483.427 556.321 467.68 565.424C464.929 567.014 462.371 568.493 459.991 569.768C447.359 576.54 446.122 574.047 444.475 570.727C444.035 569.841 443.566 568.896 442.844 568.053C439.414 564.049 431.984 561.19 411.978 572.056C406.829 574.632 402.64 578.308 398.175 582.225C389.755 589.612 380.355 597.859 361.679 601.223C353.875 602.406 349.104 606.488 343.399 611.37C335.316 618.287 325.356 626.809 302.235 630.962C279.943 634.965 246.22 608.658 260.509 598.363C268.534 592.582 273.674 594.917 280.182 597.874C285.263 600.182 291.177 602.868 299.948 602.367C319.954 601.223 314.81 589.213 306.807 584.066C298.805 578.919 295.947 565.765 310.809 551.468C317.896 544.649 328.883 542.513 338.439 540.656C348.92 538.618 357.678 536.915 357.678 529.735C357.678 516.01 362.822 495.993 387.972 498.853C413.122 501.712 426.84 491.99 433.699 478.836C440.558 465.683 462.849 460.536 487.427 456.532C512.005 452.529 502.288 428.509 492.571 425.078C482.855 421.647 477.139 418.787 473.709 413.64C470.28 408.493 455.419 407.921 442.844 416.499C430.269 425.078 414.836 421.075 411.978 409.065C410.556 403.089 414.512 403.626 420.254 404.407C426.052 405.195 433.671 406.23 439.414 401.058C450.846 390.764 442.844 371.891 422.839 353.019C402.833 334.146 366.252 319.277 339.959 319.277C313.666 319.277 299.949 291.825 310.809 284.963C321.669 278.1 329.671 271.237 322.812 266.09C319.857 263.873 324.009 260.063 329.1 255.393C335.826 249.223 344.189 241.551 339.959 234.064C333.39 222.435 318.781 227.344 293.761 235.751C290.479 236.854 287.018 238.017 283.373 239.211C251.935 249.505 238.218 230.06 233.645 212.903C230.546 201.276 221.672 197.266 212.715 193.219C208.456 191.294 204.178 189.361 200.493 186.596C189.062 178.018 180.488 178.018 162.197 178.018C143.907 178.018 121.044 141.988 126.188 125.975C129.404 115.961 128.151 112.656 125.782 106.411C124.363 102.669 122.543 97.8724 121.044 89.9451C117.043 68.7849 162.769 45.337 174.201 48.1965C185.633 51.056 217.641 53.9155 217.641 38.4742C217.641 28.2997 248.414 14.4006 276.928 1.52166C291.688 -5.14494 305.842 -11.5382 314.81 -17L-8.13391 -17L-8.13393 408.73C0.164103 408.9 8.50814 409.616 9.59468 410.209C23.8922 412.496 45.0524 418.787 45.0524 433.656C45.0524 444.118 36.8429 450.333 28.1914 456.883C24.5461 459.643 20.8224 462.462 17.6013 465.683C10.7609 472.523 -0.385601 477.097 -8.13393 478.834L-8.13395 762.719C-6.97947 763.24 -5.78776 763.786 -4.5661 764.345L-4.56535 764.346ZM92.5197 884.885C79.9374 872.303 61.6372 874.591 51.343 886.029C31.3265 918.627 51.343 946.078 74.2189 948.938C97.0949 951.797 110.82 933.496 115.968 914.624C119.404 902.022 113.407 898.6 105.297 893.971C101.26 891.668 96.7006 889.066 92.5197 884.885ZM122.831 846.568C130.837 853.431 138.844 868.3 133.697 876.307C128.55 884.313 112.537 887.745 106.818 876.307C101.099 864.869 97.6673 858.006 105.102 849.999C112.537 841.993 118.256 841.765 122.831 846.568ZM133.125 543.461C142.275 551.468 156.001 558.331 173.158 554.899C190.315 551.468 200.037 554.327 205.184 560.618C207.853 563.88 201.604 566.066 194.331 568.61C187.576 570.973 179.936 573.645 177.733 577.775C173.158 586.354 158.86 606.37 138.272 588.641C121.135 573.884 118.262 561.109 116.132 551.633C115.703 549.725 115.304 547.951 114.824 546.321C111.965 536.599 121.037 535.455 133.125 543.461ZM343.584 347.3C325.283 341.581 313.273 343.868 289.253 353.019C244.073 366.744 245.789 394.768 253.224 403.918C260.658 413.068 286.966 406.777 294.972 394.768C302.979 382.758 316.704 374.751 340.152 374.179C363.6 373.607 361.884 353.019 343.584 347.3ZM318.42 407.921C326.427 397.627 320.136 398.199 308.126 399.915C297.832 402.774 286.966 417.072 294.972 422.219C302.979 427.366 310.414 418.215 318.42 407.921ZM177.733 536.027C182.308 545.749 160.004 543.461 149.71 536.027C138.844 531.072 141.704 512.007 151.426 520.013C155.584 523.438 160.16 525.084 164.394 526.606C170.061 528.645 175.115 530.462 177.733 536.027ZM156.001 603.511C162.864 600.079 178.305 597.22 168.583 607.514C158.861 617.808 155.429 616.664 149.71 612.089C144.347 607.799 149.545 605.887 154.929 603.907C155.287 603.775 155.645 603.644 156.001 603.511ZM327.571 704.737C325.283 695.586 309.27 698.446 296.688 704.737C282.391 717.891 298.976 732.76 308.126 723.038C311.865 719.065 316.177 716.811 319.813 714.91C325.076 712.159 328.924 710.148 327.571 704.737ZM327.571 726.469C336.149 717.319 353.306 709.884 360.169 723.038C367.032 736.191 364.744 757.923 351.019 754.492L350.758 754.427C337.141 751.024 325.298 748.064 327.571 726.469ZM318.992 754.492C318.992 737.907 305.839 733.332 305.267 740.195C302.861 748.376 304.504 754.532 306.789 763.093C307.219 764.706 307.673 766.404 308.126 768.218C310.985 779.656 318.992 771.077 318.992 754.492ZM214.907 808.822C227.488 807.107 234.923 807.107 231.492 815.685C228.06 824.264 216.622 820.26 210.903 815.685C205.184 811.11 207.472 809.629 214.907 808.822ZM226.345 846.568C230.92 836.846 222.913 829.983 208.616 826.551C202.325 824.667 193.746 823.692 196.606 834.558C199.465 845.424 221.769 856.29 226.345 846.568ZM67.9284 743.626C53.059 754.492 37.0458 760.783 31.3268 758.495C16.4575 753.348 23.8921 735.047 37.6177 723.038C51.3433 711.028 74.2189 708.74 85.6572 724.753C92.7432 734.673 89.9523 735.375 83.2673 737.057C79.1613 738.089 73.5862 739.491 67.9284 743.626ZM15.8856 728.757C17.0294 739.623 12.4542 753.92 5.01947 751.633C-2.41521 749.345 1.58808 739.051 6.73517 731.044C11.8823 723.038 15.7111 725.263 15.8856 728.757ZM20.4608 685.292C29.0392 684.148 22.1764 694.443 15.8856 699.018C14.5511 700.543 11.3104 702.678 9.02277 699.018C6.16328 694.443 11.8823 686.436 20.4608 685.292ZM103.386 229.489C125.118 215.763 145.135 205.469 161.72 209.472C178.305 213.476 176.589 227.201 161.72 233.492C146.85 239.783 139.416 246.645 137.128 255.796C137.001 256.305 136.879 256.807 136.759 257.3L136.759 257.302C134.722 265.686 133.25 271.745 115.968 270.665C108.013 270.168 101.679 272.697 96.3548 274.822C89.431 277.586 84.2159 279.667 79.3664 273.525C70.7879 262.659 88.5167 239.783 103.386 229.489ZM0.444294 494.85C6.73518 484.555 15.8856 476.549 22.7484 480.552C29.6111 484.555 13.0261 505.716 2.73189 509.147C-5.50346 511.892 -2.22457 500.759 0.444294 494.85Z" fill="#00BFA8"/>
<path d="M22.1771 195.175C15.3143 190.6 -4.13024 180.305 -12.1368 179.733C-13.2806 183.546 -15.5682 192.315 -15.5682 196.89C-15.5682 202.609 -12.1368 205.469 5.02015 207.757C23.8928 209.472 29.0399 199.75 22.1771 195.175Z" fill="white"/>
<path d="M37.0465 183.737C42.1936 178.018 46.1969 156.286 40.4779 145.991C38.4418 140.272 33.6151 144.276 30.1837 148.851C26.7523 153.426 22.1771 164.292 23.8928 175.158C25.6085 186.024 31.8994 189.456 37.0465 183.737Z" fill="white"/>
<path d="M71.3604 179.734C66.2133 177.446 54.2035 179.734 47.9126 186.024C22.749 211.188 42.7655 202.609 51.9159 200.894C61.0662 199.178 76.5075 182.021 71.3604 179.734Z" fill="white"/>
<path d="M16.4581 238.067C33.6151 232.348 47.9126 220.338 43.9093 217.479C39.906 212.903 22.1771 212.903 9.02344 219.194C-4.13024 225.485 -0.698845 243.786 16.4581 238.067Z" fill="white"/>
<path d="M47.9126 234.636C55.3473 228.917 74.2199 219.766 85.6579 234.636C97.0959 249.505 50.2002 248.361 47.9126 234.636Z" fill="white"/>
<path d="M64.4976 273.525C64.4976 263.231 53.0597 254.652 37.0465 246.646C13.5986 240.927 25.6085 257.512 31.8994 264.946C38.1903 272.381 64.4976 283.819 64.4976 273.525Z" fill="white"/>
<path d="M-12.1368 253.508C-1.27075 250.077 16.4581 256.94 23.8928 267.806C29.0403 282.103 5.02014 276.956 -4.70214 275.24C-14.4244 273.525 -23.0029 256.94 -12.1368 253.508Z" fill="white"/>
<path d="M51.9159 320.421C53.6319 314.702 45.6246 293.541 35.3304 283.819C18.7449 272.381 16.4581 298.116 23.8928 306.695C31.3275 315.273 50.1998 326.139 51.9159 320.421Z" fill="white"/>
<path d="M14.742 310.698C11.3106 300.976 -4.70214 289.538 -12.1368 288.966C-14.4246 294.876 -18.3137 307.496 -15.5682 310.698C-12.1364 314.702 18.1734 320.421 14.742 310.698Z" fill="white"/>
<path d="M54.775 333.574C42.7651 323.28 19.8891 323.28 6.73544 324.424C-2.98723 326.139 1.58835 333.574 14.742 338.149C27.8957 342.725 66.7848 343.868 54.775 333.574Z" fill="white"/>
<path d="M74.7914 353.591C69.0724 347.3 45.6246 346.728 35.3304 349.015C15.8858 353.591 26.7519 363.313 40.4779 365.601C54.2038 367.888 80.5104 359.882 74.7914 353.591Z" fill="white"/>
<path d="M108.533 363.313C97.0955 358.738 78.2228 367.316 72.5038 375.895C63.9253 393.052 78.2228 384.473 88.517 381.614C98.8112 378.754 119.971 367.888 108.533 363.313Z" fill="white"/>
<path d="M103.386 394.196C98.2393 390.764 83.9418 393.052 77.079 401.058C71.36 410.209 69.0724 415.928 82.798 413.068C96.5236 410.209 108.533 397.627 103.386 394.196Z" fill="white"/>
<path d="M88.517 349.015C117.112 362.169 100.527 333.574 85.6579 324.996C83.3702 322.708 76.5071 318.133 67.3567 318.133C55.9188 318.133 59.922 335.862 88.517 349.015Z" fill="white"/>
<path d="M146.279 333.574C127.978 337.577 114.824 333.574 107.962 326.14C101.099 318.705 115.968 314.13 123.975 313.558C131.981 312.986 164.58 329.571 146.279 333.574Z" fill="white"/>
<path d="M108.533 299.26C102.243 289.538 85.6579 290.11 71.3604 290.682C45.6254 293.541 58.7783 306.695 71.3604 308.983C83.9426 311.27 114.824 308.983 108.533 299.26Z" fill="white"/>
<path d="M163.436 375.895C150.854 375.895 127.406 367.888 122.259 355.878C120.543 353.019 118.942 347.3 126.262 347.3C135.413 347.3 146.279 350.731 156.573 355.878C166.867 361.025 176.018 375.895 163.436 375.895Z" fill="white"/>
<path d="M142.275 423.934C143.991 414.784 139.988 397.627 132.553 383.329C132.553 382.758 131.295 380.813 126.262 377.61C119.971 373.607 111.965 393.052 118.256 409.637C124.547 426.222 140.56 433.085 142.275 423.934Z" fill="white"/>
<path d="M194.89 394.196C187.456 401.63 174.302 405.062 163.436 402.774C145.135 399.343 151.998 385.617 167.439 386.189C182.88 386.761 202.325 386.761 194.89 394.196Z" fill="white"/>
<path d="M205.756 415.928C200.609 410.781 183.452 411.352 167.439 415.928C163.817 416.881 157.374 420.274 160.576 426.222C164.58 433.657 167.439 431.369 179.449 431.369C191.459 431.369 210.903 421.075 205.756 415.928Z" fill="white"/>
<path d="M142.275 493.706C149.138 487.415 160.576 462.251 156.573 450.242C152.57 434.228 142.275 454.817 137.7 466.255C133.125 477.693 135.413 499.997 142.275 493.706Z" fill="white"/>
<path d="M188.027 506.86C190.887 499.997 192.031 491.99 181.165 473.118C178.305 467.871 163.436 455.961 163.436 477.121C163.436 498.281 185.168 513.722 188.027 506.86Z" fill="white"/>
<path d="M244.645 521.729C242.358 525.732 224.057 518.298 213.763 506.86C194.89 493.442 205.756 471.402 221.198 485.699C236.639 499.997 246.933 517.726 244.645 521.729Z" fill="white"/>
<path d="M213.763 547.464C216.05 543.461 219.482 530.307 213.763 518.298C211.853 513.15 198.322 506.86 198.322 520.013C198.322 533.167 211.475 551.468 213.763 547.464Z" fill="white"/>
<path d="M242.358 566.909C248.077 560.618 251.508 553.755 250.364 540.03C247.505 530.307 236.067 530.879 233.207 545.749C230.348 560.618 236.639 573.2 242.358 566.909Z" fill="white"/>
<path d="M302.979 542.889C311.558 529.736 297.832 532.595 277.244 534.311C259.515 538.314 257.227 549.18 265.806 554.327C274.384 559.474 294.401 556.043 302.979 542.889Z" fill="white"/>
<path d="M292.113 524.588C285.822 527.448 274.384 525.732 263.518 521.729C246.361 514.866 265.806 506.86 275.528 508.575C285.25 510.291 298.404 521.729 292.113 524.588Z" fill="white"/>
<path d="M341.868 490.274C341.868 494.85 339.581 504.572 327.571 512.579C313.273 519.441 305.839 512.579 314.989 501.712C324.139 490.846 341.868 485.699 341.868 490.274Z" fill="white"/>
<path d="M380.757 534.311C373.323 525.732 356.166 521.729 347.587 521.729C340.343 520.585 326.198 520.471 327.571 529.164C329.286 540.03 339.009 542.889 345.872 542.889C352.734 542.889 388.192 542.889 380.757 534.311Z" fill="white"/>
<path d="M334.434 572.628C322.996 569.197 313.845 555.471 313.845 544.033C313.275 538.886 317.848 532.023 325.855 540.03C333.862 548.036 345.872 576.059 334.434 572.628Z" fill="white"/>
<path d="M385.333 560.618C402.49 548.608 379.042 549.18 364.744 549.18C352.734 549.069 347.587 556.615 350.447 562.906C353.306 569.197 368.176 572.628 385.333 560.618Z" fill="white"/>
<path d="M423.65 524.588C421.934 520.013 405.921 526.304 397.914 530.307C390.48 533.646 385.333 545.749 400.774 544.033C416.215 542.317 425.365 529.164 423.65 524.588Z" fill="white"/>
<path d="M225.201 394.196C233.207 383.329 230.348 365.601 216.05 383.329C201.753 401.058 209.76 406.777 225.201 394.196Z" fill="white"/>
<path d="M159.432 346.728C160.576 339.865 167.439 324.424 181.165 328.999C194.89 333.574 164.58 364.457 159.432 346.728Z" fill="white"/>
<path d="M97.6674 196.89C87.3732 191.172 72.5038 193.459 67.3567 202.609C67.3567 210.044 77.079 213.475 90.2327 212.332C103.386 211.188 107.962 202.609 97.6674 196.89Z" fill="white"/>
<path d="M126.262 177.446C119.971 168.867 105.674 166.008 92.5203 167.723C76.5071 171.727 88.517 183.737 101.671 186.024C114.824 188.312 132.553 186.024 126.262 177.446Z" fill="white"/>
<path d="M59.3502 152.854C57.0626 133.981 70.378 148.745 74.7914 152.854C79.5319 157.268 77.079 167.723 74.7914 169.439C72.5038 171.155 61.6378 171.727 59.3502 152.854Z" fill="white"/>
<path d="M94.8079 113.393C89.6608 108.246 82.798 129.406 85.6579 141.988C85.6579 156.395 97.6674 162.576 101.671 145.991C105.674 129.407 99.955 118.54 94.8079 113.393Z" fill="white"/>
<path d="M146.279 139.7C135.985 137.412 119.971 141.988 112.537 154.57C110.249 169.439 127.978 166.008 139.988 160.289C151.998 154.57 156.573 141.988 146.279 139.7Z" fill="white"/>
<path d="M168.011 113.393C157.717 110.534 141.704 113.393 137.7 121.971C137.7 128.834 146.279 131.693 164.58 127.69C182.88 123.687 178.305 116.252 168.011 113.393Z" fill="white"/>
<path d="M160.576 158.573C151.426 162.576 146.279 174.014 142.276 192.315C142.276 215.19 159.432 202.609 163.436 192.315C167.439 182.02 169.727 154.57 160.576 158.573Z" fill="white"/>
<path d="M179.449 163.72C172.014 164.292 173.73 154.57 179.449 143.703C181.396 139.7 197.75 121.971 194.89 139.7C192.031 157.429 186.884 163.148 179.449 163.72Z" fill="white"/>
<path d="M237.783 148.85C226.917 143.131 216.05 145.991 205.184 153.426C187.456 170.011 213.763 167.723 221.769 163.72C229.776 159.716 248.649 154.57 237.783 148.85Z" fill="white"/>
<path d="M262.946 124.259C257.227 131.693 249.221 127.69 234.351 127.69C218.91 126.716 219.482 114.536 230.92 111.677C242.358 108.817 268.665 116.824 262.946 124.259Z" fill="white"/>
<path d="M312.13 131.122C303.551 126.546 291.541 129.406 281.819 135.697C273.24 143.703 270.953 151.71 284.678 148.85C298.404 145.991 320.708 135.697 312.13 131.122Z" fill="white"/>
<path d="M266.378 188.883C271.525 183.164 275.528 177.445 270.953 162.004C266.378 152.282 254.94 158.573 254.94 167.723C254.94 176.874 261.23 194.602 266.378 188.883Z" fill="white"/>
<path d="M354.45 166.007C348.731 166.579 337.293 165.436 331.574 151.71C328.143 139.7 335.577 137.412 343.584 139.7C351.591 141.988 360.169 165.436 354.45 166.007Z" fill="white"/>
<path d="M375.61 103.099C375.61 111.105 360.741 119.684 349.303 124.259C339.009 129.096 339.009 124.259 339.581 117.968C340.153 111.677 375.61 95.0919 375.61 103.099Z" fill="white"/>
<path d="M143.991 744.769C148.566 740.194 150.854 715.602 143.991 704.736C141.172 697.874 134.269 704.736 132.553 719.034C130.838 733.331 139.416 749.345 143.991 744.769Z" fill="white"/>
<path d="M196.034 733.903C187.456 731.616 174.874 733.331 164.58 742.482C158.861 753.92 169.727 748.773 177.161 747.629C184.596 746.485 204.612 736.191 196.034 733.903Z" fill="white"/>
<path d="M230.348 702.449C220.626 708.168 206.328 704.736 199.465 702.449C192.031 700.446 196.034 696.158 206.9 693.87C217.766 691.583 240.07 696.73 230.348 702.449Z" fill="white"/>
<path d="M43.337 670.994C35.9023 667.563 13.5982 672.138 5.01973 683.576C1.58834 691.583 7.87923 692.155 16.4577 691.011C25.0362 689.867 50.7717 674.426 43.337 670.994Z" fill="white"/>
<path d="M23.8924 654.409C17.6015 649.262 3.30404 644.687 -11.5653 649.262C-21.2876 658.413 -8.13394 668.707 -0.127357 667.563C7.87923 666.419 30.1833 659.556 23.8924 654.409Z" fill="white"/>
<path d="M40.4779 625.814C34.7593 632.105 28.4676 630.961 16.4577 625.814C12.4544 625.814 6.73543 616.664 16.4577 614.948C26.18 613.233 46.1965 619.523 40.4779 625.814Z" fill="white"/>
<path d="M168.583 772.792C168.583 765.93 151.426 770.505 140.56 779.655C137.128 782.261 128.55 791.093 143.991 791.665C159.432 792.237 168.583 779.655 168.583 772.792Z" fill="white"/>
<path d="M128.55 767.073C129.122 777.368 120.543 781.371 110.821 787.09C97.0955 794.525 90.2327 787.09 98.8112 777.368C107.39 767.645 127.978 756.779 128.55 767.073Z" fill="white"/>
<path d="M125.119 808.25C119.971 803.675 106.818 800.244 88.517 804.247C83.3699 805.203 74.2195 814.541 90.2327 818.544C106.246 822.548 130.266 812.825 125.119 808.25Z" fill="white"/>
<path d="M79.3666 764.214C86.2294 770.505 84.5137 779.655 81.0823 791.665C70.2162 819.116 65.0691 796.24 65.0691 785.946C65.0691 775.652 72.5038 757.923 79.3666 764.214Z" fill="white"/>
<path d="M90.2327 855.718C90.2327 848.283 88.517 831.126 77.6509 823.12C65.0691 815.685 62.2096 833.986 69.0724 843.708C75.9352 853.43 90.2327 863.152 90.2327 855.718Z" fill="white"/>
<path d="M36.4742 781.943C45.6246 781.943 59.3501 796.812 61.0658 810.538C61.0658 822.548 51.3435 819.688 43.337 813.397C35.3304 807.106 27.3238 781.943 36.4742 781.943Z" fill="white"/>
<path d="M2.16023 808.25C10.1668 805.963 28.4676 810.538 33.6147 818.544C41.6213 828.839 26.7519 832.842 16.4577 830.554C6.16352 828.267 -5.84635 810.538 2.16023 808.25Z" fill="white"/>
<path d="M14.742 858.005C14.742 852.858 19.8891 843.708 36.4742 836.845C62.2096 839.133 49.6278 850.571 40.4779 858.005C31.3279 865.44 14.742 863.152 14.742 858.005Z" fill="white"/>
<path d="M65.0691 890.032C59.3501 886.6 51.3435 878.594 52.4873 864.868C52.1889 857.433 66.7848 852.858 70.7881 866.584C74.7914 880.309 70.7881 893.463 65.0691 890.032Z" fill="white"/>
<path d="M56.4906 904.901C55.9187 898.038 50.1997 890.032 36.4742 880.881C29.6114 875.881 23.8924 888.316 30.7552 894.607C37.618 900.898 57.0625 911.764 56.4906 904.901Z" fill="white"/>
<path d="M16.4577 906.617C27.8957 897.466 19.8891 894.607 7.87922 894.607C-12.1372 896.323 -14.9967 910.62 -11.5653 912.908C-8.13395 915.195 5.01972 915.767 16.4577 906.617Z" fill="white"/>
<path d="M16.4577 879.166C12.4544 886.6 -1.84307 891.747 -11.5653 891.747C-14.6155 886.41 -19.4576 874.819 -14.4248 871.159C-8.13395 866.584 20.461 871.731 16.4577 879.166Z" fill="white"/>
<path d="M10.1668 841.42C10.1668 855.324 -11.5653 864.868 -16.1405 864.868C-17.0937 863.724 -19 860.293 -19 855.718C-19 849.999 10.1668 827.517 10.1668 841.42Z" fill="white"/>
<path d="M52.4873 916.339C42.1932 910.048 23.8924 912.908 14.742 918.627C14.742 921.486 17.2584 927.548 27.3238 928.921C39.9056 930.636 62.7815 922.63 52.4873 916.339Z" fill="white"/>
<path d="M88.517 957.516C90.8046 948.937 88.517 934.068 73.6476 924.917C53.0592 915.767 62.7815 932.352 67.3567 942.646C71.9319 952.941 86.2294 966.094 88.517 957.516Z" fill="white"/>
<path d="M121.687 970.669C110.821 964.95 110.821 953.512 110.821 938.643C110.764 931.208 121.687 924.917 128.55 946.078C135.413 967.238 132.553 976.388 121.687 970.669Z" fill="white"/>
<path d="M156.573 910.048C151.426 919.77 136.556 924.917 128.55 921.486C119.971 920.602 123.403 910.048 127.406 907.189C131.409 904.329 161.72 900.326 156.573 910.048Z" fill="white"/>
<path d="M177.161 957.516C177.161 947.222 169.155 939.787 158.861 936.927C147.731 931.208 143.991 942.646 149.138 950.081C154.285 957.516 177.161 967.81 177.161 957.516Z" fill="white"/>
<path d="M147.423 858.005C160.576 866.584 182.308 866.584 165.723 850.571C149.138 834.558 131.981 852.413 147.423 858.005Z" fill="white"/>
<path d="M1689.74 908.029L1685.6 928.267C1685.53 928.595 1685.3 928.867 1684.99 928.993L1597.94 964.254C1596.92 964.666 1597.22 966.18 1598.32 966.18L1851.06 966.18C1851.61 966.18 1852.06 965.733 1852.06 965.18L1852.06 1.00003C1852.06 0.447728 1851.61 3.47816e-05 1851.06 3.48057e-05L1560.88 4.74899e-05C1560.7 4.74978e-05 1560.52 0.0485705 1560.37 0.140611L1477.66 49.3528C1477.35 49.5331 1477.17 49.8596 1477.17 50.2122L1477.17 58.9632C1477.17 59.4412 1477.51 59.8522 1477.97 59.9444L1504.79 65.2157C1505.65 65.3841 1505.89 66.4919 1505.19 67.0055L1501.53 69.6683C1501.3 69.8337 1501.01 69.8959 1500.74 69.8394L1434.09 56.1844C1433.69 56.1027 1433.28 56.271 1433.05 56.6102L1427.62 64.7829C1427.3 65.2588 1427.45 65.9029 1427.94 66.1956L1475.87 94.778C1476.49 95.1446 1476.53 96.0195 1475.95 96.443L1413.62 142.205C1413.05 142.625 1413.08 143.491 1413.69 143.863L1425.5 151.141C1426.09 151.503 1426.14 152.336 1425.61 152.77L1343.65 219.092C1343.42 219.282 1343.28 219.568 1343.28 219.87L1343.28 239.211C1343.28 239.763 1343.73 240.211 1344.28 240.211L1362.03 240.211C1362.58 240.211 1363.03 240.658 1363.03 241.211L1363.03 250.457C1363.03 250.71 1362.93 250.954 1362.76 251.139L1257.72 363.711C1257.52 363.927 1257.42 364.223 1257.46 364.517L1260.01 384.937C1260.05 385.233 1259.95 385.53 1259.74 385.747L1251.3 394.694C1251.11 394.897 1251.01 395.172 1251.03 395.451L1253.57 431.022C1253.62 431.695 1254.31 432.128 1254.93 431.881L1375.7 384.384C1376.75 383.973 1377.67 385.455 1376.89 386.264C1352.11 412.005 1360.18 447.113 1368.07 462.852C1368.29 463.308 1368.82 463.498 1369.3 463.311C1375.04 461.046 1385.02 456.723 1385.48 454.96C1385.5 454.879 1385.49 454.797 1385.47 454.716C1378.92 428.92 1384.44 404.798 1406.93 401.505C1424.7 398.901 1458.55 394.301 1473.88 392.241C1474.27 392.189 1474.64 392.371 1474.85 392.703L1489.08 415.388C1489.25 415.648 1489.28 415.969 1489.18 416.258L1472.33 462.975C1472.19 463.371 1471.81 463.635 1471.39 463.635L1445.34 463.635C1444.91 463.635 1444.53 463.36 1444.39 462.951L1440.51 451.301C1440.35 450.812 1439.84 450.527 1439.34 450.642L1422.17 454.568C1421.56 454.708 1421.23 455.371 1421.48 455.946L1426.74 467.905C1426.92 468.308 1426.81 468.78 1426.47 469.067L1404.49 487.924C1404.17 488.197 1403.72 488.243 1403.35 488.039L1394.96 483.374C1394.47 483.102 1393.85 483.284 1393.59 483.778L1385.82 498.358C1385.53 498.895 1385.79 499.56 1386.36 499.768L1396.6 503.492C1397.04 503.655 1397.31 504.113 1397.24 504.584L1394.18 524.518C1394.11 524.937 1393.79 525.269 1393.38 525.349L1383.34 527.261C1382.87 527.351 1382.53 527.763 1382.53 528.243L1382.53 543.763C1382.53 544.403 1383.12 544.879 1383.75 544.74L1396.54 541.895C1397.02 541.789 1397.5 542.043 1397.68 542.496L1406.46 564.191C1406.61 564.563 1406.52 564.988 1406.24 565.272L1398.09 573.43C1397.69 573.826 1397.7 574.47 1398.1 574.858L1410.46 586.727C1410.82 587.08 1411.4 587.1 1411.79 586.774L1420.4 579.595C1420.75 579.303 1421.25 579.284 1421.62 579.549L1431.91 586.903C1432.28 587.165 1432.42 587.641 1432.27 588.064L1427.36 601.308C1427.18 601.805 1427.42 602.359 1427.9 602.571L1443.99 609.616C1444.37 609.782 1444.81 609.698 1445.1 609.407L1452.02 602.486C1452.2 602.298 1452.46 602.193 1452.72 602.193L1488.2 602.193C1488.72 602.193 1489.16 602.591 1489.2 603.11L1491.82 634.6C1491.85 634.96 1491.68 635.308 1491.39 635.511L1477.12 645.201C1476.74 645.454 1476.59 645.925 1476.73 646.351L1484.47 669.073C1484.62 669.512 1485.05 669.79 1485.51 669.746L1523.86 666.036C1524.25 665.997 1524.63 666.194 1524.83 666.538L1533.46 681.785C1533.69 682.186 1533.61 682.69 1533.27 683.006L1525 690.801C1524.7 691.082 1524.6 691.514 1524.75 691.895L1530.21 705.797C1530.4 706.284 1530.94 706.541 1531.44 706.388L1550.89 700.397C1551.47 700.219 1552.07 700.588 1552.17 701.181L1554.03 711.88C1554.11 712.359 1554.53 712.709 1555.02 712.709L1592.18 712.709C1592.74 712.709 1593.18 713.156 1593.18 713.709L1593.18 752.859C1593.18 753.444 1592.68 753.904 1592.1 753.856L1540.59 749.56C1540.49 749.551 1540.39 749.528 1540.3 749.49L1512.17 738.041C1511.52 737.774 1510.8 738.255 1510.8 738.964L1510.77 745.11C1510.77 745.713 1510.24 746.177 1509.64 746.098L1495.15 744.164C1494.66 744.098 1494.29 743.676 1494.28 743.177L1494.26 736.187C1494.26 735.674 1493.87 735.245 1493.36 735.195L1476.55 733.539C1476.01 733.486 1475.52 733.875 1475.46 734.416L1474.63 741.373C1474.56 741.934 1474.04 742.329 1473.48 742.243L1435.8 736.481C1435.31 736.406 1434.95 735.986 1434.95 735.493L1434.95 728.16C1434.95 727.551 1434.41 727.083 1433.8 727.171L1397.93 732.389C1397.48 732.456 1397.13 732.825 1397.08 733.283L1394.49 760.21C1394.45 760.714 1394.78 761.175 1395.28 761.283L1648.44 816.455C1648.9 816.555 1649.23 816.962 1649.23 817.432L1649.23 846.746C1649.23 847.152 1648.98 847.517 1648.61 847.671L1589.6 871.829C1589.13 872.018 1588.88 872.52 1589.01 873.004L1592.95 888.309C1593.08 888.815 1593.58 889.135 1594.09 889.045L1658.49 877.768C1658.87 877.701 1659.26 877.861 1659.48 878.179L1662.54 882.555C1662.79 882.913 1662.78 883.391 1662.52 883.738L1641.44 911.16C1641.17 911.509 1641.16 911.992 1641.42 912.35L1648.72 922.589C1649.01 922.994 1649.55 923.125 1650 922.897L1684.98 904.86C1685.3 904.699 1685.67 904.714 1685.97 904.901L1689.3 906.98C1689.65 907.202 1689.83 907.62 1689.74 908.029Z" fill="#D87A22"/>
<path d="M1420.69 897.361L1380 893.513L1380 875.918L1420.69 875.918L1420.69 897.361Z" fill="white"/>
<path d="M1420.69 839.629L1402.54 842.928L1402.54 820.385L1420.69 816.536L1420.69 839.629Z" fill="white"/>
<path d="M1486.12 829.732L1451.48 842.928L1445.43 824.234L1479.52 808.839L1486.12 829.732Z" fill="white"/>
<path d="M1471.82 857.774L1451.48 869.32L1461.92 889.114L1479.52 880.866L1471.82 857.774Z" fill="white"/>
<path d="M1489.97 789.045L1500.96 824.234L1522.41 816.536L1507.56 781.347L1489.97 789.045Z" fill="white"/>
<path d="M1553.75 803.89C1548.98 808.106 1539.01 816.536 1537.25 816.536L1518.01 789.045L1530.65 773.649L1553.75 803.89Z" fill="white"/>
<path d="M1582.89 750.007L1553.75 781.347L1537.25 767.601L1574.64 734.062L1582.89 750.007Z" fill="white"/>
<path d="M1585.64 765.402L1566.94 781.347L1574.64 803.89L1591.13 789.045L1585.64 765.402Z" fill="white"/>
<path d="M1607.08 756.605L1591.13 741.759L1613.68 719.766L1630.17 729.663L1607.08 756.605Z" fill="white"/>
<path d="M1638.42 687.326L1613.68 712.618L1596.63 695.574L1630.17 672.481L1638.42 687.326Z" fill="white"/>
<path d="M1652.17 687.326L1630.17 705.47L1638.42 725.264L1662.06 705.47L1652.17 687.326Z" fill="white"/>
<path d="M1658.76 729.663L1630.17 750.007L1638.42 765.402L1667.56 750.007L1658.76 729.663Z" fill="white"/>
<path d="M1674.16 773.649L1652.17 789.045L1658.76 803.89L1679.11 789.045L1674.16 773.649Z" fill="white"/>
<path d="M1685.16 700.522L1666.46 700.522L1666.46 672.481L1685.16 667.532L1685.16 700.522Z" fill="white"/>
<path d="M1687.9 636.192L1693.95 662.584L1723.09 650.487L1714.85 621.346L1687.9 636.192Z" fill="white"/>
<path d="M1702.75 610.9L1682.41 626.295L1670.31 587.257L1687.9 576.26L1702.75 610.9Z" fill="white"/>
<path d="M1679.11 645.539L1658.76 657.635L1646.12 615.848L1662.06 603.752L1679.11 645.539Z" fill="white"/>
<path d="M1656.01 670.831L1642.27 677.429L1628.52 629.044L1640.62 622.996L1656.01 670.831Z" fill="white"/>
<path d="M1656.01 596.054C1646.12 604.485 1625.99 621.346 1624.67 621.346L1613.68 601.003L1642.27 577.91L1656.01 596.054Z" fill="white"/>
<path d="M1673.06 566.913L1656.01 577.91L1631.27 547.669L1650.52 535.573L1673.06 566.913Z" fill="white"/>
<path d="M1620.83 521.277L1628.52 541.071L1596.63 554.817L1591.13 532.274L1620.83 521.277Z" fill="white"/>
<path d="M1615.33 508.631L1594.43 516.329L1582.89 486.088L1600.48 476.191L1615.33 508.631Z" fill="white"/>
<path d="M1666.46 524.026L1642.27 530.075L1613.68 483.889L1644.47 470.143L1666.46 524.026Z" fill="white"/>
<path d="M1696.15 517.978L1679.11 530.075L1691.2 547.669L1709.35 535.573L1696.15 517.978Z" fill="white"/>
<path d="M1687.9 455.298L1658.76 466.294L1650.52 442.652C1658.4 439.902 1674.49 434.404 1675.81 434.404C1677.13 434.404 1684.42 448.333 1687.9 455.298Z" fill="white"/>
<path d="M1642.27 447.6L1617.53 459.696L1607.08 434.404L1635.12 423.957L1642.27 447.6Z" fill="white"/>
<path d="M1689.55 414.06L1650.52 432.205L1646.12 414.06L1679.11 395.916L1689.55 414.06Z" fill="white"/>
<path d="M1646.12 398.115L1628.52 411.861L1610.93 375.572L1628.52 367.325L1646.12 398.115Z" fill="white"/>
<path d="M1598.83 387.669L1584.54 401.414L1563.64 370.074L1581.24 354.679L1598.83 387.669Z" fill="white"/>
<path d="M1555.4 395.916L1511.41 398.115L1504.81 375.572L1553.2 370.074L1555.4 395.916Z" fill="white"/>
<path d="M1509.76 367.325L1488.32 370.074L1483.92 351.93L1507.56 347.531L1509.76 367.325Z" fill="white"/>
<path d="M1509.76 335.984L1473.47 343.682L1473.47 326.088L1507.56 321.139L1509.76 335.984Z" fill="white"/>
<path d="M1542.2 321.139L1521.86 335.984L1534.5 362.376L1553.2 343.682L1542.2 321.139Z" fill="white"/>
<path d="M1635.12 333.785L1600.48 360.727L1588.39 343.682L1622.48 317.29L1635.12 333.785Z" fill="white"/>
<path d="M1588.39 338.184L1569.14 351.93L1558.14 340.383L1579.04 326.088L1588.39 338.184Z" fill="white"/>
<path d="M1579.04 315.641L1560.89 326.088L1542.2 288.699C1547.51 286.133 1558.69 281.001 1560.89 281.001C1563.09 281.001 1573.91 304.094 1579.04 315.641Z" fill="white"/>
<path d="M1610.93 311.242L1593.33 324.988L1571.89 285.4L1584.54 276.053L1610.93 311.242Z" fill="white"/>
<path d="M1598.83 276.053L1572.99 257.359L1582.89 240.864L1610.93 257.359L1598.83 276.053Z" fill="white"/>
<path d="M1470.17 356.878L1470.17 377.222L1425.09 362.376L1427.84 343.682L1470.17 356.878Z" fill="white"/>
<path d="M1438.28 375.572L1432.23 391.517L1401.99 382.17L1406.39 367.325L1438.28 375.572Z" fill="white"/>
<path d="M1414.64 343.682L1409.69 362.376L1380 354.129L1386.05 335.984L1414.64 343.682Z" fill="white"/>
<path d="M1650.52 321.139L1628.52 307.393L1638.97 288.699L1658.76 299.146L1650.52 321.139Z" fill="white"/>
<path d="M1619.73 293.648L1605.43 281.001L1638.97 246.912L1646.12 261.757L1619.73 293.648Z" fill="white"/>
<path d="M1666.46 254.61L1648.32 244.163L1658.76 228.218L1682.96 239.214L1666.46 254.61Z" fill="white"/>
<path d="M1680.76 296.947L1644.47 279.352L1656.56 261.757L1689.55 276.053L1680.76 296.947Z" fill="white"/>
<path d="M1694.5 268.905L1679.11 261.757L1696.15 233.166L1713.75 240.864L1694.5 268.905Z" fill="white"/>
<path d="M1706.05 223.269L1682.96 212.822L1700.55 180.932L1725.84 190.829L1706.05 223.269Z" fill="white"/>
<path d="M1728.04 246.912L1713.75 265.606L1754.98 290.898L1765.98 272.754L1728.04 246.912Z" fill="white"/>
<path d="M1721.99 281.001L1703.85 272.754L1689.55 299.146L1703.85 307.393L1721.99 281.001Z" fill="white"/>
<path d="M1742.34 244.163L1715.4 231.517L1725.84 212.822L1751.69 220.52L1742.34 244.163Z" fill="white"/>
<path d="M1779.73 265.606L1754.98 250.761L1760.48 231.517L1789.62 246.912L1779.73 265.606Z" fill="white"/>
<path d="M1789.62 276.053C1800.07 272.571 1821.51 265.606 1823.71 265.606L1825.36 288.699L1791.82 296.947L1789.62 276.053Z" fill="white"/>
<path d="M1775.88 223.269L1825.36 239.214L1825.36 205.675L1789.62 197.427L1775.88 223.269Z" fill="white"/>
<path d="M1778.08 190.829L1770.93 210.623L1736.84 197.427L1743.99 178.733L1778.08 190.829Z" fill="white"/>
<path d="M1769.28 174.884L1753.33 169.936L1762.13 146.293L1780.83 155.64L1769.28 174.884Z" fill="white"/>
<path d="M1740.69 157.29L1721.99 163.887L1708.8 141.894L1728.04 133.647L1740.69 157.29Z" fill="white"/>
<path d="M1809.42 187.53L1784.68 178.733L1790.72 147.393L1813.27 152.891L1809.42 187.53Z" fill="white"/>
<path d="M1816.02 139.695L1779.73 135.296L1778.08 118.801L1816.02 117.152L1816.02 139.695Z" fill="white"/>
<path d="M1745.64 108.904L1734.09 120.451L1708.8 86.9113L1721.99 76.4645L1745.64 108.904Z" fill="white"/>
<path d="M1778.08 97.358L1765.98 107.255L1740.69 81.413L1754.98 69.8666L1778.08 97.358Z" fill="white"/>
<path d="M1734.09 69.8666L1713.75 56.6706L1739.04 22.5811L1756.63 37.9764L1734.09 69.8666Z" fill="white"/>
<path d="M1706.05 40.1756L1684.61 26.9797L1692.85 8.28557L1716.5 21.4814L1706.05 40.1756Z" fill="white"/>
<path d="M1716.5 8.28557L1692.85 -2.16127L1698.9 -21.4053L1721.99 -7.10976L1716.5 8.28557Z" fill="white"/>
<path d="M1670.86 14.8835L1653.27 3.88689L1668.66 -31.8521L1687.9 -23.0548L1670.86 14.8835Z" fill="white"/>
<path d="M1653.27 -17.0067L1642.82 -2.16127L1608.73 -25.2542L1616.98 -38.9999L1653.27 -17.0067Z" fill="white"/>
<path d="M1664.81 23.6808L1640.07 52.8218L1659.86 65.4679L1681.86 38.5262L1664.81 23.6808Z" fill="white"/>
<path d="M1689.55 50.6225L1673.06 66.5676L1692.85 88.011L1708.8 69.8666L1689.55 50.6225Z" fill="white"/>
<path fill-rule="evenodd" clip-rule="evenodd" d="M1166.65 187L1178.17 194.526C1186.4 199.902 1206.97 209.166 1216.92 224.945C1220.76 231.036 1224.25 238.036 1227.09 246.074C1237.47 216.857 1264.81 201.573 1276.69 194.389L1288 187.553V742.396C1288 750.626 1281.33 757.297 1273.1 757.297V757.297V215.494C1259.33 227.755 1234.51 250.959 1234.51 293.085C1234.51 293.085 1234.51 663.465 1234.51 742.585C1234.51 750.814 1227.84 757.292 1219.61 757.292V757.292V293.085C1219.61 265.366 1212.71 246.194 1204.32 232.893C1199.83 225.776 1186.32 220.219 1181.55 215.873V742.396C1181.55 750.626 1174.88 757.297 1166.65 757.297V757.297V187Z" fill="white"/>
<path fill-rule="evenodd" clip-rule="evenodd" d="M759.346 757.296V757.296C767.575 757.296 774.247 750.625 774.247 742.396V219.798C777.09 224.14 779.997 229.396 782.908 235.516C789.76 249.92 796.076 267.877 801.456 286.76C812.258 324.672 818.948 365.087 818.948 386.274V757.296V757.296C827.177 757.296 833.848 750.625 833.848 742.396V215.664C833.848 207.434 827.177 200.763 818.948 200.763V200.763V294.27C817.935 290.387 816.88 286.515 815.786 282.677C810.274 263.331 803.693 244.525 796.364 229.116C790.699 217.208 784.213 206.501 776.853 199.366C768.192 190.705 759.346 187.028 759.346 187.028V757.296Z" fill="white"/>
<path fill-rule="evenodd" clip-rule="evenodd" d="M1073.21 200.764V200.764C1081.44 200.764 1088.11 207.435 1088.11 215.664V738.261C1090.95 733.919 1093.86 728.663 1096.77 722.543C1103.62 708.14 1109.94 690.183 1115.32 671.3C1126.12 633.387 1132.81 592.973 1132.81 571.786V200.764V200.764C1141.04 200.764 1147.71 207.435 1147.71 215.664V742.396C1147.71 750.625 1141.04 757.297 1132.81 757.297V757.297V663.79C1131.8 667.673 1130.74 671.545 1129.65 675.383C1124.14 694.729 1117.56 713.535 1110.23 728.944C1096.03 758.787 1073.21 771.032 1073.21 771.032V200.764Z" fill="white"/>
<path fill-rule="evenodd" clip-rule="evenodd" d="M1035.75 200.764C1043.98 200.764 1050.65 207.435 1050.65 215.664V743.141C1050.65 751.371 1043.98 758.042 1035.75 758.042V758.042V200.764V200.764Z" fill="white"/>
<path fill-rule="evenodd" clip-rule="evenodd" d="M960.439 202.675C966.192 208.638 973.601 218.073 980.914 232.334C995.541 260.856 1009.67 308.458 1009.67 385.902C1009.67 532.562 995.664 624.196 981.501 679.384C974.417 706.987 967.287 725.503 961.834 737.241C949.137 764.568 938.896 771.484 938.896 771.484V187.457C938.896 187.457 943.738 187.457 960.439 202.675ZM953.797 718.012C957.842 707.569 962.445 693.696 967.068 675.68C980.844 622.002 994.773 531.664 994.773 385.902C994.773 310.244 980.967 265.09 967.655 239.133C962.752 229.571 957.9 222.583 953.797 217.608V718.012Z" fill="white"/>
<path fill-rule="evenodd" clip-rule="evenodd" d="M645.731 200.391V728.292C642.229 719.484 638.296 707.614 634.332 691.787C621.498 640.542 608.48 548.361 608.48 385.53V215.292C608.48 207.062 601.809 200.391 593.579 200.391V200.391V385.53C593.579 549.019 606.637 642.535 619.878 695.407C626.504 721.861 633.208 738.275 638.434 748.242C648.711 768.472 660.631 773.21 660.631 773.21V215.292C660.631 207.062 653.96 200.391 645.731 200.391V200.391Z" fill="white"/>
<path fill-rule="evenodd" clip-rule="evenodd" d="M526.901 296.824C526.901 296.793 526.901 296.741 526.901 296.669C526.902 296.524 526.904 296.298 526.909 295.995C526.919 295.389 526.941 294.48 526.988 293.31C527.083 290.969 527.279 287.595 527.684 283.536C528.499 275.381 530.141 264.636 533.416 253.996C540.142 232.143 552.456 214.175 575.327 214.175V214.175C575.327 205.946 568.518 198.999 560.599 201.239C537.155 207.871 525.178 230.111 519.175 249.612C515.512 261.512 513.731 273.306 512.858 282.056C512.419 286.449 512.205 290.119 512.1 292.708C512.048 294.004 512.023 295.031 512.011 295.747C512.005 296.104 512.002 296.384 512.001 296.58C512 296.679 512 296.756 512 296.812L512 296.879L512 296.889L512 296.896L512 296.901L512 296.908L512 296.918L512.001 296.986C512.001 297.042 512.001 297.12 512.002 297.219C512.004 297.417 512.008 297.699 512.015 298.06C512.03 298.782 512.059 299.82 512.117 301.13C512.231 303.746 512.459 307.456 512.912 311.897C513.815 320.742 515.63 332.663 519.312 344.687C524.543 361.773 534.264 381.03 552.065 390.185C545.533 396.151 540.357 404.363 536.267 413.162C527.964 431.025 522.598 454.388 519.072 477.145C515.528 500.024 513.764 522.836 512.883 539.886C512.442 548.422 512.222 555.54 512.111 560.532C512.056 563.028 512.028 564.995 512.014 566.343C512.007 567.017 512.004 567.536 512.002 567.89C512.001 568.067 512.001 568.203 512 568.296L512 568.432L512 568.434L512 568.44L512 568.442L512 568.579C512 568.672 512 568.809 512.001 568.987C512.002 569.343 512.004 569.866 512.01 570.543C512.021 571.899 512.045 573.877 512.095 576.389C512.196 581.411 512.404 588.571 512.83 597.158C513.681 614.309 515.41 637.258 518.931 660.273C522.433 683.166 527.785 706.667 536.105 724.634C541.922 737.196 549.938 748.557 560.937 753.967C568.322 757.598 575.327 750.627 575.327 742.397V742.397C565.954 742.397 557.275 734.889 549.626 718.373C542.196 702.327 537.095 680.477 533.66 658.019C530.243 635.684 528.549 613.281 527.712 596.42C527.294 588 527.091 580.988 526.993 576.09C526.944 573.641 526.921 571.721 526.91 570.42C526.904 569.769 526.902 569.273 526.901 568.943C526.901 568.778 526.9 568.654 526.9 568.573L526.9 568.452L526.901 568.332C526.901 568.252 526.901 568.129 526.902 567.965C526.904 567.636 526.907 567.143 526.914 566.496C526.927 565.203 526.954 563.295 527.008 560.861C527.116 555.992 527.331 549.023 527.764 540.654C528.629 523.894 530.357 501.627 533.797 479.427C537.256 457.105 542.367 435.389 549.779 419.443C555.394 407.364 561.549 400.141 568.107 397.167C571.855 395.468 575.327 392.243 575.327 388.128V388.128C575.327 384.013 571.954 380.771 567.916 379.978C549.937 376.447 539.578 359.981 533.559 340.324C530.256 329.537 528.579 318.647 527.735 310.384C527.316 306.271 527.107 302.852 527.003 300.478C526.951 299.292 526.925 298.37 526.913 297.756C526.906 297.449 526.903 297.219 526.902 297.071C526.901 296.998 526.901 296.945 526.901 296.913L526.901 296.882L526.901 296.88L526.901 296.868L526.901 296.856L526.901 296.824Z" fill="white"/>
<path fill-rule="evenodd" clip-rule="evenodd" d="M693.786 296.824C693.786 296.793 693.786 296.741 693.787 296.669C693.787 296.524 693.79 296.298 693.795 295.995C693.805 295.389 693.827 294.48 693.874 293.31C693.968 290.969 694.165 287.595 694.57 283.536C695.384 275.381 697.026 264.636 700.301 253.996C707.028 232.143 719.341 214.175 742.212 214.175V214.175C742.212 205.946 735.403 198.999 727.484 201.239C704.041 207.871 692.063 230.111 686.06 249.612C682.397 261.512 680.617 273.306 679.743 282.056C679.305 286.449 679.09 290.119 678.986 292.708C678.933 294.004 678.908 295.031 678.896 295.747C678.89 296.104 678.888 296.384 678.886 296.58C678.886 296.679 678.886 296.756 678.886 296.812L678.886 296.879L678.886 296.889L678.886 296.896L678.886 296.901L678.886 296.908L678.886 296.918L678.886 296.986C678.886 297.042 678.887 297.12 678.888 297.219C678.89 297.417 678.893 297.699 678.901 298.06C678.916 298.782 678.945 299.82 679.002 301.13C679.116 303.746 679.344 307.456 679.797 311.897C680.7 320.742 682.515 332.663 686.197 344.687C691.429 361.773 701.149 381.03 718.95 390.185C712.418 396.151 707.243 404.363 703.152 413.162C694.849 431.025 689.484 454.388 685.958 477.145C682.413 500.024 680.649 522.836 679.768 539.886C679.328 548.422 679.107 555.54 678.996 560.532C678.941 563.028 678.913 564.995 678.899 566.343C678.893 567.017 678.889 567.536 678.887 567.89C678.886 568.067 678.886 568.203 678.886 568.296L678.885 568.432L678.885 568.434L678.885 568.44L678.885 568.442L678.885 568.579C678.885 568.672 678.886 568.809 678.886 568.987C678.887 569.343 678.89 569.866 678.895 570.543C678.906 571.899 678.93 573.877 678.981 576.389C679.082 581.411 679.289 588.571 679.715 597.158C680.566 614.309 682.295 637.258 685.816 660.273C689.318 683.166 694.671 706.667 702.991 724.634C708.808 737.196 716.824 748.557 727.822 753.967C735.207 757.598 742.212 750.627 742.212 742.397V742.397C732.839 742.397 724.16 734.889 716.512 718.373C709.082 702.327 703.981 680.477 700.545 658.019C697.128 635.684 695.434 613.281 694.597 596.42C694.18 588 693.977 580.988 693.878 576.09C693.829 573.641 693.806 571.721 693.795 570.42C693.79 569.769 693.787 569.273 693.786 568.943C693.786 568.778 693.786 568.654 693.786 568.573L693.786 568.452L693.786 568.332C693.786 568.252 693.787 568.129 693.787 567.965C693.789 567.636 693.792 567.143 693.799 566.496C693.812 565.203 693.839 563.295 693.893 560.861C694.001 555.992 694.217 549.023 694.649 540.654C695.515 523.894 697.243 501.627 700.683 479.427C704.141 457.105 709.252 435.389 716.664 419.443C722.279 407.364 728.434 400.141 734.993 397.167C738.74 395.468 742.212 392.243 742.212 388.128V388.128C742.212 384.013 738.839 380.771 734.801 379.978C716.822 376.447 706.463 359.981 700.444 340.324C697.141 329.537 695.464 318.647 694.621 310.384C694.201 306.271 693.992 302.852 693.888 300.478C693.836 299.292 693.811 298.37 693.798 297.756C693.792 297.449 693.789 297.219 693.787 297.071C693.787 296.998 693.786 296.945 693.786 296.913L693.786 296.882L693.786 296.88L693.786 296.868L693.786 296.856L693.786 296.824Z" fill="white"/>
<path fill-rule="evenodd" clip-rule="evenodd" d="M870.356 296.824C870.356 296.793 870.356 296.741 870.357 296.669C870.358 296.524 870.36 296.298 870.365 295.995C870.375 295.389 870.397 294.48 870.444 293.31C870.539 290.969 870.735 287.595 871.14 283.536C871.954 275.381 873.596 264.636 876.871 253.996C883.598 232.143 895.911 214.175 918.782 214.175V214.175C918.782 205.946 911.973 198.999 904.055 201.239C880.611 207.871 868.633 230.111 862.63 249.612C858.968 261.512 857.187 273.306 856.313 282.056C855.875 286.449 855.66 290.119 855.556 292.708C855.503 294.004 855.478 295.031 855.466 295.747C855.46 296.104 855.458 296.384 855.457 296.58C855.456 296.679 855.456 296.756 855.456 296.812L855.456 296.879L855.456 296.889L855.456 296.896L855.456 296.901L855.456 296.908L855.456 296.918L855.456 296.986C855.456 297.042 855.457 297.12 855.458 297.219C855.46 297.417 855.464 297.699 855.471 298.06C855.486 298.782 855.515 299.82 855.572 301.13C855.687 303.746 855.914 307.456 856.368 311.897C857.27 320.742 859.085 332.663 862.767 344.687C867.999 361.773 877.72 381.03 895.52 390.185C888.988 396.151 883.813 404.363 879.723 413.162C871.42 431.025 866.054 454.388 862.528 477.145C858.983 500.024 857.219 522.836 856.339 539.886C855.898 548.422 855.677 555.54 855.567 560.532C855.511 563.028 855.484 564.995 855.47 566.343C855.463 567.017 855.459 567.536 855.457 567.89C855.457 568.067 855.456 568.203 855.456 568.296L855.456 568.432L855.456 568.434L855.456 568.44L855.456 568.442L855.456 568.579C855.456 568.672 855.456 568.809 855.456 568.987C855.457 569.343 855.46 569.866 855.465 570.543C855.477 571.899 855.501 573.877 855.551 576.389C855.652 581.411 855.859 588.571 856.285 597.158C857.137 614.309 858.865 637.258 862.386 660.273C865.888 683.166 871.241 706.667 879.561 724.634C885.378 737.196 893.394 748.557 904.393 753.967C911.777 757.598 918.782 750.627 918.782 742.397V742.397C909.409 742.397 900.73 734.889 893.082 718.373C885.652 702.327 880.551 680.477 877.115 658.019C873.698 635.684 872.004 613.281 871.168 596.42C870.75 588 870.547 580.988 870.448 576.09C870.399 573.641 870.376 571.721 870.365 570.42C870.36 569.769 870.358 569.273 870.357 568.943C870.356 568.778 870.356 568.654 870.356 568.573L870.356 568.452L870.356 568.332C870.356 568.252 870.357 568.129 870.358 567.965C870.359 567.636 870.363 567.143 870.369 566.496C870.383 565.203 870.409 563.295 870.463 560.861C870.571 555.992 870.787 549.023 871.219 540.654C872.085 523.894 873.813 501.627 877.253 479.427C880.711 457.105 885.822 435.389 893.235 419.443C898.849 407.364 905.005 400.141 911.563 397.167C915.31 395.468 918.782 392.243 918.782 388.128V388.128C918.782 384.013 915.409 380.771 911.372 379.978C893.392 376.447 883.033 359.981 877.015 340.324C873.712 329.537 872.034 318.647 871.191 310.384C870.771 306.271 870.562 302.852 870.458 300.478C870.406 299.292 870.381 298.37 870.368 297.756C870.362 297.449 870.359 297.219 870.358 297.071C870.357 296.998 870.357 296.945 870.356 296.913L870.356 296.882L870.356 296.88L870.356 296.868L870.356 296.856L870.356 296.824Z" fill="white"/>
</g>
<defs>
<radialGradient id="paint0_radial_1717_21869" cx="0" cy="0" r="1" gradientTransform="translate(900 480) rotate(90) scale(480 3084.1)">
<stop stop-color="#2D2D2D"/>
<stop offset="1"/>
</radialGradient>
<clipPath id="clip0_1717_21869">
<rect width="1800" height="960" fill="white"/>
</clipPath>
</defs>
</svg>
