<?xml version="1.0" encoding="UTF-8"?>
<svg viewBox="0 0 510 385" xmlns="http://www.w3.org/2000/svg">
  <path d="m430.25 0 7.574 4.9428c5.409 3.5305 18.925 9.6152 25.464 19.978 2.525 4.0008 4.82 8.5982 6.686 13.877 6.819-19.189 24.791-29.227 32.599-33.945l7.43-4.4893v364.39c0 5.408-4.384 9.793-9.793 9.793v-355.84c-9.051 8.0526-25.359 23.292-25.359 50.959v295.21c0 5.408-4.384 9.666-9.793 9.666v-304.87c0-18.205-4.54-30.796-10.053-39.532-2.95-4.6743-11.83-8.3237-14.962-11.178v345.79c0 5.408-4.385 9.793-9.793 9.793v-374.55z" clip-rule="evenodd" fill="#fff" fill-rule="evenodd"/>
  <path d="m162.56 374.55c5.408 0 9.793-4.384 9.793-9.793v-343.21c1.868 2.8516 3.779 6.3036 5.692 10.323 4.503 9.4598 8.654 21.253 12.19 33.654 7.1 24.9 11.496 51.442 11.496 65.358v243.67c5.408 0 9.793-4.384 9.793-9.793v-345.92c0-5.4084-4.385-9.7928-9.793-9.7928v61.412c-0.666-2.5505-1.359-5.0934-2.078-7.6143-3.623-12.706-7.948-25.057-12.765-35.177-3.722-7.8208-7.985-14.852-12.822-19.538-5.692-5.6882-11.506-8.1035-11.506-8.1035v374.53z" clip-rule="evenodd" fill="#fff" fill-rule="evenodd"/>
  <path d="m368.84 9.0394c5.408 0 9.792 4.3844 9.792 9.7928v343.21c1.869-2.852 3.78-6.304 5.693-10.323 4.503-9.46 8.654-21.253 12.19-33.655 7.099-24.899 11.496-51.442 11.496-65.357v-243.67c5.408 0 9.793 4.3844 9.793 9.7928v345.92c0 5.408-4.385 9.792-9.793 9.792v-61.411c-0.666 2.55-1.359 5.093-2.078 7.614-3.623 12.706-7.948 25.057-12.765 35.176-9.329 19.6-24.328 27.642-24.328 27.642v-374.53z" clip-rule="evenodd" fill="#fff" fill-rule="evenodd"/>
  <path d="m344.22 9.0394c5.409 0 9.793 4.3844 9.793 9.7928v346.41c0 5.408-4.384 9.793-9.793 9.793v-366z" clip-rule="evenodd" fill="#fff" fill-rule="evenodd"/>
  <path d="m294.72 10.294c3.78 3.9168 8.65 10.113 13.456 19.479 9.613 18.732 18.901 49.996 18.901 100.86 0 96.32-9.207 156.5-18.515 192.75-4.656 18.128-9.342 30.289-12.926 37.998-8.345 17.947-15.075 22.489-15.075 22.489v-383.57s3.182 0 14.159 9.9942zm-4.366 338.45c2.659-6.859 5.684-15.97 8.722-27.802 9.054-35.254 18.208-94.584 18.208-190.32 0-49.69-9.073-79.344-17.822-96.392-3.223-6.28-6.411-10.869-9.108-14.137v328.65z" clip-rule="evenodd" fill="#fff" fill-rule="evenodd"/>
  <path d="m87.89 8.7948v346.7c-2.3011-5.785-4.8863-13.58-7.4913-23.975-8.4348-33.655-16.991-94.197-16.991-201.14v-111.8c0-5.4084-4.3843-9.7927-9.7927-9.7927v121.59c0 107.37 8.5814 168.79 17.284 203.52 4.3543 17.374 8.7604 28.154 12.195 34.7 6.754 13.286 14.588 16.398 14.588 16.398v-366.41c0-5.4084-4.3844-9.7927-9.7928-9.7927z" clip-rule="evenodd" fill="#fff" fill-rule="evenodd"/>
  <path d="m9.7929 72.128c2e-5 -0.0203 1e-4 -0.0544 3.8e-4 -0.1019 5.6e-4 -0.0951 0.00194-0.2439 0.00525-0.4426 0.00663-0.3977 0.02101-0.995 0.05209-1.7632 0.06221-1.5377 0.19105-3.7534 0.45745-6.4192 0.5351-5.356 1.6141-12.413 3.7667-19.401 4.4207-14.352 12.513-26.153 27.544-26.153 0-5.4047-4.4716-9.9671-9.6728-8.4979-15.412 4.3533-23.285 18.962-27.231 31.772-2.4072 7.815-3.5774 15.561-4.1516 21.308-0.2883 2.8854-0.4291 5.2957-0.4979 6.9962-0.034423 0.8508-0.050887 1.5257-0.05872 1.9954-0.0039168 0.2349-0.0056772 0.4187-0.0064421 0.5477-3.829e-4 0.0644-5.1645e-4 0.1152-5.4634e-4 0.1519l1.4475e-5 0.0443 2.148e-5 0.0063 4.67e-6 5e-3 6.07e-6 0.0029 1.5877e-5 5e-3 4.202e-6 0.0062 1.6624e-4 0.0445c1.7978e-4 0.0368 5.1972e-4 0.088 0.0011627 0.153 0.001286 0.13 0.0037838 0.3154 0.0086302 0.5526 0.0096917 0.4743 0.02879 1.1561 0.066432 2.0159 0.075231 1.7184 0.22483 4.1548 0.52275 7.0715 0.59336 5.8093 1.7863 13.638 4.2059 21.536 3.4384 11.221 9.827 23.868 21.526 29.881-4.2929 3.918-7.6944 9.311-10.382 15.09-5.4568 11.732-8.9832 27.076-11.301 42.022-2.3297 15.026-3.4891 30.008-4.0678 41.206-0.28974 5.606-0.43477 10.28-0.50739 13.559-0.036317 1.64-0.054546 2.931-0.063697 3.816-0.0045757 0.443-0.006882 0.784-0.0080447 1.017-5.8136e-4 0.116-8.7694e-4 0.205-0.0010273 0.266l-1.5176e-4 0.089 1.8678e-6 2e-3 -4.2026e-6 4e-3 -4.6695e-6 1e-3 -3.222e-5 0.09c2.5216e-5 0.062 1.3822e-4 0.151 4.833e-4 0.268 6.8969e-4 0.234 0.0023058 0.577 0.0059962 1.022 0.0073807 0.891 0.023059 2.19 0.056227 3.839 0.066321 3.299 0.20264 8.001 0.48271 13.641 0.55939 11.264 1.6955 26.336 4.0095 41.451 2.3018 15.035 5.8196 30.47 11.288 42.27 3.8241 8.252 9.0941 15.716 16.326 19.267 4.8512 2.383 9.4513-2.196 9.4513-7.601-6.1602 0-11.864-4.931-16.891-15.778-4.8833-10.539-8.2357-24.889-10.494-39.638-2.2457-14.669-3.3589-29.382-3.9088-40.456-0.2746-5.53-0.408-10.135-0.47269-13.352-0.03234-1.609-0.0475-2.869-0.05459-3.724-0.00354-0.427-0.00506-0.753-0.0057-0.97-3.2e-4 -0.108-4.2e-4 -0.19-4.4e-4 -0.243l4e-5 -0.079 1.2e-4 -0.079c1.3e-4 -0.053 4e-4 -0.134 9.4e-4 -0.241 0.00108-0.216 0.00325-0.54 0.00764-0.965 0.00878-0.849 0.02642-2.102 0.06182-3.7 0.07083-3.198 0.21266-7.776 0.49676-13.272 0.5689-11.007 1.7047-25.631 3.9653-40.211 2.2731-14.661 5.6322-28.923 10.504-39.396 3.6908-7.935 7.7372-12.678 12.048-14.631 2.4617-1.115 4.7417-3.233 4.7417-5.935s-2.2152-4.832-4.8671-5.352c-11.818-2.317-18.627-13.133-22.583-26.044-2.1707-7.0843-3.2731-14.237-3.8274-19.663-0.2759-2.7014-0.41322-4.9467-0.48147-6.5055-0.03409-0.7788-0.05086-1.3844-0.05911-1.788-0.00412-0.2017-0.00611-0.3528-0.00707-0.4495-4.8e-4 -0.0484-7e-4 -0.0832-8e-4 -0.104l-8e-5 -0.0205v-0.0014-0.0078l-3e-5 -0.0078-1e-5 -0.021z" clip-rule="evenodd" fill="#fff" fill-rule="evenodd"/>
  <path d="m119.47 72.128v-0.1019c1e-3 -0.0951 2e-3 -0.2439 5e-3 -0.4426 7e-3 -0.3977 0.022-0.995 0.053-1.7632 0.062-1.5377 0.191-3.7534 0.457-6.4192 0.535-5.356 1.614-12.413 3.767-19.401 4.42-14.352 12.513-26.153 27.544-26.153 0-5.4047-4.471-9.9671-9.673-8.4979-15.412 4.3533-23.285 18.962-27.231 31.772-2.407 7.815-3.577 15.561-4.151 21.308-0.289 2.8854-0.429 5.2957-0.498 6.9962-0.035 0.8508-0.051 1.5257-0.059 1.9954-4e-3 0.2349-6e-3 0.4187-6e-3 0.5477-1e-3 0.0644-1e-3 0.1152-1e-3 0.1519v0.0443 0.0063 5e-3 0.0029 5e-3 0.0062 0.0445c0 0.0368 1e-3 0.088 1e-3 0.153 2e-3 0.13 4e-3 0.3154 9e-3 0.5526 0.01 0.4743 0.029 1.1561 0.067 2.0159 0.075 1.7184 0.224 4.1548 0.522 7.0715 0.594 5.8093 1.787 13.638 4.206 21.536 3.439 11.221 9.827 23.868 21.526 29.881-4.293 3.918-7.694 9.311-10.382 15.09-5.457 11.732-8.984 27.076-11.301 42.022-2.33 15.026-3.489 30.008-4.068 41.206-0.289 5.606-0.434 10.28-0.507 13.559-0.036 1.64-0.055 2.931-0.064 3.816-4e-3 0.443-7e-3 0.784-8e-3 1.017 0 0.116-1e-3 0.205-1e-3 0.266v0.089 2e-3 4e-3 1e-3 0.09 0.268c1e-3 0.234 3e-3 0.577 6e-3 1.022 8e-3 0.891 0.023 2.19 0.057 3.839 0.066 3.299 0.202 8.001 0.482 13.641 0.56 11.264 1.696 26.336 4.01 41.451 2.302 15.035 5.819 30.47 11.287 42.27 3.824 8.252 9.094 15.716 16.326 19.267 4.851 2.383 9.451-2.196 9.451-7.601-6.16 0-11.864-4.931-16.89-15.778-4.884-10.539-8.236-24.889-10.494-39.638-2.246-14.669-3.359-29.382-3.909-40.456-0.275-5.53-0.408-10.135-0.473-13.352-0.032-1.609-0.047-2.869-0.054-3.724-4e-3 -0.427-5e-3 -0.753-6e-3 -0.97v-0.243-0.079-0.079c0-0.053 0-0.134 1e-3 -0.241 1e-3 -0.216 3e-3 -0.54 7e-3 -0.965 9e-3 -0.849 0.027-2.102 0.062-3.7 0.071-3.198 0.213-7.776 0.497-13.272 0.569-11.007 1.705-25.631 3.965-40.211 2.273-14.661 5.633-28.923 10.504-39.396 3.691-7.935 7.737-12.678 12.049-14.631 2.461-1.115 4.741-3.233 4.741-5.935s-2.215-4.832-4.867-5.352c-11.818-2.317-18.627-13.133-22.583-26.044-2.171-7.0843-3.273-14.237-3.828-19.663-0.275-2.7014-0.413-4.9467-0.481-6.5055-0.034-0.7788-0.051-1.3844-0.059-1.788-4e-3 -0.2017-6e-3 -0.3528-7e-3 -0.4495-1e-3 -0.0484-1e-3 -0.0832-1e-3 -0.104v-0.0205-0.0014-0.0078-0.0078-0.021z" clip-rule="evenodd" fill="#fff" fill-rule="evenodd"/>
  <path d="m235.52 72.128v-0.1019c0-0.0951 2e-3 -0.2439 5e-3 -0.4426 7e-3 -0.3977 0.021-0.995 0.052-1.7632 0.062-1.5377 0.191-3.7534 0.458-6.4192 0.535-5.356 1.614-12.413 3.766-19.401 4.421-14.352 12.514-26.153 27.545-26.153 0-5.4047-4.472-9.9671-9.673-8.4979-15.412 4.3533-23.285 18.962-27.231 31.772-2.407 7.815-3.577 15.561-4.152 21.308-0.288 2.8854-0.429 5.2957-0.498 6.9962-0.034 0.8508-0.05 1.5257-0.058 1.9954-4e-3 0.2349-6e-3 0.4187-7e-3 0.5477v0.1519 0.0443 0.0063 5e-3 0.0029 5e-3 0.0062 0.0445c0 0.0368 1e-3 0.088 1e-3 0.153 1e-3 0.13 4e-3 0.3154 9e-3 0.5526 9e-3 0.4743 0.029 1.1561 0.066 2.0159 0.075 1.7184 0.225 4.1548 0.523 7.0715 0.593 5.8093 1.786 13.638 4.206 21.536 3.438 11.221 9.827 23.868 21.526 29.881-4.293 3.918-7.695 9.311-10.383 15.09-5.457 11.732-8.983 27.076-11.3 42.022-2.33 15.026-3.489 30.008-4.068 41.206-0.29 5.606-0.435 10.28-0.507 13.559-0.037 1.64-0.055 2.931-0.064 3.816-5e-3 0.443-7e-3 0.784-8e-3 1.017-1e-3 0.116-1e-3 0.205-1e-3 0.266v0.089 2e-3 4e-3 1e-3 0.09 0.268c1e-3 0.234 2e-3 0.577 6e-3 1.022 7e-3 0.891 0.023 2.19 0.056 3.839 0.067 3.299 0.203 8.001 0.483 13.641 0.559 11.264 1.695 26.336 4.009 41.451 2.302 15.035 5.82 30.47 11.288 42.27 3.824 8.252 9.094 15.716 16.326 19.267 4.851 2.383 9.451-2.196 9.451-7.601-6.16 0-11.864-4.931-16.891-15.778-4.883-10.539-8.235-24.889-10.493-39.638-2.246-14.669-3.359-29.382-3.909-40.456-0.275-5.53-0.408-10.135-0.473-13.352-0.032-1.609-0.047-2.869-0.054-3.724-4e-3 -0.427-6e-3 -0.753-6e-3 -0.97 0-0.108-1e-3 -0.19-1e-3 -0.243v-0.079l1e-3 -0.079v-0.241c2e-3 -0.216 4e-3 -0.54 8e-3 -0.965 9e-3 -0.849 0.027-2.102 0.062-3.7 0.071-3.198 0.213-7.776 0.497-13.272 0.569-11.007 1.704-25.631 3.965-40.211 2.273-14.661 5.632-28.923 10.504-39.396 3.69-7.935 7.737-12.678 12.048-14.631 2.462-1.115 4.742-3.233 4.742-5.935s-2.215-4.832-4.867-5.352c-11.819-2.317-18.628-13.133-22.583-26.044-2.171-7.0843-3.274-14.237-3.828-19.663-0.276-2.7014-0.413-4.9467-0.481-6.5055-0.034-0.7788-0.051-1.3844-0.059-1.788-5e-3 -0.2017-7e-3 -0.3528-8e-3 -0.4495v-0.104-0.0205-0.0014-0.0078-0.0078-0.021z" clip-rule="evenodd" fill="#fff" fill-rule="evenodd"/>
</svg>
