<?xml version="1.0" encoding="UTF-8"?>
<svg viewBox="0 0 167 32" xmlns="http://www.w3.org/2000/svg">
  <path d="m15.753 1.334c2.2973 0 4.4463 0.533 6.373 1.5228-0.6669 0.15228-1.3339 0.38071-2.0749 0.68528-2.816 1.5228-5.7061 4.5685-8.5961 9.2132-0.7411-0.0762-1.2598-0.0762-1.7044-0.0762-1.9267 0-3.557 0.3807-4.8168 1.2183-1.2598 0.8375-1.9267 1.8274-1.9267 3.0456 0 0.6092 0.22231 1.066 0.59283 1.4467 0.37052 0.3046 0.88926 0.533 1.408 0.533s0.96335-0.1522 1.3339-0.3807c0.37052-0.2284 0.51873-0.533 0.51873-0.8375 0-0.3046-0.07411-0.6092-0.14821-0.8376-0.07411-0.2284-0.22232-0.3046-0.29642-0.3046 0.22231-0.6091 0.66694-0.9898 1.3339-1.2944 0.66694-0.2284 1.4821-0.4568 2.5196-0.4568-0.74105 1.2944-1.408 2.5888-2.0008 3.9594-1.5562 3.4263-2.5196 6.3197-2.816 8.4517-2.7419-2.7411-4.4463-6.5482-4.4463-10.812 0.14821-8.3756 6.6694-15.076 14.747-15.076zm9.4846 3.6564-4.8168 23.299h-4.7427l2.5196-12.335c-1.4821-0.6852-2.9642-1.0659-4.4463-1.2182-2.0008 4.4923-3.3347 8.6801-4.0016 12.411-0.22232 1.066-0.29642 1.9797-0.29642 2.7411 1.9267 0.9137 4.0016 1.4467 6.2988 1.4467 8.0774 0 14.599-6.7005 14.599-15-0.0741-4.5685-2.0008-8.6041-5.1132-11.345zm-10.818 8.2216c1.4821 0.3046 2.8159 0.6853 4.0016 1.1421l1.9267-9.2131c-1.8526 1.066-3.7793 3.7309-5.9283 8.071z" clip-rule="evenodd" fill="#2B8BCA" fill-rule="evenodd"/>
  <path d="m158.4 12.609v1.5228h3.335v7.6142h1.926v-7.6142h3.335v-1.5228h-8.596z" clip-rule="evenodd" fill="#2B8BCA" fill-rule="evenodd"/>
  <path d="m152.55 19.234c-0.222-0.3807-0.296-0.9898-0.296-1.9035 0-0.7615 0.074-1.3706 0.148-1.7513 0.296-0.9898 0.963-1.4467 2.149-1.4467h3.186v-1.5228h-3.779c-1.186 0-2.075 0.3045-2.742 0.9898s-1.037 1.9036-1.037 3.731c0 1.5228 0.296 2.6649 0.815 3.3502 0.593 0.7614 1.482 1.1421 2.668 1.1421h4.298v-1.5228h-3.187c-1.185-0.1523-1.927-0.4569-2.223-1.066z" clip-rule="evenodd" fill="#2B8BCA" fill-rule="evenodd"/>
  <path d="m148.92 17.48c0.297-0.3046 0.445-0.7615 0.445-1.3706 0-1.4467-0.445-2.4365-1.26-2.9695-0.593-0.3807-1.556-0.6092-2.964-0.6092-1.556 0-2.668 0.3046-3.335 0.8376-0.445 0.3807-0.741 0.9137-0.889 1.599-0.148 0.4568-0.148 1.2183-0.148 2.2081 0 1.599 0.222 2.665 0.667 3.3502 0.518 0.7615 1.408 1.1422 2.741 1.1422h4.891v-1.5229h-4.372c-1.037 0-1.63-0.3807-1.778-1.066-0.074-0.3045-0.149-0.7614-0.149-1.2182h5.188c0.37 0 0.741-0.1523 0.963-0.3807zm-2.072-1.2202h-4.076c0-0.7614 0.148-1.2944 0.37-1.599 0.371-0.3807 0.964-0.6091 1.853-0.6091 0.741 0 1.334 0.1522 1.704 0.4568 0.371 0.3046 0.519 0.6853 0.519 1.2183 0.074 0.3807-0.074 0.533-0.37 0.533z" clip-rule="evenodd" fill="#2B8BCA" fill-rule="evenodd"/>
  <path d="m139.43 16.493c0.296-0.3046 0.37-0.8376 0.37-1.5228 0-0.7614-0.148-1.2944-0.444-1.6751-0.371-0.4569-1.038-0.6853-2.001-0.6853h-4.002c-0.519 0-0.889 0.1523-1.186 0.3807-0.296 0.2284-0.37 0.6091-0.37 1.066v6.3197c0 0.4569 0.148 0.8376 0.37 0.9899 0.223 0.2284 0.593 0.3045 1.186 0.3045h4.224c0.815 0 1.408-0.2284 1.853-0.6091 0.37-0.3807 0.592-1.066 0.592-1.9797 0-0.6852-0.148-1.2182-0.37-1.5228-0.296-0.3046-0.593-0.533-1.112-0.6091 0.223 0 0.593-0.1523 0.89-0.4569zm-1.926 3.4269c-0.148 0.1523-0.445 0.3045-0.889 0.3045h-2.446c-0.222 0-0.37-0.0761-0.444-0.1522-0.074-0.0762-0.074-0.2285-0.074-0.3808v-1.9035h3.038c0.37 0 0.667 0.0761 0.815 0.3046 0.148 0.1523 0.222 0.4568 0.222 0.9137 0.074 0.3807 0 0.6852-0.222 0.9137zm0-3.9594c-0.148 0.1523-0.445 0.3046-0.815 0.3046h-3.038v-1.599c0-0.1523 0.074-0.3045 0.148-0.3807 0.074-0.0761 0.222-0.0761 0.37-0.0761h2.594c0.37 0 0.593 0.0761 0.815 0.2284 0.148 0.1523 0.296 0.4569 0.296 0.8376-0.074 0.3045-0.148 0.533-0.37 0.6852z" clip-rule="evenodd" fill="#2B8BCA" fill-rule="evenodd"/>
  <path d="m128.39 16.264h-4.298v-3.6548h-1.927v9.137h1.927v-3.9594h4.298v3.9594h1.926v-9.137h-1.926v3.6548z" clip-rule="evenodd" fill="#2B8BCA" fill-rule="evenodd"/>
  <path d="m118.91 9.5625c-0.444 0-0.741 0.07614-1.037 0.30457s-0.593 0.53303-0.889 1.066l-4.743 7.9187c-0.148 0.2284-0.222 0.3807-0.296 0.3807-0.149 0-0.223-0.1523-0.223-0.533l0.074-8.9847h-2.223v10.127c0 1.3706 0.593 2.0559 1.705 2.0559 0.518 0 0.963-0.1523 1.26-0.3807 0.148-0.1523 0.37-0.3807 0.592-0.7615l4.817-7.9948c0.222-0.3808 0.371-0.533 0.445-0.533 0.148 0 0.148 0.1522 0.148 0.3807l-0.074 9.137h2.223v-10.051c0-1.4467-0.593-2.132-1.779-2.132z" clip-rule="evenodd" fill="#2B8BCA" fill-rule="evenodd"/>
  <path d="m102.46 12.453h-5.1133v1.599h4.4463c0.445 0 0.741 0.1523 0.963 0.3807 0.149 0.2284 0.223 0.533 0.223 0.9137v0.6853h-3.9279c-0.741 0-1.2597 0.1523-1.6303 0.533-0.5187 0.4568-0.741 1.2183-0.741 2.2842 0 1.2183 0.2964 2.0559 0.8152 2.5127 0.3705 0.3046 0.8892 0.4569 1.6302 0.4569h4.2978c0.593 0 1.038-0.1523 1.26-0.3807 0.222-0.2285 0.371-0.6092 0.371-1.2183v-4.7969c0-1.9797-0.89-2.9696-2.594-2.9696zm0.593 7.2361c0 0.1523-0.074 0.3046-0.148 0.3807s-0.222 0.0761-0.445 0.0761h-2.7416c-0.2964 0-0.4446-0.0761-0.6669-0.3045-0.1483-0.2285-0.2965-0.533-0.2965-0.9899 0-0.4568 0.0741-0.8375 0.2223-0.9898 0.1483-0.2284 0.3706-0.3046 0.7411-0.3046h3.3346v2.132z" clip-rule="evenodd" fill="#2B8BCA" fill-rule="evenodd"/>
  <path d="m92.228 12.453h-3.1865c-0.5187 0-0.8892 0.0762-1.1115 0.3046-0.3706 0.3046-0.5188 0.6853-0.5188 1.1421v10.812h2.0009v-2.9696h2.5195c1.4821 0 2.5937-0.4568 3.1865-1.2944 0.4446-0.6853 0.741-1.9035 0.741-3.5025s-0.2964-2.7411-0.9633-3.4264c-0.667-0.7614-1.5562-1.066-2.6678-1.066zm1.1111 6.8509c-0.3705 0.6091-0.9634 0.8375-1.7044 0.8375h-2.2972v-5.7106c0-0.1523 0.0741-0.2284 0.1482-0.3046 0.0741-0.0761 0.1482-0.1523 0.2964-0.1523h1.9267c0.8893 0 1.408 0.3807 1.7044 1.066 0.1482 0.3807 0.2223 1.066 0.2223 1.9797 0.0741 1.1421 0 1.9035-0.2964 2.2843z" clip-rule="evenodd" fill="#2B8BCA" fill-rule="evenodd"/>
  <path d="m85.857 17.406c0.2965-0.3046 0.4447-0.7614 0.4447-1.3705 0-1.4467-0.4447-2.4366-1.2598-3.0457-0.5928-0.3807-1.6303-0.6091-2.9642-0.6091-1.5562 0-2.7419 0.3045-3.4088 0.8375-0.4446 0.3807-0.741 0.9137-0.8892 1.599-0.1483 0.4568-0.1483 1.2183-0.1483 2.2842 0 1.599 0.2224 2.7412 0.667 3.3503 0.5187 0.7614 1.4821 1.1421 2.7419 1.1421h5.0391v-1.599h-4.4463c-1.0375 0-1.6303-0.3807-1.8526-1.0659-0.0741-0.3046-0.1482-0.7615-0.1482-1.2945h5.2614c0.3705 0.1523 0.741 0 0.9633-0.2284zm-2.0754-1.218h-4.1498c0-0.7615 0.1482-1.2944 0.4446-1.599 0.3706-0.3807 0.9634-0.6091 1.9267-0.6091 0.7411 0 1.3339 0.1522 1.7044 0.4568 0.3706 0.3046 0.5929 0.6853 0.5929 1.2183-0.0741 0.3807-0.2223 0.533-0.5188 0.533z" clip-rule="evenodd" fill="#2B8BCA" fill-rule="evenodd"/>
  <path d="m68.367 14.052h3.4088v7.6903h2.0008v-7.6903h3.4088v-1.599h-8.8184v1.599z" clip-rule="evenodd" fill="#2B8BCA" fill-rule="evenodd"/>
  <path d="m67.33 15.956h-4.0758v-3.5025h-2.0008v7.8426c0 0.533 0.1482 0.8376 0.3705 1.066 0.2224 0.2284 0.5929 0.3046 1.0375 0.3046h4.5945c0.8151 0 1.408-0.1523 1.7044-0.4569 0.4446-0.4568 0.6669-1.2182 0.6669-2.2842s-0.2223-1.8274-0.5928-2.2843c-0.4446-0.4568-0.9634-0.6853-1.7044-0.6853zm-0.0751 3.8839c-0.1482 0.2284-0.4446 0.3046-0.8893 0.3046h-2.5936c-0.2223 0-0.3706-0.0762-0.4447-0.1523-0.0741-0.0762-0.1482-0.2284-0.1482-0.533v-1.9797h3.2606c0.3705 0 0.667 0.0761 0.8152 0.3046 0.1482 0.1522 0.2223 0.533 0.2223 0.9898 0.0741 0.533 0 0.9137-0.2223 1.066z" clip-rule="evenodd" fill="#2B8BCA" fill-rule="evenodd"/>
  <path d="m55.77 12.38c-0.6669 0-1.1115 0.2284-1.3338 0.7614l-3.5571 8.2994-4.3721-10.736c-0.2223-0.533-0.4446-0.83752-0.7411-1.066-0.2964-0.22842-0.6669-0.30457-1.1856-0.30457-0.5188 0-0.9634 0.07615-1.1857 0.30457-0.2964 0.22843-0.5187 0.53295-0.741 1.066l-4.5945 11.041h2.3713l1.1857-3.1218h5.7801l1.2598 3.1218h4.1499l2.7418-7.1573c0.0741-0.1523 0.1482-0.2285 0.1482-0.2285 0.0741 0 0.0741 0.0762 0.1482 0.2285l2.7419 7.1573h2.0749l-3.6311-8.604c-0.1482-0.533-0.5928-0.7614-1.2598-0.7614zm-13.563 4.6427 1.9267-5.0253c0.1482-0.3046 0.2223-0.533 0.3705-0.533 0.0741 0 0.2223 0.1523 0.3705 0.533l1.9267 5.0253h-4.5944z" clip-rule="evenodd" fill="#2B8BCA" fill-rule="evenodd"/>
</svg>
