<svg xmlns="http://www.w3.org/2000/svg" viewBox="0 0 29.34 30"><defs><style>.a{fill:#2b8bca;fill-rule:evenodd;}</style></defs><path class="a" d="M15.75,1.33a13.87,13.87,0,0,1,6.38,1.53,13.21,13.21,0,0,0-2.08.68c-2.81,1.52-5.71,4.57-8.6,9.22a14.34,14.34,0,0,0-1.7-.08A8.57,8.57,0,0,0,4.93,13.9a3.61,3.61,0,0,0-1.92,3,2,2,0,0,0,.59,1.45A2.33,2.33,0,0,0,5,18.92a2.48,2.48,0,0,0,1.33-.38,1,1,0,0,0,.52-.84,2.61,2.61,0,0,0-.15-.83c-.07-.23-.22-.31-.29-.31a2.23,2.23,0,0,1,1.33-1.29,7.46,7.46,0,0,1,2.52-.46,39.68,39.68,0,0,0-2,4,33.27,33.27,0,0,0-2.82,8.45A15.2,15.2,0,0,1,1,16.41C1.15,8,7.68,1.33,15.75,1.33ZM25.24,5l-4.82,23.3H15.68L18.2,16a14,14,0,0,0-4.45-1.21,54.84,54.84,0,0,0-4,12.41,13.54,13.54,0,0,0-.3,2.74,14.54,14.54,0,0,0,6.3,1.44,14.78,14.78,0,0,0,14.6-15A15.3,15.3,0,0,0,25.24,5ZM14.42,13.21a26.58,26.58,0,0,1,4,1.14l1.93-9.21C18.5,6.21,16.57,8.87,14.42,13.21Z" transform="translate(-1.01 -1.33)"/></svg>