<?xml version="1.0" encoding="UTF-8"?>
<svg fill="none" viewBox="0 0 911 225" xmlns="http://www.w3.org/2000/svg">
  <path d="m114.79 163.86-52.511-51.359m52.511 51.359 28.087-67.256m-28.087 67.256 67.165-6.114m-67.165 6.114-54.953 20.788m54.953-20.788 14.654 45.244m-67.165-96.603-31.751-45.244m31.751 45.244 80.598-15.897m-80.598 15.897 25.645-73.37m-25.645 73.37-2.4423 72.147m2.4423-72.147-56.174 15.897m24.424-61.142 57.395-28.125m-57.395 28.125-21.981 4.8913m21.981-4.8913 21.981-46.467m-21.981 46.467-24.424 61.142m81.819-89.266 54.953 57.473m-54.953-57.473 30.529-31.793m-30.529 31.793-35.414-18.342m35.414 18.342h68.386m-13.433 57.473 39.078 61.142m-39.078-61.142 13.433-57.473m-13.433 57.473 56.174-13.451m-17.096 74.593 17.096-74.593m-17.096 74.593 32.972-22.011m-32.972 22.011-52.511 51.358m52.511-51.358 2.442 34.239m14.654-108.83-42.741-44.022m42.741 44.022h15.876m-15.876 0-17.096-50.136m17.096 50.136 15.876 52.582m-58.617-96.604-37.857-31.793m37.857 31.793 25.645-6.1141m-63.502-25.679-30.529-2.4456-35.414 15.897m65.943-13.451 63.502 25.679m-63.502-25.679-65.943 13.451m131.89 171.2-51.289 28.125m51.289-28.125 30.53-56.25m-30.53 56.25-54.953 17.119m3.664 11.006-61.059-3.669m61.059 3.669-3.664-11.006m-57.395 7.337-46.405-34.239m46.405 34.239-12.212-31.793m12.212 31.793 57.395-7.337m-103.8-26.902-19.539-53.804m19.539 53.804 34.193 2.446m-53.732-56.25 2.4424-56.25m-2.4424 56.25 53.732 56.25m-51.29-112.5 43.962-51.359m162.42 114.95v-52.582l-32.972-50.136m-122.12 151.63 69.607 24.456" stroke="#e95e3f"/>
  <ellipse cx="180.74" cy="156.52" rx="7.3271" ry="7.337" fill="#e95e3f"/>
  <ellipse cx="114.79" cy="163.86" rx="7.3271" ry="7.337" fill="#e95e3f"/>
  <ellipse cx="142.88" cy="96.603" rx="8.5483" ry="8.5598" fill="#e95e3f"/>
  <ellipse cx="64.723" cy="113.72" rx="8.5483" ry="8.5598" fill="#e95e3f"/>
  <ellipse cx="6.1059" cy="128.4" rx="6.1059" ry="6.1141" fill="#e95e3f"/>
  <ellipse cx="87.925" cy="39.13" rx="7.3271" ry="7.337" fill="#e95e3f"/>
  <ellipse cx="30.53" cy="67.256" rx="6.1059" ry="6.1141" fill="#e95e3f"/>
  <ellipse cx="8.5483" cy="72.147" rx="6.1059" ry="6.1141" fill="#e95e3f"/>
  <ellipse cx="52.511" cy="20.788" rx="6.1059" ry="6.1141" fill="#e95e3f"/>
  <ellipse cx="87.925" cy="4.8913" rx="4.8847" ry="4.8913" fill="#e95e3f"/>
  <ellipse cx="118.46" cy="6.1141" rx="6.1059" ry="6.1141" fill="#e95e3f"/>
  <ellipse cx="153.87" cy="36.685" rx="7.3271" ry="7.337" fill="#e95e3f"/>
  <ellipse cx="199.05" cy="84.375" rx="6.1059" ry="6.1141" fill="#e95e3f"/>
  <ellipse cx="181.96" cy="33.016" rx="6.1059" ry="6.1141" fill="#e95e3f"/>
  <ellipse cx="184.4" cy="191.98" rx="6.1059" ry="6.1141" fill="#e95e3f"/>
  <ellipse cx="72.05" cy="216.44" rx="6.1059" ry="6.1141" fill="#e95e3f"/>
  <ellipse cx="131.89" cy="220.11" rx="4.8847" ry="4.8913" fill="#e95e3f"/>
  <ellipse cx="128.22" cy="206.66" rx="6.1059" ry="6.1141" fill="#e95e3f"/>
  <ellipse cx="25.645" cy="182.2" rx="6.1059" ry="6.1141" fill="#e95e3f"/>
  <ellipse cx="58.617" cy="183.42" rx="7.3271" ry="7.337" fill="#e95e3f"/>
  <ellipse cx="214.93" cy="136.96" rx="7.3271" ry="7.337" fill="#e95e3f"/>
  <ellipse cx="214.93" cy="83.152" rx="4.8847" ry="4.8913" fill="#e95e3f"/>
  <path d="m266.51 30.17v-2.63h29.426v2.63h-13.303v35.465h-2.847v-35.465h-13.276z" fill="#aaa"/>
  <path d="m305.1 65.634v-38.095h2.82v17.639h24.424v-17.639h2.821v38.095h-2.821v-17.852h-24.424v17.852h-2.82z" fill="#aaa"/>
  <path d="m347.04 65.634v-38.095h27.138v2.63h-24.318v14.956h21.87v2.6034h-21.87v15.302h24.584v2.6034h-27.404z" fill="#aaa"/>
  <path d="m400.97 65.634v-38.095h2.821v35.491h22.402v2.6034h-25.223z" fill="#aaa"/>
  <path d="m431.4 46.587c0-2.5857 0.461-5.0651 1.383-7.4383 0.94-2.3908 2.226-4.4895 3.858-6.2959 1.65-1.8065 3.689-3.2499 6.119-4.3302s5.047-1.6205 7.849-1.6205c2.82 0 5.437 0.5402 7.849 1.6205 2.412 1.0626 4.434 2.4971 6.066 4.3036 1.632 1.7887 2.909 3.8785 3.831 6.2694 0.922 2.3732 1.384 4.8703 1.384 7.4914 0 2.5857-0.47 5.074-1.41 7.4649-0.923 2.3731-2.209 4.4718-3.858 6.296-1.65 1.8064-3.69 3.2498-6.12 4.3301s-5.046 1.6205-7.848 1.6205c-2.821 0-5.437-0.5313-7.849-1.5939-2.412-1.0804-4.434-2.5237-6.066-4.3302-1.614-1.8064-2.882-3.8962-3.805-6.2694-0.922-2.3909-1.383-4.8969-1.383-7.518zm2.926 0c0 3.117 0.692 5.9861 2.076 8.6072 1.401 2.6034 3.352 4.6755 5.853 6.2163s5.286 2.3112 8.354 2.3112c3.069 0 5.844-0.7616 8.328-2.2847 2.501-1.5408 4.434-3.6128 5.8-6.2162 1.383-2.6034 2.075-5.4814 2.075-8.6338 0-2.32-0.417-4.5338-1.25-6.6413-0.816-2.1075-1.943-3.9228-3.379-5.4459-1.419-1.5408-3.149-2.7628-5.189-3.666-2.022-0.9209-4.186-1.3814-6.491-1.3814-3.069 0-5.845 0.7704-8.328 2.3112-2.483 1.5231-4.417 3.5863-5.8 6.1897-1.366 2.6034-2.049 5.4813-2.049 8.6337z" fill="#aaa"/>
  <path d="m479.91 65.634v-38.095h2.66l26.34 33.154v-33.154h2.714v38.095h-2.129l-26.871-33.844v33.844h-2.714z" fill="#aaa"/>
  <path d="m523.5 65.634v-38.095h12.691c2.944 0 5.685 0.487 8.221 1.4611 2.536 0.974 4.683 2.3112 6.439 4.0113 1.756 1.6825 3.13 3.7015 4.124 6.0569 0.993 2.3378 1.489 4.8438 1.489 7.518 0 2.6566-0.496 5.1537-1.489 7.4914-0.994 2.3378-2.368 4.3568-4.124 6.0569-1.756 1.7002-3.903 3.0462-6.439 4.038-2.536 0.974-5.277 1.4611-8.221 1.4611h-12.691zm2.82-2.6034h9.871c2.589 0 4.975-0.4251 7.157-1.2752 2.199-0.8501 4.035-2.0101 5.507-3.48 1.472-1.4877 2.616-3.2321 3.432-5.2334 0.816-2.019 1.224-4.1708 1.224-6.4554 0-2.2492-0.408-4.3744-1.224-6.3757-0.816-2.0012-1.96-3.7368-3.432-5.2068-1.472-1.4876-3.308-2.6653-5.507-3.5331-2.182-0.8678-4.568-1.3017-7.157-1.3017h-9.871v32.861z" fill="#aaa"/>
  <path d="m565 46.587c0-2.5857 0.461-5.0651 1.384-7.4383 0.94-2.3908 2.226-4.4895 3.857-6.2959 1.65-1.8065 3.69-3.2499 6.12-4.3302s5.046-1.6205 7.848-1.6205c2.821 0 5.437 0.5402 7.849 1.6205 2.412 1.0626 4.434 2.4971 6.066 4.3036 1.632 1.7887 2.909 3.8785 3.831 6.2694 0.923 2.3732 1.384 4.8703 1.384 7.4914 0 2.5857-0.47 5.074-1.41 7.4649-0.922 2.3731-2.208 4.4718-3.858 6.296-1.65 1.8064-3.689 3.2498-6.119 4.3301s-5.047 1.6205-7.849 1.6205c-2.82 0-5.436-0.5313-7.849-1.5939-2.412-1.0804-4.434-2.5237-6.066-4.3302-1.614-1.8064-2.882-3.8962-3.804-6.2694-0.923-2.3909-1.384-4.8969-1.384-7.518zm2.927 0c0 3.117 0.691 5.9861 2.075 8.6072 1.401 2.6034 3.352 4.6755 5.853 6.2163s5.286 2.3112 8.354 2.3112c3.069 0 5.845-0.7616 8.328-2.2847 2.501-1.5408 4.434-3.6128 5.8-6.2162 1.384-2.6034 2.075-5.4814 2.075-8.6338 0-2.32-0.416-4.5338-1.25-6.6413-0.816-2.1075-1.942-3.9228-3.379-5.4459-1.419-1.5408-3.148-2.7628-5.188-3.666-2.022-0.9209-4.186-1.3814-6.492-1.3814-3.069 0-5.844 0.7704-8.328 2.3112-2.483 1.5231-4.416 3.5863-5.8 6.1897-1.365 2.6034-2.048 5.4813-2.048 8.6337z" fill="#aaa"/>
  <path d="m613.51 65.634v-38.095h2.661l26.339 33.154v-33.154h2.714v38.095h-2.128l-26.872-33.844v33.844h-2.714z" fill="#aaa"/>
  <path d="m671.54 60.082 1.836-2.1252c2.164 1.9835 4.301 3.4269 6.412 4.3301 2.111 0.8855 4.541 1.3283 7.29 1.3283 2.838 0 5.153-0.7173 6.944-2.1518 1.792-1.4345 2.687-3.2764 2.687-5.5256 0-1.4168-0.292-2.5945-0.878-3.5332-0.567-0.9386-1.649-1.7887-3.245-2.5502-1.579-0.7616-3.796-1.4346-6.652-2.019-4.594-0.9386-7.893-2.2403-9.897-3.9051-1.987-1.6825-2.98-3.9848-2.98-6.907 0-2.8513 1.162-5.2334 3.485-7.1461 2.324-1.9127 5.25-2.869 8.78-2.869 2.696 0 5.046 0.3719 7.051 1.1157 2.004 0.7261 4.008 1.895 6.013 3.5066l-1.783 2.2315c-1.756-1.523-3.556-2.6211-5.401-3.2941-1.827-0.673-3.822-1.0094-5.986-1.0094-2.767 0-5.011 0.6995-6.732 2.0986-1.72 1.3814-2.58 3.117-2.58 5.2068 0 1.4345 0.283 2.63 0.851 3.5863 0.585 0.9387 1.694 1.8153 3.326 2.63 1.649 0.797 3.955 1.4965 6.917 2.0987 4.417 0.9032 7.61 2.1872 9.578 3.8519 1.987 1.6648 2.98 3.914 2.98 6.7476 0 3.0462-1.188 5.5433-3.565 7.4914-2.377 1.9305-5.41 2.8957-9.099 2.8957-2.998 0-5.729-0.4959-8.195-1.4877-2.447-0.9918-4.833-2.5237-7.157-4.5958z" fill="#aaa"/>
  <path d="m707.71 46.587c0-3.5597 0.807-6.8361 2.421-9.8291 1.632-3.0108 3.912-5.4017 6.838-7.1727 2.945-1.7887 6.208-2.6831 9.791-2.6831 1.65 0 3.175 0.1506 4.576 0.4516 1.402 0.3011 2.696 0.7527 3.885 1.3549 1.188 0.6021 2.244 1.2485 3.166 1.9392 0.94 0.673 1.951 1.5054 3.033 2.4972l-1.836 1.9127c-1.845-1.7888-3.787-3.1702-5.827-4.1442-2.039-0.9741-4.39-1.4611-7.05-1.4611-2.253 0-4.372 0.4427-6.359 1.3283-1.986 0.8855-3.689 2.0898-5.108 3.6128-1.419 1.5054-2.545 3.3207-3.379 5.4459-0.816 2.1075-1.224 4.3567-1.224 6.7476 0 2.3732 0.417 4.6224 1.25 6.7476 0.834 2.1075 1.96 3.9228 3.379 5.4459 1.437 1.5231 3.149 2.7274 5.135 3.6129 2.005 0.8855 4.124 1.3283 6.359 1.3283 2.643 0 4.984-0.4871 7.024-1.4611 2.04-0.9741 4.08-2.4618 6.119-4.463l1.916 1.8596c-2.217 2.1783-4.505 3.8342-6.864 4.9677-2.359 1.1157-5.126 1.6736-8.301 1.6736-3.565 0-6.803-0.8678-9.711-2.6034-2.909-1.7533-5.18-4.1265-6.812-7.1195-1.614-3.0108-2.421-6.3403-2.421-9.9886z" fill="#aaa"/>
  <path d="m750.16 65.634v-38.095h2.821v17.639h24.424v-17.639h2.82v38.095h-2.82v-17.852h-24.424v17.852h-2.821z" fill="#aaa"/>
  <path d="m790.42 46.587c0-2.5857 0.461-5.0651 1.383-7.4383 0.94-2.3908 2.226-4.4895 3.858-6.2959 1.65-1.8065 3.689-3.2499 6.119-4.3302s5.047-1.6205 7.849-1.6205c2.82 0 5.437 0.5402 7.849 1.6205 2.412 1.0626 4.434 2.4971 6.066 4.3036 1.632 1.7887 2.909 3.8785 3.831 6.2694 0.923 2.3732 1.384 4.8703 1.384 7.4914 0 2.5857-0.47 5.074-1.41 7.4649-0.923 2.3731-2.209 4.4718-3.858 6.296-1.65 1.8064-3.69 3.2498-6.12 4.3301s-5.046 1.6205-7.848 1.6205c-2.821 0-5.437-0.5313-7.849-1.5939-2.412-1.0804-4.434-2.5237-6.066-4.3302-1.614-1.8064-2.882-3.8962-3.805-6.2694-0.922-2.3909-1.383-4.8969-1.383-7.518zm2.926 0c0 3.117 0.692 5.9861 2.076 8.6072 1.401 2.6034 3.352 4.6755 5.853 6.2163s5.286 2.3112 8.354 2.3112c3.069 0 5.845-0.7616 8.328-2.2847 2.501-1.5408 4.434-3.6128 5.8-6.2162 1.383-2.6034 2.075-5.4814 2.075-8.6338 0-2.32-0.417-4.5338-1.25-6.6413-0.816-2.1075-1.943-3.9228-3.379-5.4459-1.419-1.5408-3.149-2.7628-5.188-3.666-2.023-0.9209-4.186-1.3814-6.492-1.3814-3.069 0-5.845 0.7704-8.328 2.3112-2.483 1.5231-4.416 3.5863-5.8 6.1897-1.366 2.6034-2.049 5.4813-2.049 8.6337z" fill="#aaa"/>
  <path d="m837.26 46.587c0-2.5857 0.461-5.0651 1.383-7.4383 0.94-2.3908 2.226-4.4895 3.858-6.2959 1.65-1.8065 3.689-3.2499 6.119-4.3302s5.047-1.6205 7.849-1.6205c2.82 0 5.437 0.5402 7.849 1.6205 2.412 1.0626 4.434 2.4971 6.066 4.3036 1.632 1.7887 2.909 3.8785 3.831 6.2694 0.922 2.3732 1.384 4.8703 1.384 7.4914 0 2.5857-0.47 5.074-1.41 7.4649-0.923 2.3731-2.209 4.4718-3.858 6.296-1.65 1.8064-3.69 3.2498-6.12 4.3301s-5.046 1.6205-7.848 1.6205c-2.821 0-5.437-0.5313-7.849-1.5939-2.412-1.0804-4.434-2.5237-6.066-4.3302-1.614-1.8064-2.882-3.8962-3.805-6.2694-0.922-2.3909-1.383-4.8969-1.383-7.518zm2.926 0c0 3.117 0.692 5.9861 2.076 8.6072 1.401 2.6034 3.352 4.6755 5.853 6.2163s5.286 2.3112 8.354 2.3112c3.069 0 5.844-0.7616 8.328-2.2847 2.501-1.5408 4.434-3.6128 5.8-6.2162 1.383-2.6034 2.075-5.4814 2.075-8.6338 0-2.32-0.417-4.5338-1.25-6.6413-0.816-2.1075-1.943-3.9228-3.379-5.4459-1.419-1.5408-3.149-2.7628-5.189-3.666-2.022-0.9209-4.186-1.3814-6.491-1.3814-3.069 0-5.845 0.7704-8.328 2.3112-2.483 1.5231-4.417 3.5863-5.8 6.1897-1.366 2.6034-2.049 5.4813-2.049 8.6337z" fill="#aaa"/>
  <path d="m885.78 65.634v-38.095h2.82v35.491h22.402v2.6034h-25.222z" fill="#aaa"/>
  <path d="m267.55 108.76c0-2.586 0.461-5.065 1.383-7.438 0.94-2.391 2.226-4.4897 3.858-6.2961 1.649-1.8065 3.689-3.2498 6.119-4.3302 2.43-1.0803 5.046-1.6205 7.849-1.6205 2.82 0 5.436 0.5402 7.849 1.6205 2.412 1.0626 4.434 2.4972 6.066 4.3036 1.632 1.7887 2.909 3.8786 3.831 6.2697 0.922 2.373 1.384 4.87 1.384 7.491 0 2.586-0.471 5.074-1.411 7.465-0.922 2.373-2.208 4.472-3.857 6.296-1.65 1.806-3.69 3.25-6.12 4.33s-5.046 1.621-7.848 1.621c-2.821 0-5.437-0.532-7.849-1.594-2.412-1.081-4.434-2.524-6.066-4.33-1.614-1.807-2.883-3.897-3.805-6.27-0.922-2.391-1.383-4.897-1.383-7.518zm2.926 0c0 3.117 0.692 5.986 2.075 8.607 1.402 2.604 3.353 4.676 5.854 6.217 2.501 1.54 5.285 2.311 8.354 2.311 3.068 0 5.844-0.762 8.328-2.285 2.501-1.541 4.434-3.613 5.8-6.216 1.383-2.604 2.075-5.481 2.075-8.634 0-2.32-0.417-4.534-1.251-6.641-0.816-2.108-1.942-3.923-3.379-5.4461-1.419-1.5408-3.148-2.7628-5.188-3.666-2.022-0.9209-4.186-1.3814-6.491-1.3814-3.069 0-5.845 0.7704-8.328 2.3112-2.483 1.5231-4.417 3.5863-5.8 6.1893-1.366 2.604-2.049 5.482-2.049 8.634z" fill="#aaa"/>
  <path d="m316.06 127.81v-38.094h26.872v2.63h-24.052v15.594h21.577v2.63h-21.577v17.24h-2.82z" fill="#aaa"/>
  <path d="m369.25 127.81v-38.094h2.66l15.325 22.527 15.298-22.527h2.688v38.094h-2.847v-33.073l-15.086 21.916h-0.213l-15.112-21.916v33.073h-2.713z" fill="#aaa"/>
  <path d="m413.82 127.81 17.773-38.36h2.714l17.772 38.36h-3.113l-4.842-10.652h-22.508l-4.843 10.652h-2.953zm8.993-13.229h20.114l-10.031-22.023-10.083 22.023z" fill="#aaa"/>
  <path d="m453.08 92.348v-2.63h29.426v2.63h-13.303v35.464h-2.846v-35.464h-13.277z" fill="#aaa"/>
  <path d="m491.67 127.81v-38.094h2.82v17.639h24.424v-17.639h2.82v38.094h-2.82v-17.851h-24.424v17.851h-2.82z" fill="#aaa"/>
  <path d="m533.62 127.81v-38.094h27.138v2.63h-24.318v14.956h21.87v2.603h-21.87v15.302h24.584v2.603h-27.404z" fill="#aaa"/>
  <path d="m570.66 127.81v-38.094h2.661l15.325 22.527 15.298-22.527h2.687v38.094h-2.847v-33.073l-15.085 21.916h-0.213l-15.112-21.916v33.073h-2.714z" fill="#aaa"/>
  <path d="m615.24 127.81 17.772-38.36h2.714l17.773 38.36h-3.113l-4.842-10.652h-22.509l-4.842 10.652h-2.953zm8.992-13.229h20.114l-10.03-22.023-10.084 22.023z" fill="#aaa"/>
  <path d="m654.5 92.348v-2.63h29.426v2.63h-13.303v35.464h-2.847v-35.464h-13.276z" fill="#aaa"/>
  <path d="m693.46 127.81v-38.094h2.846v38.094h-2.846z" fill="#aaa"/>
  <path d="m706.91 108.76c0-3.56 0.807-6.836 2.421-9.829 1.632-3.0108 3.911-5.4016 6.838-7.1727 2.944-1.7887 6.208-2.6831 9.791-2.6831 1.65 0 3.175 0.1506 4.576 0.4517 1.401 0.301 2.696 0.7526 3.885 1.3548 1.188 0.6021 2.243 1.2486 3.166 1.9393 0.94 0.6729 1.951 1.5053 3.033 2.4971l-1.836 1.9127c-1.845-1.7887-3.787-3.1701-5.827-4.1442-2.04-0.974-4.39-1.4611-7.05-1.4611-2.253 0-4.372 0.4428-6.359 1.3283s-3.689 2.0898-5.108 3.6129c-1.419 1.5053-2.546 3.3206-3.379 5.4463-0.816 2.107-1.224 4.356-1.224 6.747 0 2.373 0.417 4.623 1.25 6.748 0.834 2.107 1.96 3.923 3.379 5.446 1.437 1.523 3.149 2.727 5.135 3.613 2.004 0.885 4.124 1.328 6.359 1.328 2.643 0 4.984-0.487 7.024-1.461s4.079-2.462 6.119-4.463l1.916 1.859c-2.217 2.179-4.505 3.835-6.864 4.968-2.36 1.116-5.127 1.674-8.301 1.674-3.566 0-6.803-0.868-9.712-2.604-2.908-1.753-5.179-4.126-6.811-7.119-1.614-3.011-2.421-6.341-2.421-9.989z" fill="#aaa"/>
  <path d="m746.91 122.26 1.836-2.125c2.164 1.984 4.302 3.427 6.412 4.33 2.111 0.886 4.541 1.329 7.29 1.329 2.838 0 5.153-0.718 6.944-2.152 1.792-1.435 2.688-3.277 2.688-5.526 0-1.417-0.293-2.594-0.878-3.533-0.568-0.939-1.65-1.789-3.246-2.55-1.579-0.762-3.796-1.435-6.652-2.019-4.594-0.939-7.893-2.241-9.897-3.905-1.987-1.683-2.98-3.985-2.98-6.9074 0-2.8513 1.162-5.2333 3.485-7.146 2.324-1.9127 5.251-2.8691 8.78-2.8691 2.696 0 5.047 0.3719 7.051 1.1158 2.004 0.7261 4.008 1.8949 6.013 3.5066l-1.783 2.2315c-1.756-1.5231-3.556-2.6211-5.401-3.2941-1.827-0.673-3.822-1.0095-5.986-1.0095-2.767 0-5.011 0.6995-6.731 2.0986-1.721 1.3814-2.581 3.117-2.581 5.2068 0 1.4348 0.284 2.6298 0.851 3.5868 0.586 0.938 1.694 1.815 3.326 2.63 1.649 0.796 3.955 1.496 6.917 2.098 4.417 0.903 7.61 2.187 9.579 3.852 1.986 1.665 2.979 3.914 2.979 6.748 0 3.046-1.188 5.543-3.565 7.491-2.377 1.931-5.41 2.896-9.099 2.896-2.998 0-5.729-0.496-8.195-1.488-2.447-0.992-4.833-2.524-7.157-4.596z" fill="#aaa"/>
  <path d="m266.22 179.87c0-2.515 0.852-4.711 2.554-6.588 1.703-1.877 4.142-3.4 7.317-4.569-1.525-1.683-2.616-3.179-3.272-4.49-0.657-1.31-0.985-2.754-0.985-4.33 0-2.462 0.896-4.516 2.687-6.163 1.809-1.647 4.098-2.471 6.865-2.471 2.465 0 4.54 0.815 6.225 2.444 1.685 1.612 2.528 3.587 2.528 5.924 0 4.41-3.122 7.695-9.365 9.856l10.03 10.281c1.721-2.391 3.37-5.473 4.949-9.245l2.58 1.036c-1.933 4.286-3.822 7.66-5.667 10.122l7.024 7.225-2.235 1.86-6.598-6.801c-3.742 4.375-8.044 6.562-12.904 6.562-3.387 0-6.19-0.992-8.407-2.975-2.217-1.984-3.326-4.543-3.326-7.678zm2.847 0c0 2.338 0.843 4.295 2.528 5.871 1.685 1.559 3.822 2.338 6.412 2.338 3.937 0 7.618-1.993 11.041-5.977l-11.254-11.636c-2.909 1.009-5.091 2.338-6.545 3.985-1.455 1.629-2.182 3.436-2.182 5.419zm5.614-19.977c0 1.204 0.31 2.364 0.931 3.48 0.639 1.116 1.8 2.568 3.485 4.357 5.481-1.754 8.222-4.454 8.222-8.103 0-1.682-0.577-3.099-1.73-4.25s-2.589-1.727-4.31-1.727c-1.915 0-3.494 0.593-4.736 1.78-1.241 1.187-1.862 2.674-1.862 4.463z" fill="#aaa"/>
  <path d="m324.59 189.99v-38.095h13.835c4.257 0 7.681 1.045 10.27 3.135 2.608 2.089 3.911 4.967 3.911 8.633 0 1.948-0.399 3.702-1.197 5.26-0.798 1.559-1.889 2.834-3.273 3.826-1.365 0.974-2.935 1.726-4.709 2.258-1.774 0.513-3.671 0.77-5.693 0.77h-10.323v14.213h-2.821zm2.821-16.816h10.482c3.565 0 6.43-0.859 8.594-2.577 2.182-1.718 3.272-4.012 3.272-6.881 0-2.939-1.046-5.206-3.139-6.8s-4.896-2.391-8.408-2.391h-10.801v18.649z" fill="#aaa"/>
  <path d="m361.53 189.99v-38.095h16.017c2.288 0 4.354 0.336 6.199 1.009 1.862 0.673 3.379 1.594 4.549 2.763 1.916 1.913 2.874 4.304 2.874 7.173 0 3.081-1.02 5.552-3.06 7.411-2.04 1.86-4.745 3.02-8.115 3.481l12.585 16.258h-3.592l-12.159-15.78h-12.478v15.78h-2.82zm2.82-18.331h12.877c3.282 0 5.951-0.779 8.009-2.337 2.075-1.577 3.113-3.737 3.113-6.482 0-2.586-0.967-4.614-2.9-6.084-1.934-1.487-4.621-2.231-8.062-2.231h-13.037v17.134z" fill="#aaa"/>
  <path d="m399.78 170.94c0-2.586 0.461-5.065 1.384-7.438 0.94-2.391 2.226-4.49 3.858-6.296 1.649-1.807 3.689-3.25 6.119-4.33 2.43-1.081 5.046-1.621 7.849-1.621 2.82 0 5.436 0.54 7.848 1.621 2.413 1.062 4.435 2.497 6.066 4.303 1.632 1.789 2.909 3.879 3.832 6.27 0.922 2.373 1.383 4.87 1.383 7.491 0 2.586-0.47 5.074-1.41 7.465-0.922 2.373-2.208 4.472-3.858 6.296-1.649 1.806-3.689 3.25-6.119 4.33s-5.046 1.621-7.849 1.621c-2.82 0-5.436-0.532-7.849-1.594-2.412-1.081-4.434-2.524-6.066-4.33-1.614-1.807-2.882-3.897-3.804-6.27-0.923-2.391-1.384-4.897-1.384-7.518zm2.927 0c0 3.117 0.692 5.986 2.075 8.607 1.401 2.604 3.352 4.676 5.853 6.217 2.501 1.54 5.286 2.311 8.355 2.311 3.068 0 5.844-0.762 8.327-2.285 2.501-1.541 4.435-3.613 5.8-6.216 1.384-2.603 2.076-5.481 2.076-8.634 0-2.32-0.417-4.534-1.251-6.641-0.816-2.108-1.942-3.923-3.379-5.446-1.419-1.541-3.148-2.763-5.188-3.666-2.022-0.921-4.186-1.381-6.492-1.381-3.068 0-5.844 0.77-8.327 2.311-2.484 1.523-4.417 3.586-5.8 6.189-1.366 2.604-2.049 5.482-2.049 8.634z" fill="#aaa"/>
  <path d="m446.62 170.94c0-2.568 0.452-5.038 1.357-7.412 0.905-2.373 2.155-4.463 3.751-6.269 1.615-1.824 3.61-3.276 5.987-4.357 2.394-1.098 4.975-1.647 7.742-1.647 2.962 0 5.516 0.416 7.663 1.249 2.163 0.815 4.256 2.063 6.279 3.746l-1.836 2.125c-1.703-1.47-3.503-2.595-5.401-3.374-1.898-0.797-4.186-1.195-6.865-1.195-3.015 0-5.738 0.779-8.168 2.337-2.412 1.559-4.283 3.649-5.613 6.27-1.313 2.603-1.969 5.446-1.969 8.527 0 2.462 0.372 4.747 1.117 6.854 0.763 2.09 1.836 3.905 3.22 5.446 1.383 1.523 3.104 2.718 5.161 3.586 2.058 0.868 4.337 1.302 6.838 1.302 2.306 0 4.54-0.407 6.704-1.222s3.982-1.851 5.455-3.108v-10.945h-12.745v-2.604h15.485v14.691c-1.88 1.665-4.124 3.037-6.731 4.118-2.608 1.062-5.366 1.594-8.275 1.594-2.944 0-5.631-0.514-8.061-1.541-2.43-1.045-4.452-2.462-6.066-4.251-1.597-1.788-2.838-3.878-3.725-6.269-0.869-2.391-1.304-4.941-1.304-7.651z" fill="#aaa"/>
  <path d="m491.56 189.99v-38.095h16.017c2.288 0 4.354 0.336 6.199 1.009 1.862 0.673 3.379 1.594 4.55 2.763 1.915 1.913 2.873 4.304 2.873 7.173 0 3.081-1.02 5.552-3.06 7.411-2.039 1.86-4.744 3.02-8.114 3.481l12.584 16.258h-3.592l-12.159-15.78h-12.478v15.78h-2.82zm2.82-18.331h12.878c3.281 0 5.95-0.779 8.008-2.337 2.075-1.577 3.113-3.737 3.113-6.482 0-2.586-0.967-4.614-2.9-6.084-1.934-1.487-4.621-2.231-8.062-2.231h-13.037v17.134z" fill="#aaa"/>
  <path d="m528.21 189.99 17.773-38.361h2.714l17.772 38.361h-3.113l-4.842-10.653h-22.508l-4.843 10.653h-2.953zm8.993-13.23h20.114l-10.031-22.023-10.083 22.023z" fill="#aaa"/>
  <path d="m575.08 189.99v-38.095h2.66l15.325 22.527 15.298-22.527h2.688v38.095h-2.847v-33.074l-15.086 21.916h-0.212l-15.113-21.916v33.074h-2.713z" fill="#aaa"/>
  <path d="m622.93 189.99v-38.095h2.66l15.325 22.527 15.298-22.527h2.688v38.095h-2.847v-33.074l-15.086 21.916h-0.212l-15.113-21.916v33.074h-2.713z" fill="#aaa"/>
  <path d="m671.15 189.99v-38.095h2.847v38.095h-2.847z" fill="#aaa"/>
  <path d="m686.28 189.99v-38.095h2.661l26.339 33.153v-33.153h2.714v38.095h-2.128l-26.872-33.845v33.845h-2.714z" fill="#aaa"/>
  <path d="m728.19 170.94c0-2.568 0.452-5.038 1.357-7.412 0.904-2.373 2.155-4.463 3.751-6.269 1.614-1.824 3.61-3.276 5.986-4.357 2.395-1.098 4.976-1.647 7.743-1.647 2.962 0 5.516 0.416 7.662 1.249 2.164 0.815 4.257 2.063 6.279 3.746l-1.836 2.125c-1.702-1.47-3.503-2.595-5.401-3.374-1.897-0.797-4.186-1.195-6.864-1.195-3.015 0-5.738 0.779-8.168 2.337-2.412 1.559-4.283 3.649-5.614 6.27-1.312 2.603-1.969 5.446-1.969 8.527 0 2.462 0.373 4.747 1.118 6.854 0.763 2.09 1.836 3.905 3.219 5.446 1.384 1.523 3.104 2.718 5.162 3.586 2.057 0.868 4.336 1.302 6.837 1.302 2.306 0 4.541-0.407 6.705-1.222s3.982-1.851 5.454-3.108v-10.945h-12.744v-2.604h15.485v14.691c-1.881 1.665-4.124 3.037-6.732 4.118-2.607 1.062-5.365 1.594-8.274 1.594-2.944 0-5.632-0.514-8.062-1.541-2.43-1.045-4.452-2.462-6.066-4.251-1.596-1.788-2.838-3.878-3.724-6.269-0.87-2.391-1.304-4.941-1.304-7.651z" fill="#aaa"/>
</svg>
