<svg xmlns="http://www.w3.org/2000/svg" viewBox="0 0 222.26 225"><defs><style>.a{fill:none;stroke:#e95e3f;}.b{fill:#e95e3f;}</style></defs><path class="a" d="M117.16,163.86,64.65,112.5m52.51,51.36L145.25,96.6m-28.09,67.26,67.17-6.11m-67.17,6.11L62.21,184.65m55-20.79,14.66,45.24M64.65,112.5,32.9,67.26M64.65,112.5l80.6-15.9m-80.6,15.9L90.3,39.13M64.65,112.5l-2.44,72.15m2.44-72.15L8.48,128.4M32.9,67.26,90.3,39.13M32.9,67.26l-22,4.89m22-4.89,22-46.47m-22,46.47L8.48,128.4M90.3,39.13l55,57.47M90.3,39.13,120.82,7.34M90.3,39.13,54.88,20.79M90.3,39.13h68.38M145.25,96.6l39.08,61.15M145.25,96.6l13.43-57.47M145.25,96.6l56.17-13.45m-17.09,74.6,17.09-74.6m-17.09,74.6,33-22m-33,22L131.82,209.1m52.51-51.35L186.77,192M201.42,83.16l-42.74-44m42.74,44H217.3m-15.88,0L184.33,33m17.09,50.14,15.88,52.58M158.68,39.13,120.82,7.34m37.86,31.79L184.33,33M120.82,7.34,90.3,4.89,54.88,20.79M120.82,7.34,184.33,33M120.82,7.34,54.88,20.79M186.77,192l-51.29,28.13M186.77,192l30.53-56.25M186.77,192l-55,17.12m3.66,11-61.06-3.67m61.06,3.67-3.66-11m-57.4,7.34L28,182.21m46.4,34.24-12.21-31.8m12.21,31.8,57.4-7.34M28,182.21,8.48,128.4M28,182.21l34.19,2.44M8.48,128.4l2.44-56.25M8.48,128.4l53.73,56.25M10.92,72.15l44-51.35m162.42,115V83.16L184.33,33M62.21,184.66l69.61,24.45" transform="translate(-2.37 0)"/><ellipse class="b" cx="180.74" cy="156.52" rx="7.33" ry="7.34"/><ellipse class="b" cx="114.79" cy="163.86" rx="7.33" ry="7.34"/><ellipse class="b" cx="142.88" cy="96.6" rx="8.55" ry="8.56"/><ellipse class="b" cx="64.72" cy="113.72" rx="8.55" ry="8.56"/><ellipse class="b" cx="6.11" cy="128.4" rx="6.11" ry="6.11"/><ellipse class="b" cx="87.93" cy="39.13" rx="7.33" ry="7.34"/><ellipse class="b" cx="30.53" cy="67.26" rx="6.11" ry="6.11"/><ellipse class="b" cx="8.55" cy="72.15" rx="6.11" ry="6.11"/><ellipse class="b" cx="52.51" cy="20.79" rx="6.11" ry="6.11"/><ellipse class="b" cx="87.93" cy="4.89" rx="4.88" ry="4.89"/><ellipse class="b" cx="118.46" cy="6.11" rx="6.11" ry="6.11"/><ellipse class="b" cx="153.87" cy="36.69" rx="7.33" ry="7.34"/><ellipse class="b" cx="199.05" cy="84.38" rx="6.11" ry="6.11"/><ellipse class="b" cx="181.96" cy="33.02" rx="6.11" ry="6.11"/><ellipse class="b" cx="184.4" cy="191.98" rx="6.11" ry="6.11"/><ellipse class="b" cx="72.05" cy="216.44" rx="6.11" ry="6.11"/><ellipse class="b" cx="131.89" cy="220.11" rx="4.88" ry="4.89"/><ellipse class="b" cx="128.22" cy="206.66" rx="6.11" ry="6.11"/><ellipse class="b" cx="25.65" cy="182.2" rx="6.11" ry="6.11"/><ellipse class="b" cx="58.62" cy="183.42" rx="7.33" ry="7.34"/><ellipse class="b" cx="214.93" cy="136.96" rx="7.33" ry="7.34"/><ellipse class="b" cx="214.93" cy="83.15" rx="4.88" ry="4.89"/></svg>