<svg xmlns="http://www.w3.org/2000/svg" viewBox="0 0 1492.02 1492.02"><defs><style>.a{fill:#e95e3f;}.b{fill:#2d2d2d;}</style></defs><circle class="a" cx="746.01" cy="746.01" r="746.01"/><path class="b" d="M543.16,422.32c-7.81-7.81-39.75-9.55-44.11,1.69s-23.32,2.62-23.32,2.62c-91.55-82.11-194.41,7.76-194.41,7.76,41.49,16.43,43.24,50.11,43.24,50.11,112.3-30.24,103.68,38.88,103.68,38.88l87.67,4.2s1.32-23.2,16-35.32,39.75,14.68,57-23.32,49.24-38.87,49.24-38.87C582.9,380.83,550.91,430.07,543.16,422.32ZM426.54,439.14c-9.39,1.47-17.36,0-17.9-3.39s6.6-7.26,15.94-8.73,17.36,0,17.9,3.33S435.88,437.61,426.54,439.14Z"/><path class="b" d="M423.43,537.39s-38.32,57.8-55.39,131.8c-12.75,55.25-4.09,113.25,22.36,163.4,22.55,42.75,53.69,99,65.84,107.64,20,14.28,75.73,47,75.73,47s1.43-58.55,8.57-51.41-12.86,55.7,30,107.11-34.28,10-72.84,41.42l-8.56,24.27s45.7,2.86,74.26-8.56,51.41-7.15,52.84-48.56,0-82.83,0-82.83,64.27-55.7,74.26-74.27c0,0,235.65,57.13,254.21,52.84,0,0-51.41,77.12,0,97.12,0,0-14.28,27.13-30,11.42,0,0-40,4.29-41.42,32.85l54.27-1.43s75.7-24.28,52.84-37.13-20-90-2.85-97.11,7.15,12.85,7.15,12.85-24.19,45.7,2.89,72.84-11.47,38.56-11.47,38.56-44.27-.8-44.27,31.73l108.54-8.88s8.57-31.42-7.14-41.42,0-50,0-50,34.65-62.83,9.47-100c0,0,22-4.28,53.36-47.12s44.28-134.25,68.55-151.39,47.13-48.55,47.13-48.55,10-31.42,71.41,7.14c0,0,4.28-28.57,52.84-77.12,0,0-14.28,1.43-35.7,15.71s-110-32.85-110-32.85-48.56,112.82-149.95,67.12S819,688.77,819,688.77s-24.28,37.13-77.12-22.85c0,0-41.63-35.56-29.64-87L690,564.15s-33.79,47.5-76.64-5.34c0,0-18.56,54.27,34.28,67.12,0,0,131.39,90,94.26,100s-128.54,65.7-207.08-87.11c0,0-19.41-24-21.3-96.52Z"/><path class="b" d="M232.91,784.47c-17-4.34-34.72-5.37-50.72.76,0,0-40.9,25-20.45,51.13,0,0,25.17-24.39,62.89-9.84Z"/><path class="b" d="M360,800l-46.23,23.18S284.22,799.52,249,787.61l-9.42,43.33c27.13,14.58,59.63,49.71,93.52,125.85l106.46-9.48S371.22,843.57,360,800Z"/><path class="b" d="M717,421.05s153.8-54.06,147.63-33.2l70.9,113.35s-163,6-215.46,67l-22.45-14.87,56-67.59S718.88,431.84,717,421.05Z"/><path class="b" d="M363.88,501.55s13.44,44-41.83,35.84l-14.66,26s30.34,35.28,61-17S363.88,501.55,363.88,501.55Z"/><path class="b" d="M307.11,469.43s.74,17.93-9.72,26.15,12.94,36,12.94,36l-14.51,26s-15.22,0-20.49-20.13-18.46-24.89-18.46-24.89-20.1-3.13-17.31-24.23C239.56,488.27,276.9,496.76,307.11,469.43Z"/></svg>