<?xml version="1.0" encoding="UTF-8"?>
<svg viewBox="0 0 268 145" xmlns="http://www.w3.org/2000/svg">
  <path transform="translate(2.6844 18.998)" d="m81.666 0-81.666 111.66 103.85-53.695 94.889 47.711 64.466-95.552-81.308 42.322-100.23-52.442z" fill="#84307B"/>
  <path transform="translate(.99728 32.624)" d="m42.124 19.646h-32.24l-0.992 8.06h16.368l-23.684 33.294h33.418l0.992-8.06h-17.484l23.622-33.294z" fill="#fff"/>
  <path transform="translate(41.997 19.624)" d="m55.421 26.306h-42.64l-1.312 10.66h21.648l-31.324 44.034h44.198l1.312-10.66h-23.124l31.242-44.034z" fill="#fff"/>
  <path transform="translate(93.997 .62347)" d="m58.006 110h17.696l-20.048-74.704h-15.904l-39.424 74.704h18.592l7.056-14.112h28.224l3.808 14.112zm-25.536-27.328 12.544-26.32 6.048 26.32h-18.592z" fill="#fff"/>
  <path transform="translate(175 19.624)" d="m12.501 26.306-6.724 54.694h12.628l2.378-19.188h7.216c9.102 0 13.776-2.542 16.236-4.838 3.28-3.034 5.33-8.282 5.33-14.35 0-5.576-1.968-9.266-4.428-11.726-4.428-4.428-10.332-4.592-14.186-4.592h-18.45zm11.398 10.332h3.772c1.886 0 5.166 0.164 7.134 2.05 1.476 1.394 1.804 3.198 1.804 4.756 0 1.394-0.246 3.854-2.132 5.658-2.132 2.132-5.248 2.378-7.954 2.378h-4.51l1.886-14.842z" fill="#fff"/>
  <path transform="translate(230 32.624)" d="m9.6838 19.646-5.084 41.354h9.548l1.798-14.508h5.456c6.882 0 10.416-1.922 12.276-3.658 2.48-2.294 4.03-6.262 4.03-10.85 0-4.216-1.488-7.006-3.348-8.866-3.348-3.348-7.812-3.472-10.726-3.472h-13.95zm8.618 7.812h2.852c1.426 0 3.906 0.124 5.394 1.55 1.116 1.054 1.364 2.418 1.364 3.596 0 1.054-0.186 2.914-1.612 4.278-1.612 1.612-3.968 1.798-6.014 1.798h-3.41l1.426-11.222z" fill="#fff"/>
</svg>
