<svg xmlns="http://www.w3.org/2000/svg" viewBox="0 0 102.57 61.88"><defs><style>.a,.b{fill:#ffe071;}.a{fill-rule:evenodd;}</style></defs><path class="a" d="M78.57.24V62.12H58.06V49.74h8.2V41.32h4.11V53.87H62.16V58H74.47V4.37H62.16V33.24h4.1V8.49h4.11V37.37H58.06V.24Z" transform="translate(-0.44 -0.24)"/><path class="a" d="M25.23.24V62.12H45.75V49.74H37.54V41.32h-4.1V53.87h8.2V58H29.33V4.37H41.64V33.24h-4.1V8.49h-4.1V37.37H45.75V.24Z" transform="translate(-0.44 -0.24)"/><path class="a" d="M62.13,45.6H41.66V41.49l20.47,0V45.6Z" transform="translate(-0.44 -0.24)"/><path class="a" d="M49.85,62.12V.24H54V62.12Z" transform="translate(-0.44 -0.24)"/><rect class="b" x="32.99" y="41.25" width="4.1" height="4.13"/><rect class="b" x="16.41" y="20.63" width="4.1" height="41.25"/><rect class="b" x="82.06" y="20.63" width="4.1" height="41.25"/><rect class="b" x="8.21" y="33" width="4.1" height="28.88"/><rect class="b" x="90.27" y="33" width="4.1" height="28.88"/><rect class="b" y="41.25" width="4.1" height="20.63"/><rect class="b" x="98.47" y="41.25" width="4.1" height="20.63"/></svg>