<?xml version="1.0" encoding="UTF-8"?>
<svg fill="none" viewBox="0 0 170 130" xmlns="http://www.w3.org/2000/svg">
  <g clip-path="url(#a)" fill="#FFE071">
    <rect transform="matrix(1 4.4888e-8 1.7025e-7 -1 91.335 125.35)" width="4.1101" height="20.66"/>
    <rect transform="matrix(1 5.2369e-8 1.5544e-7 -1 83.114 129.48)" width="4.11" height="24.792"/>
    <rect transform="rotate(180 78.832 125.35)" x="78.832" y="125.35" width="4.11" height="20.66"/>
    <path d="m50.062 112.96h-4.11v-4.218h-12.244v-4.046h16.354v8.264z"/>
    <path d="m119.93 112.96h4.11v-4.218h12.245v-4.046h-16.355v8.264z"/>
    <path d="m70.7 104.69v16.614h-4.1956v-12.31h-8.3057l0.0428 4.132h4.1528v4.132h-8.22v-12.568h16.526z"/>
    <path d="m99.214 104.69v16.614h4.1952v-12.31h8.306l-0.043 4.132h-4.153v4.132h8.22v-12.568h-16.525z"/>
    <path d="m111.84 0.48388v61.876h-20.516v-12.375h8.2063v-8.4219h4.1027v12.547h-8.2059v4.1251h12.31v-53.626l-12.31 2e-5v28.876h4.1031v-24.75h4.1027v28.875h-12.309v-37.126l20.516-2.1e-5z" clip-rule="evenodd" fill-rule="evenodd"/>
    <path d="m58.498 0.4858v61.876h20.516v-12.375h-8.2063v-8.4219h-4.1032v12.547h8.2064v4.1251h-12.31v-53.626l12.31 3e-5v28.875h-4.1032v-24.75h-4.1032v28.876h12.31v-37.126l-20.516-2.5e-5z" clip-rule="evenodd" fill-rule="evenodd"/>
    <path d="m95.396 45.841-20.468 0.0165-0.0033-4.1251 20.468-0.0165 0.0032 4.1251z" clip-rule="evenodd" fill-rule="evenodd"/>
    <path d="m83.117 62.362 1e-4 -61.876h4.1031v61.876h-4.1032z" clip-rule="evenodd" fill-rule="evenodd"/>
    <rect transform="matrix(1 8.9776e-8 8.8825e-8 -1 66.705 45.86)" width="4.1032" height="4.1251"/>
    <rect transform="matrix(-1 0 0 1 54.224 21.112)" width="4.1032" height="41.251"/>
    <rect x="115.77" y="21.112" width="4.1032" height="41.251"/>
    <rect transform="matrix(-1 0 0 1 46.02 33.486)" width="4.1032" height="28.876"/>
    <rect x="123.98" y="33.487" width="4.1032" height="28.876"/>
    <rect transform="matrix(-1 0 0 1 37.814 41.736)" width="4.1032" height="20.625"/>
    <rect x="132.18" y="41.735" width="4.1032" height="20.625"/>
    <path d="m16.42 74.623v17.891h-4.1434v-7.3354h-8.1334v7.3354h-4.1434v-17.891h4.1434v7.0542h8.1334v-7.0542h4.1434z"/>
    <path d="m39.634 89.191v3.3227h-13.862v-17.891h13.53v3.3226h-9.4122v3.885h8.3124v3.2204h-8.3124v4.1405h9.7447z"/>
    <path d="m64.338 92.514-0.0256-10.735-5.2688 8.8434h-1.8671l-5.2432-8.6133v10.505h-3.8877v-17.891h3.4273l6.7011 11.118 6.5988-11.118h3.4017l0.0511 17.891h-3.8876z"/>
    <path d="m89.38 88.68h-8.3124l-1.5858 3.8339h-4.2457l7.9799-17.891h4.0923l8.0055 17.891h-4.348l-1.5858-3.8339zm-1.3044-3.1437-2.839-6.8498-2.839 6.8498h5.678z"/>
    <path d="m114.14 83.287h3.785v7.2587c-0.972 0.7327-2.097 1.295-3.376 1.6869s-2.566 0.5879-3.862 0.5879c-1.859 0-3.53-0.3919-5.013-1.1757-1.484-0.8009-2.652-1.8999-3.504-3.2971-0.836-1.4143-1.254-3.0075-1.254-4.7795 0-1.7721 0.418-3.3568 1.254-4.754 0.852-1.4142 2.029-2.5133 3.529-3.2971 1.501-0.8008 3.189-1.2012 5.064-1.2012 1.569 0 2.993 0.2641 4.272 0.7923s2.353 1.295 3.222 2.3003l-2.66 2.4536c-1.278-1.3461-2.821-2.0191-4.629-2.0191-1.142 0-2.157 0.2385-3.044 0.7156-0.886 0.4771-1.577 1.1502-2.071 2.0192-0.495 0.869-0.742 1.8658-0.742 2.9904 0 1.1075 0.247 2.0958 0.742 2.9648 0.494 0.869 1.176 1.5506 2.046 2.0447 0.887 0.4771 1.893 0.7156 3.018 0.7156 1.194 0 2.268-0.2555 3.223-0.7667v-5.2396z"/>
    <path d="m135.56 92.821c-1.859 0-3.538-0.4005-5.039-1.2013-1.483-0.8008-2.651-1.8999-3.504-3.2971-0.835-1.4142-1.253-2.9989-1.253-4.7539 0-1.7551 0.418-3.3312 1.253-4.7284 0.853-1.4143 2.021-2.5218 3.504-3.3227 1.501-0.8008 3.18-1.2012 5.039-1.2012 1.858 0 3.529 0.4004 5.013 1.2012 1.483 0.8009 2.651 1.9084 3.504 3.3227 0.852 1.3972 1.279 2.9733 1.279 4.7284 0 1.755-0.427 3.3397-1.279 4.7539-0.853 1.3972-2.021 2.4963-3.504 3.2971-1.484 0.8008-3.155 1.2013-5.013 1.2013zm0-3.5272c1.057 0 2.012-0.2385 2.864-0.7156 0.853-0.4941 1.518-1.1757 1.995-2.0447 0.495-0.869 0.742-1.8573 0.742-2.9648 0-1.1076-0.247-2.0959-0.742-2.9649-0.477-0.869-1.142-1.542-1.995-2.0191-0.852-0.4941-1.807-0.7412-2.864-0.7412-1.058 0-2.012 0.2471-2.865 0.7412-0.853 0.4771-1.526 1.1501-2.02 2.0191-0.478 0.869-0.717 1.8573-0.717 2.9649 0 1.1075 0.239 2.0958 0.717 2.9648 0.494 0.869 1.167 1.5506 2.02 2.0447 0.853 0.4771 1.807 0.7156 2.865 0.7156z"/>
    <path d="m170 74.623v17.891h-3.402l-8.926-10.862v10.862h-4.092v-17.891h3.427l8.901 10.862v-10.862h4.092z"/>
  </g>
  <defs>
    <clipPath id="a">
      <rect transform="translate(0 .48403)" width="170" height="129" fill="#fff"/>
    </clipPath>
  </defs>
</svg>
