<svg width="4897" height="1915" viewBox="0 0 4897 1915" fill="none" xmlns="http://www.w3.org/2000/svg">
<path d="M2158 1571H2879C2905.51 1571 2927 1549.51 2927 1523V1278" stroke="#75ACFF" stroke-width="13"/>
<path d="M2158.5 1704H3777C3803.51 1704 3825 1682.51 3825 1656V821" stroke="#75ACFF" stroke-width="13"/>
<path d="M1503 724H1753" stroke="#75ACFF" stroke-width="13"/>
<path d="M1558.89 623.158V683H1547.08V636.775L1532.89 641.287V631.977L1557.62 623.158H1558.89Z" fill="#8F8F8F"/>
<path d="M1687.17 654.617L1696.15 643.42L1683.11 639.729L1685.57 632.51L1698.37 637.596L1697.59 623.281H1705.54L1704.68 637.883L1717.23 632.838L1719.65 640.18L1706.4 643.871L1715.1 654.822L1708.66 659.334L1701.11 647.357L1693.61 658.965L1687.17 654.617Z" fill="#8F8F8F"/>
<path d="M2027 633L2027 383" stroke="#75ACFF" stroke-width="13"/>
<path d="M2027 1076L2027 826" stroke="#75ACFF" stroke-width="13"/>
<path d="M2027 1532L2027 1282" stroke="#75ACFF" stroke-width="13"/>
<path d="M2066.17 442.617L2075.15 431.42L2062.11 427.729L2064.57 420.51L2077.37 425.596L2076.59 411.281H2084.54L2083.68 425.883L2096.23 420.838L2098.65 428.18L2085.4 431.871L2094.1 442.822L2087.66 447.334L2080.11 435.357L2072.61 446.965L2066.17 442.617Z" fill="#8F8F8F"/>
<path d="M2093.89 856.158V916H2082.08V869.775L2067.89 874.287V864.977L2092.62 856.158H2093.89Z" fill="#8F8F8F"/>
<path d="M2093.89 1439.16V1499H2082.08V1452.78L2067.89 1457.29V1447.98L2092.62 1439.16H2093.89Z" fill="#8F8F8F"/>
<path d="M2221.89 1488.16V1548H2210.08V1501.78L2195.89 1506.29V1496.98L2220.62 1488.16H2221.89Z" fill="#8F8F8F"/>
<path d="M2194.17 1644.62L2203.15 1633.42L2190.11 1629.73L2192.57 1622.51L2205.37 1627.6L2204.59 1613.28H2212.54L2211.68 1627.88L2224.23 1622.84L2226.65 1630.18L2213.4 1633.87L2222.1 1644.82L2215.66 1649.33L2208.11 1637.36L2200.61 1648.96L2194.17 1644.62Z" fill="#8F8F8F"/>
<path d="M3754.17 895.617L3763.15 884.42L3750.11 880.729L3752.57 873.51L3765.37 878.596L3764.59 864.281H3772.54L3771.68 878.883L3784.23 873.838L3786.65 881.18L3773.4 884.871L3782.1 895.822L3775.66 900.334L3768.11 888.357L3760.61 899.965L3754.17 895.617Z" fill="#8F8F8F"/>
<path d="M2354.89 766.158V826H2343.08V779.775L2328.89 784.287V774.977L2353.62 766.158H2354.89Z" fill="#8F8F8F"/>
<path d="M2863.17 1358.62L2872.15 1347.42L2859.11 1343.73L2861.57 1336.51L2874.37 1341.6L2873.59 1327.28H2881.54L2880.68 1341.88L2893.23 1336.84L2895.65 1344.18L2882.4 1347.87L2891.1 1358.82L2884.66 1363.33L2877.11 1351.36L2869.61 1362.96L2863.17 1358.62Z" fill="#8F8F8F"/>
<path d="M2572.17 1029.62L2581.15 1018.42L2568.11 1014.73L2570.57 1007.51L2583.37 1012.6L2582.59 998.281H2590.54L2589.68 1012.88L2602.23 1007.84L2604.65 1015.18L2591.4 1018.87L2600.1 1029.82L2593.66 1034.33L2586.11 1022.36L2578.61 1033.96L2572.17 1029.62Z" fill="#8F8F8F"/>
<path d="M2066.17 584.617L2075.15 573.42L2062.11 569.729L2064.57 562.51L2077.37 567.596L2076.59 553.281H2084.54L2083.68 567.883L2096.23 562.838L2098.65 570.18L2085.4 573.871L2094.1 584.822L2087.66 589.334L2080.11 577.357L2072.61 588.965L2066.17 584.617Z" fill="#8F8F8F"/>
<path d="M2066.17 1029.62L2075.15 1018.42L2062.11 1014.73L2064.57 1007.51L2077.37 1012.6L2076.59 998.281H2084.54L2083.68 1012.88L2096.23 1007.84L2098.65 1015.18L2085.4 1018.87L2094.1 1029.82L2087.66 1034.33L2080.11 1022.36L2072.61 1033.96L2066.17 1029.62Z" fill="#8F8F8F"/>
<path d="M2071.17 1358.62L2080.15 1347.42L2067.11 1343.73L2069.57 1336.51L2082.37 1341.6L2081.59 1327.28H2089.54L2088.68 1341.88L2101.23 1336.84L2103.65 1344.18L2090.4 1347.87L2099.1 1358.82L2092.66 1363.33L2085.11 1351.36L2077.61 1362.96L2071.17 1358.62Z" fill="#8F8F8F"/>
<path d="M2298 724H2548" stroke="#75ACFF" stroke-width="13"/>
<path d="M2353.89 623.158V683H2342.08V636.775L2327.89 641.287V631.977L2352.62 623.158H2353.89Z" fill="#8F8F8F"/>
<path d="M2486.17 654.617L2495.15 643.42L2482.11 639.729L2484.57 632.51L2497.37 637.596L2496.59 623.281H2504.54L2503.68 637.883L2516.23 632.838L2518.65 640.18L2505.4 643.871L2514.1 654.822L2507.66 659.334L2500.11 647.357L2492.61 658.965L2486.17 654.617Z" fill="#8F8F8F"/>
<path d="M2877 724H3127" stroke="#75ACFF" stroke-width="13"/>
<path d="M2932.89 623.158V683H2921.08V636.775L2906.89 641.287V631.977L2931.62 623.158H2932.89Z" fill="#8F8F8F"/>
<path d="M3068.17 654.617L3077.15 643.42L3064.11 639.729L3066.57 632.51L3079.37 637.596L3078.59 623.281H3086.54L3085.68 637.883L3098.23 632.838L3100.65 640.18L3087.4 643.871L3096.1 654.822L3089.66 659.334L3082.11 647.357L3074.61 658.965L3068.17 654.617Z" fill="#8F8F8F"/>
<path d="M3408 724H3658" stroke="#75ACFF" stroke-width="13"/>
<path d="M3463.89 623.158V683H3452.08V636.775L3437.89 641.287V631.977L3462.62 623.158H3463.89Z" fill="#8F8F8F"/>
<path d="M3597.17 654.617L3606.15 643.42L3593.11 639.729L3595.57 632.51L3608.37 637.596L3607.59 623.281H3615.54L3614.68 637.883L3627.23 632.838L3629.65 640.18L3616.4 643.871L3625.1 654.822L3618.66 659.334L3611.11 647.357L3603.61 658.965L3597.17 654.617Z" fill="#8F8F8F"/>
<path d="M2568 1097L2281 810" stroke="#75ACFF" stroke-width="13"/>
<path d="M1024.03 693.281V753H1011.77V693.281H1024.03ZM1042.41 693.281V702.92H993.682V693.281H1042.41ZM1039.66 731.262V730.4C1039.66 727.146 1040.12 724.152 1041.05 721.418C1041.98 718.656 1043.34 716.264 1045.12 714.24C1046.89 712.217 1049.08 710.645 1051.68 709.523C1054.28 708.375 1057.26 707.801 1060.62 707.801C1063.98 707.801 1066.98 708.375 1069.6 709.523C1072.23 710.645 1074.43 712.217 1076.21 714.24C1078.01 716.264 1079.38 718.656 1080.31 721.418C1081.24 724.152 1081.7 727.146 1081.7 730.4V731.262C1081.7 734.488 1081.24 737.482 1080.31 740.244C1079.38 742.979 1078.01 745.371 1076.21 747.422C1074.43 749.445 1072.24 751.018 1069.64 752.139C1067.04 753.26 1064.06 753.82 1060.7 753.82C1057.34 753.82 1054.34 753.26 1051.72 752.139C1049.12 751.018 1046.92 749.445 1045.12 747.422C1043.34 745.371 1041.98 742.979 1041.05 740.244C1040.12 737.482 1039.66 734.488 1039.66 731.262ZM1051.47 730.4V731.262C1051.47 733.121 1051.64 734.857 1051.96 736.471C1052.29 738.084 1052.81 739.506 1053.52 740.736C1054.26 741.939 1055.22 742.883 1056.39 743.566C1057.57 744.25 1059.01 744.592 1060.7 744.592C1062.34 744.592 1063.75 744.25 1064.93 743.566C1066.1 742.883 1067.04 741.939 1067.76 740.736C1068.47 739.506 1068.99 738.084 1069.31 736.471C1069.67 734.857 1069.85 733.121 1069.85 731.262V730.4C1069.85 728.596 1069.67 726.9 1069.31 725.314C1068.99 723.701 1068.45 722.279 1067.71 721.049C1067 719.791 1066.06 718.807 1064.88 718.096C1063.71 717.385 1062.29 717.029 1060.62 717.029C1058.95 717.029 1057.53 717.385 1056.35 718.096C1055.21 718.807 1054.26 719.791 1053.52 721.049C1052.81 722.279 1052.29 723.701 1051.96 725.314C1051.64 726.9 1051.47 728.596 1051.47 730.4ZM1115.21 742.377V708.621H1127.02V753H1115.91L1115.21 742.377ZM1116.52 733.271L1120.01 733.189C1120.01 736.143 1119.67 738.891 1118.98 741.434C1118.3 743.949 1117.28 746.137 1115.91 747.996C1114.54 749.828 1112.82 751.264 1110.74 752.303C1108.66 753.314 1106.21 753.82 1103.4 753.82C1101.24 753.82 1099.24 753.52 1097.41 752.918C1095.61 752.289 1094.05 751.318 1092.73 750.006C1091.45 748.666 1090.44 746.957 1089.7 744.879C1088.99 742.773 1088.63 740.244 1088.63 737.291V708.621H1100.45V737.373C1100.45 738.686 1100.6 739.793 1100.9 740.695C1101.22 741.598 1101.68 742.336 1102.25 742.91C1102.82 743.484 1103.49 743.895 1104.26 744.141C1105.05 744.387 1105.93 744.51 1106.88 744.51C1109.32 744.51 1111.23 744.018 1112.63 743.033C1114.05 742.049 1115.05 740.709 1115.62 739.014C1116.22 737.291 1116.52 735.377 1116.52 733.271ZM1147.86 718.301V753H1136.05V708.621H1147.16L1147.86 718.301ZM1161.23 708.334L1161.03 719.285C1160.45 719.203 1159.75 719.135 1158.93 719.08C1158.14 718.998 1157.42 718.957 1156.76 718.957C1155.09 718.957 1153.64 719.176 1152.41 719.613C1151.21 720.023 1150.2 720.639 1149.38 721.459C1148.58 722.279 1147.98 723.277 1147.57 724.453C1147.19 725.629 1146.97 726.969 1146.92 728.473L1144.54 727.734C1144.54 724.863 1144.82 722.225 1145.4 719.818C1145.97 717.385 1146.81 715.266 1147.9 713.461C1149.02 711.656 1150.39 710.262 1152 709.277C1153.62 708.293 1155.46 707.801 1157.54 707.801C1158.2 707.801 1158.87 707.855 1159.55 707.965C1160.23 708.047 1160.79 708.17 1161.23 708.334ZM1178.38 718.096V753H1166.56V708.621H1177.64L1178.38 718.096ZM1176.65 729.252H1173.45C1173.45 725.971 1173.88 723.018 1174.72 720.393C1175.57 717.74 1176.76 715.484 1178.29 713.625C1179.82 711.738 1181.64 710.303 1183.75 709.318C1185.88 708.307 1188.26 707.801 1190.88 707.801C1192.96 707.801 1194.86 708.102 1196.59 708.703C1198.31 709.305 1199.79 710.262 1201.02 711.574C1202.27 712.887 1203.23 714.623 1203.89 716.783C1204.57 718.943 1204.91 721.582 1204.91 724.699V753H1193.02V724.658C1193.02 722.689 1192.74 721.158 1192.2 720.064C1191.65 718.971 1190.84 718.205 1189.78 717.768C1188.74 717.303 1187.45 717.07 1185.92 717.07C1184.34 717.07 1182.96 717.385 1181.78 718.014C1180.63 718.643 1179.67 719.518 1178.91 720.639C1178.17 721.732 1177.61 723.018 1177.23 724.494C1176.84 725.971 1176.65 727.557 1176.65 729.252ZM1237.85 742.992V723.223C1237.85 721.801 1237.62 720.584 1237.15 719.572C1236.69 718.533 1235.96 717.727 1234.98 717.152C1234.02 716.578 1232.78 716.291 1231.24 716.291C1229.93 716.291 1228.8 716.523 1227.84 716.988C1226.88 717.426 1226.14 718.068 1225.62 718.916C1225.11 719.736 1224.85 720.707 1224.85 721.828H1213.03C1213.03 719.941 1213.47 718.15 1214.35 716.455C1215.22 714.76 1216.49 713.27 1218.16 711.984C1219.83 710.672 1221.81 709.646 1224.11 708.908C1226.43 708.17 1229.03 707.801 1231.9 707.801C1235.35 707.801 1238.41 708.375 1241.09 709.523C1243.77 710.672 1245.87 712.395 1247.4 714.691C1248.96 716.988 1249.74 719.859 1249.74 723.305V742.295C1249.74 744.729 1249.89 746.725 1250.19 748.283C1250.49 749.814 1250.93 751.154 1251.51 752.303V753H1239.57C1239 751.797 1238.56 750.293 1238.26 748.488C1237.98 746.656 1237.85 744.824 1237.85 742.992ZM1239.41 725.971L1239.49 732.656H1232.88C1231.33 732.656 1229.97 732.834 1228.82 733.189C1227.68 733.545 1226.73 734.051 1225.99 734.707C1225.26 735.336 1224.71 736.074 1224.35 736.922C1224.03 737.77 1223.86 738.699 1223.86 739.711C1223.86 740.723 1224.09 741.639 1224.56 742.459C1225.02 743.252 1225.69 743.881 1226.57 744.346C1227.44 744.783 1228.47 745.002 1229.64 745.002C1231.42 745.002 1232.97 744.646 1234.28 743.936C1235.59 743.225 1236.6 742.35 1237.31 741.311C1238.05 740.271 1238.44 739.287 1238.46 738.357L1241.58 743.361C1241.14 744.482 1240.54 745.645 1239.78 746.848C1239.04 748.051 1238.09 749.186 1236.95 750.252C1235.8 751.291 1234.42 752.152 1232.8 752.836C1231.19 753.492 1229.28 753.82 1227.06 753.82C1224.24 753.82 1221.69 753.26 1219.39 752.139C1217.12 750.99 1215.32 749.418 1213.98 747.422C1212.66 745.398 1212.01 743.102 1212.01 740.531C1212.01 738.207 1212.45 736.143 1213.32 734.338C1214.2 732.533 1215.48 731.016 1217.18 729.785C1218.9 728.527 1221.04 727.584 1223.62 726.955C1226.19 726.299 1229.17 725.971 1232.56 725.971H1239.41ZM1270.66 717.809V753H1258.81V708.621H1269.92L1270.66 717.809ZM1269.02 729.252H1265.74C1265.74 726.162 1266.11 723.318 1266.85 720.721C1267.61 718.096 1268.72 715.826 1270.17 713.912C1271.64 711.971 1273.46 710.467 1275.62 709.4C1277.78 708.334 1280.29 707.801 1283.13 707.801C1285.1 707.801 1286.9 708.102 1288.54 708.703C1290.18 709.277 1291.59 710.193 1292.77 711.451C1293.97 712.682 1294.9 714.295 1295.56 716.291C1296.21 718.26 1296.54 720.625 1296.54 723.387V753H1284.73V724.699C1284.73 722.676 1284.46 721.117 1283.91 720.023C1283.36 718.93 1282.58 718.164 1281.57 717.727C1280.59 717.289 1279.4 717.07 1278 717.07C1276.47 717.07 1275.13 717.385 1273.98 718.014C1272.86 718.643 1271.93 719.518 1271.19 720.639C1270.46 721.732 1269.91 723.018 1269.55 724.494C1269.2 725.971 1269.02 727.557 1269.02 729.252ZM1295.43 727.898L1291.21 728.432C1291.21 725.533 1291.56 722.84 1292.28 720.352C1293.01 717.863 1294.09 715.676 1295.52 713.789C1296.96 711.902 1298.76 710.439 1300.89 709.4C1303.02 708.334 1305.48 707.801 1308.27 707.801C1310.4 707.801 1312.35 708.115 1314.1 708.744C1315.85 709.346 1317.34 710.316 1318.57 711.656C1319.82 712.969 1320.78 714.691 1321.44 716.824C1322.12 718.957 1322.46 721.568 1322.46 724.658V753H1310.61V724.658C1310.61 722.607 1310.34 721.049 1309.79 719.982C1309.27 718.889 1308.5 718.137 1307.49 717.727C1306.51 717.289 1305.33 717.07 1303.96 717.07C1302.54 717.07 1301.3 717.357 1300.23 717.932C1299.17 718.479 1298.28 719.244 1297.57 720.229C1296.86 721.213 1296.32 722.361 1295.97 723.674C1295.61 724.959 1295.43 726.367 1295.43 727.898ZM1352.04 753.82C1348.59 753.82 1345.5 753.273 1342.77 752.18C1340.03 751.059 1337.71 749.514 1335.79 747.545C1333.91 745.576 1332.46 743.293 1331.45 740.695C1330.43 738.07 1329.93 735.281 1329.93 732.328V730.688C1329.93 727.324 1330.41 724.248 1331.36 721.459C1332.32 718.67 1333.69 716.25 1335.46 714.199C1337.27 712.148 1339.46 710.576 1342.03 709.482C1344.6 708.361 1347.5 707.801 1350.72 707.801C1353.87 707.801 1356.66 708.32 1359.09 709.359C1361.52 710.398 1363.56 711.875 1365.2 713.789C1366.87 715.703 1368.13 718 1368.97 720.68C1369.82 723.332 1370.25 726.285 1370.25 729.539V734.461H1334.97V726.586H1358.64V725.684C1358.64 724.043 1358.34 722.58 1357.74 721.295C1357.16 719.982 1356.29 718.943 1355.11 718.178C1353.94 717.412 1352.43 717.029 1350.6 717.029C1349.04 717.029 1347.7 717.371 1346.58 718.055C1345.46 718.738 1344.54 719.695 1343.83 720.926C1343.15 722.156 1342.63 723.605 1342.27 725.273C1341.95 726.914 1341.78 728.719 1341.78 730.688V732.328C1341.78 734.105 1342.03 735.746 1342.52 737.25C1343.04 738.754 1343.76 740.053 1344.69 741.146C1345.65 742.24 1346.8 743.088 1348.14 743.689C1349.51 744.291 1351.05 744.592 1352.77 744.592C1354.91 744.592 1356.89 744.182 1358.72 743.361C1360.58 742.514 1362.18 741.242 1363.52 739.547L1369.26 745.781C1368.33 747.121 1367.06 748.406 1365.45 749.637C1363.86 750.867 1361.95 751.879 1359.71 752.672C1357.46 753.438 1354.91 753.82 1352.04 753.82ZM1388.54 718.096V753H1376.73V708.621H1387.8L1388.54 718.096ZM1386.82 729.252H1383.62C1383.62 725.971 1384.04 723.018 1384.89 720.393C1385.74 717.74 1386.93 715.484 1388.46 713.625C1389.99 711.738 1391.81 710.303 1393.91 709.318C1396.04 708.307 1398.42 707.801 1401.05 707.801C1403.13 707.801 1405.03 708.102 1406.75 708.703C1408.47 709.305 1409.95 710.262 1411.18 711.574C1412.44 712.887 1413.39 714.623 1414.05 716.783C1414.73 718.943 1415.08 721.582 1415.08 724.699V753H1403.18V724.658C1403.18 722.689 1402.91 721.158 1402.36 720.064C1401.81 718.971 1401.01 718.205 1399.94 717.768C1398.9 717.303 1397.62 717.07 1396.09 717.07C1394.5 717.07 1393.12 717.385 1391.94 718.014C1390.79 718.643 1389.84 719.518 1389.07 720.639C1388.33 721.732 1387.77 723.018 1387.39 724.494C1387.01 725.971 1386.82 727.557 1386.82 729.252ZM1445.8 708.621V716.988H1419.96V708.621H1445.8ZM1426.36 697.67H1438.17V739.629C1438.17 740.914 1438.33 741.898 1438.66 742.582C1439.02 743.266 1439.54 743.744 1440.22 744.018C1440.9 744.264 1441.76 744.387 1442.8 744.387C1443.54 744.387 1444.2 744.359 1444.77 744.305C1445.37 744.223 1445.88 744.141 1446.29 744.059L1446.33 752.754C1445.32 753.082 1444.22 753.342 1443.05 753.533C1441.87 753.725 1440.57 753.82 1439.15 753.82C1436.55 753.82 1434.29 753.396 1432.34 752.549C1430.43 751.674 1428.95 750.279 1427.91 748.365C1426.88 746.451 1426.36 743.936 1426.36 740.818V697.67Z" fill="#75ACFF"/>
<rect x="943.5" y="628.5" width="553" height="191" rx="41.5" stroke="#75ACFF" stroke-width="13"/>
<path d="M1861.94 693.281V753H1849.63L1825.64 712.969V753H1813.33V693.281H1825.64L1849.67 733.354V693.281H1861.94ZM1870.02 731.262V730.4C1870.02 727.146 1870.48 724.152 1871.41 721.418C1872.34 718.656 1873.69 716.264 1875.47 714.24C1877.25 712.217 1879.44 710.645 1882.03 709.523C1884.63 708.375 1887.61 707.801 1890.97 707.801C1894.34 707.801 1897.33 708.375 1899.96 709.523C1902.58 710.645 1904.78 712.217 1906.56 714.24C1908.37 716.264 1909.73 718.656 1910.66 721.418C1911.59 724.152 1912.06 727.146 1912.06 730.4V731.262C1912.06 734.488 1911.59 737.482 1910.66 740.244C1909.73 742.979 1908.37 745.371 1906.56 747.422C1904.78 749.445 1902.6 751.018 1900 752.139C1897.4 753.26 1894.42 753.82 1891.06 753.82C1887.69 753.82 1884.7 753.26 1882.07 752.139C1879.48 751.018 1877.28 749.445 1875.47 747.422C1873.69 745.371 1872.34 742.979 1871.41 740.244C1870.48 737.482 1870.02 734.488 1870.02 731.262ZM1881.83 730.4V731.262C1881.83 733.121 1881.99 734.857 1882.32 736.471C1882.65 738.084 1883.17 739.506 1883.88 740.736C1884.62 741.939 1885.57 742.883 1886.75 743.566C1887.93 744.25 1889.36 744.592 1891.06 744.592C1892.7 744.592 1894.11 744.25 1895.28 743.566C1896.46 742.883 1897.4 741.939 1898.11 740.736C1898.82 739.506 1899.34 738.084 1899.67 736.471C1900.03 734.857 1900.2 733.121 1900.2 731.262V730.4C1900.2 728.596 1900.03 726.9 1899.67 725.314C1899.34 723.701 1898.81 722.279 1898.07 721.049C1897.36 719.791 1896.42 718.807 1895.24 718.096C1894.06 717.385 1892.64 717.029 1890.97 717.029C1889.31 717.029 1887.88 717.385 1886.71 718.096C1885.56 718.807 1884.62 719.791 1883.88 721.049C1883.17 722.279 1882.65 723.701 1882.32 725.314C1881.99 726.9 1881.83 728.596 1881.83 730.4ZM1931.13 717.809V753H1919.28V708.621H1930.39L1931.13 717.809ZM1929.49 729.252H1926.21C1926.21 726.162 1926.58 723.318 1927.31 720.721C1928.08 718.096 1929.19 715.826 1930.64 713.912C1932.11 711.971 1933.93 710.467 1936.09 709.4C1938.25 708.334 1940.75 707.801 1943.6 707.801C1945.57 707.801 1947.37 708.102 1949.01 708.703C1950.65 709.277 1952.06 710.193 1953.24 711.451C1954.44 712.682 1955.37 714.295 1956.03 716.291C1956.68 718.26 1957.01 720.625 1957.01 723.387V753H1945.2V724.699C1945.2 722.676 1944.92 721.117 1944.38 720.023C1943.83 718.93 1943.05 718.164 1942.04 717.727C1941.05 717.289 1939.87 717.07 1938.47 717.07C1936.94 717.07 1935.6 717.385 1934.45 718.014C1933.33 718.643 1932.4 719.518 1931.66 720.639C1930.92 721.732 1930.38 723.018 1930.02 724.494C1929.67 725.971 1929.49 727.557 1929.49 729.252ZM1955.9 727.898L1951.68 728.432C1951.68 725.533 1952.03 722.84 1952.74 720.352C1953.48 717.863 1954.56 715.676 1955.98 713.789C1957.43 711.902 1959.22 710.439 1961.36 709.4C1963.49 708.334 1965.95 707.801 1968.74 707.801C1970.87 707.801 1972.81 708.115 1974.56 708.744C1976.31 709.346 1977.8 710.316 1979.04 711.656C1980.29 712.969 1981.25 714.691 1981.91 716.824C1982.59 718.957 1982.93 721.568 1982.93 724.658V753H1971.08V724.658C1971.08 722.607 1970.8 721.049 1970.26 719.982C1969.74 718.889 1968.97 718.137 1967.96 717.727C1966.98 717.289 1965.8 717.07 1964.43 717.07C1963.01 717.07 1961.77 717.357 1960.7 717.932C1959.63 718.479 1958.75 719.244 1958.04 720.229C1957.32 721.213 1956.79 722.361 1956.44 723.674C1956.08 724.959 1955.9 726.367 1955.9 727.898ZM2004.55 708.621V753H1992.69V708.621H2004.55ZM1991.96 697.055C1991.96 695.332 1992.56 693.91 1993.76 692.789C1994.96 691.668 1996.58 691.107 1998.6 691.107C2000.6 691.107 2002.2 691.668 2003.4 692.789C2004.63 693.91 2005.24 695.332 2005.24 697.055C2005.24 698.777 2004.63 700.199 2003.4 701.32C2002.2 702.441 2000.6 703.002 1998.6 703.002C1996.58 703.002 1994.96 702.441 1993.76 701.32C1992.56 700.199 1991.96 698.777 1991.96 697.055ZM2025.88 718.096V753H2014.06V708.621H2025.14L2025.88 718.096ZM2024.15 729.252H2020.95C2020.95 725.971 2021.38 723.018 2022.22 720.393C2023.07 717.74 2024.26 715.484 2025.79 713.625C2027.32 711.738 2029.14 710.303 2031.25 709.318C2033.38 708.307 2035.76 707.801 2038.38 707.801C2040.46 707.801 2042.36 708.102 2044.09 708.703C2045.81 709.305 2047.29 710.262 2048.52 711.574C2049.77 712.887 2050.73 714.623 2051.39 716.783C2052.07 718.943 2052.41 721.582 2052.41 724.699V753H2040.52V724.658C2040.52 722.689 2040.24 721.158 2039.7 720.064C2039.15 718.971 2038.34 718.205 2037.28 717.768C2036.24 717.303 2034.95 717.07 2033.42 717.07C2031.84 717.07 2030.46 717.385 2029.28 718.014C2028.13 718.643 2027.17 719.518 2026.41 720.639C2025.67 721.732 2025.11 723.018 2024.73 724.494C2024.34 725.971 2024.15 727.557 2024.15 729.252ZM2085.35 742.992V723.223C2085.35 721.801 2085.12 720.584 2084.65 719.572C2084.19 718.533 2083.46 717.727 2082.48 717.152C2081.52 716.578 2080.28 716.291 2078.74 716.291C2077.43 716.291 2076.3 716.523 2075.34 716.988C2074.38 717.426 2073.64 718.068 2073.12 718.916C2072.61 719.736 2072.35 720.707 2072.35 721.828H2060.53C2060.53 719.941 2060.97 718.15 2061.85 716.455C2062.72 714.76 2063.99 713.27 2065.66 711.984C2067.33 710.672 2069.31 709.646 2071.61 708.908C2073.93 708.17 2076.53 707.801 2079.4 707.801C2082.85 707.801 2085.91 708.375 2088.59 709.523C2091.27 710.672 2093.37 712.395 2094.9 714.691C2096.46 716.988 2097.24 719.859 2097.24 723.305V742.295C2097.24 744.729 2097.39 746.725 2097.69 748.283C2097.99 749.814 2098.43 751.154 2099.01 752.303V753H2087.07C2086.5 751.797 2086.06 750.293 2085.76 748.488C2085.48 746.656 2085.35 744.824 2085.35 742.992ZM2086.91 725.971L2086.99 732.656H2080.38C2078.83 732.656 2077.47 732.834 2076.32 733.189C2075.18 733.545 2074.23 734.051 2073.49 734.707C2072.76 735.336 2072.21 736.074 2071.85 736.922C2071.53 737.77 2071.36 738.699 2071.36 739.711C2071.36 740.723 2071.59 741.639 2072.06 742.459C2072.52 743.252 2073.19 743.881 2074.07 744.346C2074.94 744.783 2075.97 745.002 2077.14 745.002C2078.92 745.002 2080.47 744.646 2081.78 743.936C2083.09 743.225 2084.1 742.35 2084.81 741.311C2085.55 740.271 2085.94 739.287 2085.96 738.357L2089.08 743.361C2088.64 744.482 2088.04 745.645 2087.28 746.848C2086.54 748.051 2085.59 749.186 2084.45 750.252C2083.3 751.291 2081.92 752.152 2080.3 752.836C2078.69 753.492 2076.78 753.82 2074.56 753.82C2071.74 753.82 2069.19 753.26 2066.89 752.139C2064.62 750.99 2062.82 749.418 2061.48 747.422C2060.16 745.398 2059.51 743.102 2059.51 740.531C2059.51 738.207 2059.95 736.143 2060.82 734.338C2061.7 732.533 2062.98 731.016 2064.68 729.785C2066.4 728.527 2068.54 727.584 2071.12 726.955C2073.69 726.299 2076.67 725.971 2080.06 725.971H2086.91ZM2128.09 708.621V716.988H2102.25V708.621H2128.09ZM2108.64 697.67H2120.46V739.629C2120.46 740.914 2120.62 741.898 2120.95 742.582C2121.3 743.266 2121.82 743.744 2122.51 744.018C2123.19 744.264 2124.05 744.387 2125.09 744.387C2125.83 744.387 2126.49 744.359 2127.06 744.305C2127.66 744.223 2128.17 744.141 2128.58 744.059L2128.62 752.754C2127.61 753.082 2126.51 753.342 2125.34 753.533C2124.16 753.725 2122.86 753.82 2121.44 753.82C2118.84 753.82 2116.57 753.396 2114.63 752.549C2112.72 751.674 2111.24 750.279 2110.2 748.365C2109.16 746.451 2108.64 743.936 2108.64 740.818V697.67ZM2147.28 708.621V753H2135.43V708.621H2147.28ZM2134.69 697.055C2134.69 695.332 2135.29 693.91 2136.49 692.789C2137.7 691.668 2139.31 691.107 2141.33 691.107C2143.33 691.107 2144.93 691.668 2146.13 692.789C2147.36 693.91 2147.98 695.332 2147.98 697.055C2147.98 698.777 2147.36 700.199 2146.13 701.32C2144.93 702.441 2143.33 703.002 2141.33 703.002C2139.31 703.002 2137.7 702.441 2136.49 701.32C2135.29 700.199 2134.69 698.777 2134.69 697.055ZM2155.16 731.262V730.4C2155.16 727.146 2155.62 724.152 2156.55 721.418C2157.48 718.656 2158.83 716.264 2160.61 714.24C2162.39 712.217 2164.58 710.645 2167.17 709.523C2169.77 708.375 2172.75 707.801 2176.12 707.801C2179.48 707.801 2182.47 708.375 2185.1 709.523C2187.72 710.645 2189.92 712.217 2191.7 714.24C2193.51 716.264 2194.87 718.656 2195.8 721.418C2196.73 724.152 2197.2 727.146 2197.2 730.4V731.262C2197.2 734.488 2196.73 737.482 2195.8 740.244C2194.87 742.979 2193.51 745.371 2191.7 747.422C2189.92 749.445 2187.74 751.018 2185.14 752.139C2182.54 753.26 2179.56 753.82 2176.2 753.82C2172.83 753.82 2169.84 753.26 2167.21 752.139C2164.62 751.018 2162.42 749.445 2160.61 747.422C2158.83 745.371 2157.48 742.979 2156.55 740.244C2155.62 737.482 2155.16 734.488 2155.16 731.262ZM2166.97 730.4V731.262C2166.97 733.121 2167.13 734.857 2167.46 736.471C2167.79 738.084 2168.31 739.506 2169.02 740.736C2169.76 741.939 2170.71 742.883 2171.89 743.566C2173.07 744.25 2174.5 744.592 2176.2 744.592C2177.84 744.592 2179.25 744.25 2180.42 743.566C2181.6 742.883 2182.54 741.939 2183.25 740.736C2183.96 739.506 2184.48 738.084 2184.81 736.471C2185.17 734.857 2185.34 733.121 2185.34 731.262V730.4C2185.34 728.596 2185.17 726.9 2184.81 725.314C2184.48 723.701 2183.95 722.279 2183.21 721.049C2182.5 719.791 2181.56 718.807 2180.38 718.096C2179.21 717.385 2177.78 717.029 2176.12 717.029C2174.45 717.029 2173.03 717.385 2171.85 718.096C2170.7 718.807 2169.76 719.791 2169.02 721.049C2168.31 722.279 2167.79 723.701 2167.46 725.314C2167.13 726.9 2166.97 728.596 2166.97 730.4ZM2216.02 718.096V753H2204.21V708.621H2215.29L2216.02 718.096ZM2214.3 729.252H2211.1C2211.1 725.971 2211.53 723.018 2212.37 720.393C2213.22 717.74 2214.41 715.484 2215.94 713.625C2217.47 711.738 2219.29 710.303 2221.4 709.318C2223.53 708.307 2225.91 707.801 2228.53 707.801C2230.61 707.801 2232.51 708.102 2234.23 708.703C2235.96 709.305 2237.43 710.262 2238.66 711.574C2239.92 712.887 2240.88 714.623 2241.54 716.783C2242.22 718.943 2242.56 721.582 2242.56 724.699V753H2230.67V724.658C2230.67 722.689 2230.39 721.158 2229.85 720.064C2229.3 718.971 2228.49 718.205 2227.43 717.768C2226.39 717.303 2225.1 717.07 2223.57 717.07C2221.98 717.07 2220.6 717.385 2219.43 718.014C2218.28 718.643 2217.32 719.518 2216.56 720.639C2215.82 721.732 2215.26 723.018 2214.88 724.494C2214.49 725.971 2214.3 727.557 2214.3 729.252Z" fill="#75ACFF"/>
<rect x="1759.5" y="628.5" width="536" height="191" rx="41.5" stroke="#75ACFF" stroke-width="13"/>
<path d="M1894.73 300.525L1906.62 250.281H1913.27L1914.79 258.648L1902.11 310H1894.97L1894.73 300.525ZM1888.62 250.281L1898.46 300.525L1897.64 310H1889.68L1876.44 250.281H1888.62ZM1925.24 300.32L1934.96 250.281H1947.15L1933.94 310H1925.98L1925.24 300.32ZM1917 250.281L1928.98 300.73L1928.65 310H1921.51L1908.76 258.607L1910.4 250.281H1917ZM1972.21 310.82C1968.76 310.82 1965.67 310.273 1962.94 309.18C1960.2 308.059 1957.88 306.514 1955.96 304.545C1954.08 302.576 1952.63 300.293 1951.62 297.695C1950.61 295.07 1950.1 292.281 1950.1 289.328V287.688C1950.1 284.324 1950.58 281.248 1951.54 278.459C1952.49 275.67 1953.86 273.25 1955.64 271.199C1957.44 269.148 1959.63 267.576 1962.2 266.482C1964.77 265.361 1967.67 264.801 1970.89 264.801C1974.04 264.801 1976.83 265.32 1979.26 266.359C1981.7 267.398 1983.73 268.875 1985.37 270.789C1987.04 272.703 1988.3 275 1989.15 277.68C1989.99 280.332 1990.42 283.285 1990.42 286.539V291.461H1955.14V283.586H1978.81V282.684C1978.81 281.043 1978.51 279.58 1977.91 278.295C1977.33 276.982 1976.46 275.943 1975.28 275.178C1974.11 274.412 1972.6 274.029 1970.77 274.029C1969.21 274.029 1967.87 274.371 1966.75 275.055C1965.63 275.738 1964.71 276.695 1964 277.926C1963.32 279.156 1962.8 280.605 1962.45 282.273C1962.12 283.914 1961.95 285.719 1961.95 287.688V289.328C1961.95 291.105 1962.2 292.746 1962.69 294.25C1963.21 295.754 1963.94 297.053 1964.87 298.146C1965.82 299.24 1966.97 300.088 1968.31 300.689C1969.68 301.291 1971.22 301.592 1972.95 301.592C1975.08 301.592 1977.06 301.182 1978.89 300.361C1980.75 299.514 1982.35 298.242 1983.69 296.547L1989.43 302.781C1988.5 304.121 1987.23 305.406 1985.62 306.637C1984.03 307.867 1982.12 308.879 1979.88 309.672C1977.63 310.438 1975.08 310.82 1972.21 310.82ZM2021.1 299.992V280.223C2021.1 278.801 2020.87 277.584 2020.4 276.572C2019.94 275.533 2019.21 274.727 2018.23 274.152C2017.27 273.578 2016.03 273.291 2014.49 273.291C2013.18 273.291 2012.05 273.523 2011.09 273.988C2010.13 274.426 2009.39 275.068 2008.88 275.916C2008.36 276.736 2008.1 277.707 2008.1 278.828H1996.28C1996.28 276.941 1996.72 275.15 1997.6 273.455C1998.47 271.76 1999.74 270.27 2001.41 268.984C2003.08 267.672 2005.06 266.646 2007.36 265.908C2009.68 265.17 2012.28 264.801 2015.15 264.801C2018.6 264.801 2021.66 265.375 2024.34 266.523C2027.02 267.672 2029.12 269.395 2030.65 271.691C2032.21 273.988 2032.99 276.859 2032.99 280.305V299.295C2032.99 301.729 2033.14 303.725 2033.44 305.283C2033.74 306.814 2034.18 308.154 2034.76 309.303V310H2022.82C2022.25 308.797 2021.81 307.293 2021.51 305.488C2021.23 303.656 2021.1 301.824 2021.1 299.992ZM2022.66 282.971L2022.74 289.656H2016.13C2014.58 289.656 2013.22 289.834 2012.07 290.189C2010.93 290.545 2009.98 291.051 2009.24 291.707C2008.51 292.336 2007.96 293.074 2007.6 293.922C2007.28 294.77 2007.11 295.699 2007.11 296.711C2007.11 297.723 2007.34 298.639 2007.81 299.459C2008.27 300.252 2008.94 300.881 2009.82 301.346C2010.69 301.783 2011.72 302.002 2012.89 302.002C2014.67 302.002 2016.22 301.646 2017.53 300.936C2018.84 300.225 2019.85 299.35 2020.56 298.311C2021.3 297.271 2021.69 296.287 2021.71 295.357L2024.83 300.361C2024.39 301.482 2023.79 302.645 2023.03 303.848C2022.29 305.051 2021.34 306.186 2020.2 307.252C2019.05 308.291 2017.67 309.152 2016.05 309.836C2014.44 310.492 2012.53 310.82 2010.31 310.82C2007.49 310.82 2004.94 310.26 2002.64 309.139C2000.37 307.99 1998.57 306.418 1997.23 304.422C1995.91 302.398 1995.26 300.102 1995.26 297.531C1995.26 295.207 1995.7 293.143 1996.57 291.338C1997.45 289.533 1998.73 288.016 2000.43 286.785C2002.15 285.527 2004.29 284.584 2006.87 283.955C2009.44 283.299 2012.42 282.971 2015.81 282.971H2022.66ZM2053.91 274.152V327.062H2042.1V265.621H2053.05L2053.91 274.152ZM2082.01 287.318V288.18C2082.01 291.406 2081.62 294.4 2080.86 297.162C2080.12 299.924 2079.03 302.33 2077.58 304.381C2076.13 306.404 2074.32 307.99 2072.16 309.139C2070.03 310.26 2067.57 310.82 2064.78 310.82C2062.07 310.82 2059.72 310.273 2057.72 309.18C2055.73 308.086 2054.05 306.555 2052.68 304.586C2051.34 302.59 2050.26 300.279 2049.44 297.654C2048.62 295.029 2047.99 292.213 2047.55 289.205V286.949C2047.99 283.723 2048.62 280.77 2049.44 278.09C2050.26 275.383 2051.34 273.045 2052.68 271.076C2054.05 269.08 2055.71 267.535 2057.68 266.441C2059.68 265.348 2062.02 264.801 2064.7 264.801C2067.51 264.801 2069.99 265.334 2072.12 266.4C2074.28 267.467 2076.09 268.998 2077.54 270.994C2079.01 272.99 2080.12 275.369 2080.86 278.131C2081.62 280.893 2082.01 283.955 2082.01 287.318ZM2070.15 288.18V287.318C2070.15 285.432 2069.99 283.695 2069.66 282.109C2069.36 280.496 2068.87 279.088 2068.18 277.885C2067.53 276.682 2066.65 275.752 2065.56 275.096C2064.49 274.412 2063.19 274.07 2061.66 274.07C2060.05 274.07 2058.67 274.33 2057.52 274.85C2056.4 275.369 2055.48 276.121 2054.77 277.105C2054.06 278.09 2053.53 279.266 2053.17 280.633C2052.82 282 2052.6 283.545 2052.52 285.268V290.969C2052.65 292.992 2053.04 294.811 2053.66 296.424C2054.29 298.01 2055.26 299.268 2056.58 300.197C2057.89 301.127 2059.61 301.592 2061.74 301.592C2063.3 301.592 2064.62 301.25 2065.68 300.566C2066.75 299.855 2067.61 298.885 2068.27 297.654C2068.95 296.424 2069.43 295.002 2069.7 293.389C2070 291.775 2070.15 290.039 2070.15 288.18ZM2087.46 288.262V287.4C2087.46 284.146 2087.93 281.152 2088.86 278.418C2089.79 275.656 2091.14 273.264 2092.92 271.24C2094.69 269.217 2096.88 267.645 2099.48 266.523C2102.08 265.375 2105.06 264.801 2108.42 264.801C2111.78 264.801 2114.78 265.375 2117.4 266.523C2120.03 267.645 2122.23 269.217 2124.01 271.24C2125.81 273.264 2127.18 275.656 2128.11 278.418C2129.04 281.152 2129.5 284.146 2129.5 287.4V288.262C2129.5 291.488 2129.04 294.482 2128.11 297.244C2127.18 299.979 2125.81 302.371 2124.01 304.422C2122.23 306.445 2120.04 308.018 2117.44 309.139C2114.85 310.26 2111.87 310.82 2108.5 310.82C2105.14 310.82 2102.14 310.26 2099.52 309.139C2096.92 308.018 2094.72 306.445 2092.92 304.422C2091.14 302.371 2089.79 299.979 2088.86 297.244C2087.93 294.482 2087.46 291.488 2087.46 288.262ZM2099.27 287.4V288.262C2099.27 290.121 2099.44 291.857 2099.77 293.471C2100.09 295.084 2100.61 296.506 2101.32 297.736C2102.06 298.939 2103.02 299.883 2104.2 300.566C2105.37 301.25 2106.81 301.592 2108.5 301.592C2110.14 301.592 2111.55 301.25 2112.73 300.566C2113.9 299.883 2114.85 298.939 2115.56 297.736C2116.27 296.506 2116.79 295.084 2117.12 293.471C2117.47 291.857 2117.65 290.121 2117.65 288.262V287.4C2117.65 285.596 2117.47 283.9 2117.12 282.314C2116.79 280.701 2116.25 279.279 2115.52 278.049C2114.8 276.791 2113.86 275.807 2112.69 275.096C2111.51 274.385 2110.09 274.029 2108.42 274.029C2106.75 274.029 2105.33 274.385 2104.15 275.096C2103.01 275.807 2102.06 276.791 2101.32 278.049C2100.61 279.279 2100.09 280.701 2099.77 282.314C2099.44 283.9 2099.27 285.596 2099.27 287.4ZM2148.33 275.096V310H2136.52V265.621H2147.59L2148.33 275.096ZM2146.61 286.252H2143.41C2143.41 282.971 2143.83 280.018 2144.68 277.393C2145.53 274.74 2146.71 272.484 2148.25 270.625C2149.78 268.738 2151.6 267.303 2153.7 266.318C2155.83 265.307 2158.21 264.801 2160.84 264.801C2162.92 264.801 2164.82 265.102 2166.54 265.703C2168.26 266.305 2169.74 267.262 2170.97 268.574C2172.23 269.887 2173.18 271.623 2173.84 273.783C2174.52 275.943 2174.87 278.582 2174.87 281.699V310H2162.97V281.658C2162.97 279.689 2162.7 278.158 2162.15 277.064C2161.6 275.971 2160.8 275.205 2159.73 274.768C2158.69 274.303 2157.41 274.07 2155.88 274.07C2154.29 274.07 2152.91 274.385 2151.73 275.014C2150.58 275.643 2149.63 276.518 2148.86 277.639C2148.12 278.732 2147.56 280.018 2147.18 281.494C2146.8 282.971 2146.61 284.557 2146.61 286.252Z" fill="#75ACFF"/>
<rect x="1826.5" y="185.5" width="402" height="191" rx="41.5" stroke="#75ACFF" stroke-width="13"/>
<path d="M1877.33 1149.28H1899.6C1904.17 1149.28 1908.09 1149.96 1911.38 1151.33C1914.68 1152.7 1917.23 1154.72 1919 1157.4C1920.78 1160.08 1921.67 1163.38 1921.67 1167.29C1921.67 1170.49 1921.12 1173.23 1920.03 1175.53C1918.96 1177.8 1917.45 1179.7 1915.48 1181.23C1913.54 1182.74 1911.25 1183.94 1908.63 1184.84L1904.73 1186.89H1885.37L1885.29 1177.29H1899.69C1901.85 1177.29 1903.64 1176.91 1905.06 1176.15C1906.48 1175.38 1907.55 1174.31 1908.26 1172.95C1909 1171.58 1909.37 1169.99 1909.37 1168.19C1909.37 1166.28 1909.01 1164.62 1908.3 1163.23C1907.59 1161.83 1906.51 1160.77 1905.06 1160.03C1903.61 1159.29 1901.79 1158.92 1899.6 1158.92H1889.64V1209H1877.33V1149.28ZM1910.72 1209L1897.1 1182.38L1910.1 1182.3L1923.88 1208.43V1209H1910.72ZM1950.83 1209.82C1947.39 1209.82 1944.3 1209.27 1941.56 1208.18C1938.83 1207.06 1936.5 1205.51 1934.59 1203.54C1932.7 1201.58 1931.25 1199.29 1930.24 1196.7C1929.23 1194.07 1928.72 1191.28 1928.72 1188.33V1186.69C1928.72 1183.32 1929.2 1180.25 1930.16 1177.46C1931.12 1174.67 1932.48 1172.25 1934.26 1170.2C1936.07 1168.15 1938.25 1166.58 1940.82 1165.48C1943.39 1164.36 1946.29 1163.8 1949.52 1163.8C1952.66 1163.8 1955.45 1164.32 1957.89 1165.36C1960.32 1166.4 1962.36 1167.88 1964 1169.79C1965.67 1171.7 1966.92 1174 1967.77 1176.68C1968.62 1179.33 1969.04 1182.29 1969.04 1185.54V1190.46H1933.77V1182.59H1957.44V1181.68C1957.44 1180.04 1957.13 1178.58 1956.53 1177.29C1955.96 1175.98 1955.08 1174.94 1953.91 1174.18C1952.73 1173.41 1951.23 1173.03 1949.4 1173.03C1947.84 1173.03 1946.5 1173.37 1945.38 1174.05C1944.26 1174.74 1943.34 1175.7 1942.63 1176.93C1941.95 1178.16 1941.43 1179.61 1941.07 1181.27C1940.74 1182.91 1940.58 1184.72 1940.58 1186.69V1188.33C1940.58 1190.11 1940.82 1191.75 1941.32 1193.25C1941.84 1194.75 1942.56 1196.05 1943.49 1197.15C1944.45 1198.24 1945.6 1199.09 1946.94 1199.69C1948.3 1200.29 1949.85 1200.59 1951.57 1200.59C1953.7 1200.59 1955.69 1200.18 1957.52 1199.36C1959.38 1198.51 1960.98 1197.24 1962.32 1195.55L1968.06 1201.78C1967.13 1203.12 1965.86 1204.41 1964.24 1205.64C1962.66 1206.87 1960.74 1207.88 1958.5 1208.67C1956.26 1209.44 1953.7 1209.82 1950.83 1209.82ZM2001.98 1226.06V1173.69L2003.5 1164.62H2013.87V1226.06H2001.98ZM1973.92 1187.26V1186.4C1973.92 1183.01 1974.29 1179.93 1975.03 1177.17C1975.8 1174.38 1976.92 1172 1978.39 1170.04C1979.87 1168.04 1981.68 1166.51 1983.81 1165.44C1985.97 1164.35 1988.46 1163.8 1991.27 1163.8C1993.98 1163.8 1996.32 1164.35 1998.29 1165.44C2000.26 1166.54 2001.91 1168.08 2003.25 1170.08C2004.62 1172.07 2005.71 1174.42 2006.53 1177.13C2007.35 1179.84 2007.98 1182.8 2008.42 1186.03V1187.92C2008.01 1191.01 2007.38 1193.88 2006.53 1196.53C2005.71 1199.18 2004.62 1201.51 2003.25 1203.5C2001.91 1205.5 2000.24 1207.06 1998.25 1208.18C1996.28 1209.27 1993.93 1209.82 1991.19 1209.82C1988.43 1209.82 1985.97 1209.26 1983.81 1208.14C1981.68 1206.99 1979.87 1205.4 1978.39 1203.38C1976.92 1201.36 1975.8 1198.98 1975.03 1196.24C1974.29 1193.48 1973.92 1190.49 1973.92 1187.26ZM1985.74 1186.4V1187.26C1985.74 1189.09 1985.89 1190.82 1986.19 1192.43C1986.49 1194.02 1986.97 1195.42 1987.62 1196.65C1988.31 1197.88 1989.18 1198.86 1990.25 1199.57C1991.31 1200.25 1992.63 1200.59 1994.19 1200.59C1996.35 1200.59 1998.08 1200.13 1999.39 1199.2C2000.73 1198.24 2001.72 1196.94 2002.35 1195.3C2003 1193.66 2003.39 1191.79 2003.5 1189.68V1184.31C2003.41 1182.59 2003.18 1181.04 2002.8 1179.67C2002.44 1178.28 2001.9 1177.09 2001.16 1176.11C2000.45 1175.12 1999.52 1174.37 1998.37 1173.85C1997.25 1173.3 1995.88 1173.03 1994.27 1173.03C1992.74 1173.03 1991.42 1173.37 1990.33 1174.05C1989.24 1174.74 1988.35 1175.7 1987.66 1176.93C1987.01 1178.13 1986.52 1179.54 1986.19 1181.15C1985.89 1182.76 1985.74 1184.51 1985.74 1186.4ZM2049.43 1198.38V1164.62H2061.25V1209H2050.13L2049.43 1198.38ZM2050.75 1189.27L2054.23 1189.19C2054.23 1192.14 2053.89 1194.89 2053.21 1197.43C2052.52 1199.95 2051.5 1202.14 2050.13 1204C2048.76 1205.83 2047.04 1207.26 2044.96 1208.3C2042.88 1209.31 2040.44 1209.82 2037.62 1209.82C2035.46 1209.82 2033.46 1209.52 2031.63 1208.92C2029.83 1208.29 2028.27 1207.32 2026.96 1206.01C2025.67 1204.67 2024.66 1202.96 2023.92 1200.88C2023.21 1198.77 2022.86 1196.24 2022.86 1193.29V1164.62H2034.67V1193.37C2034.67 1194.69 2034.82 1195.79 2035.12 1196.7C2035.45 1197.6 2035.9 1198.34 2036.47 1198.91C2037.05 1199.48 2037.72 1199.89 2038.48 1200.14C2039.28 1200.39 2040.15 1200.51 2041.11 1200.51C2043.54 1200.51 2045.46 1200.02 2046.85 1199.03C2048.27 1198.05 2049.27 1196.71 2049.84 1195.01C2050.45 1193.29 2050.75 1191.38 2050.75 1189.27ZM2090.7 1209.82C2087.25 1209.82 2084.16 1209.27 2081.43 1208.18C2078.69 1207.06 2076.37 1205.51 2074.45 1203.54C2072.57 1201.58 2071.12 1199.29 2070.11 1196.7C2069.09 1194.07 2068.59 1191.28 2068.59 1188.33V1186.69C2068.59 1183.32 2069.07 1180.25 2070.02 1177.46C2070.98 1174.67 2072.35 1172.25 2074.12 1170.2C2075.93 1168.15 2078.12 1166.58 2080.69 1165.48C2083.26 1164.36 2086.16 1163.8 2089.38 1163.8C2092.53 1163.8 2095.32 1164.32 2097.75 1165.36C2100.18 1166.4 2102.22 1167.88 2103.86 1169.79C2105.53 1171.7 2106.79 1174 2107.63 1176.68C2108.48 1179.33 2108.91 1182.29 2108.91 1185.54V1190.46H2073.63V1182.59H2097.3V1181.68C2097.3 1180.04 2097 1178.58 2096.4 1177.29C2095.82 1175.98 2094.95 1174.94 2093.77 1174.18C2092.6 1173.41 2091.09 1173.03 2089.26 1173.03C2087.7 1173.03 2086.36 1173.37 2085.24 1174.05C2084.12 1174.74 2083.2 1175.7 2082.49 1176.93C2081.81 1178.16 2081.29 1179.61 2080.93 1181.27C2080.61 1182.91 2080.44 1184.72 2080.44 1186.69V1188.33C2080.44 1190.11 2080.69 1191.75 2081.18 1193.25C2081.7 1194.75 2082.42 1196.05 2083.35 1197.15C2084.31 1198.24 2085.46 1199.09 2086.8 1199.69C2088.17 1200.29 2089.71 1200.59 2091.43 1200.59C2093.57 1200.59 2095.55 1200.18 2097.38 1199.36C2099.24 1198.51 2100.84 1197.24 2102.18 1195.55L2107.92 1201.78C2106.99 1203.12 2105.72 1204.41 2104.11 1205.64C2102.52 1206.87 2100.61 1207.88 2098.37 1208.67C2096.12 1209.44 2093.57 1209.82 2090.7 1209.82ZM2139.63 1196.74C2139.63 1195.89 2139.38 1195.12 2138.89 1194.44C2138.4 1193.76 2137.48 1193.13 2136.14 1192.55C2134.83 1191.95 2132.93 1191.4 2130.44 1190.91C2128.2 1190.42 2126.11 1189.8 2124.16 1189.07C2122.25 1188.3 2120.58 1187.38 2119.16 1186.32C2117.77 1185.25 2116.67 1183.99 2115.88 1182.54C2115.09 1181.07 2114.69 1179.39 2114.69 1177.5C2114.69 1175.64 2115.09 1173.89 2115.88 1172.25C2116.7 1170.61 2117.86 1169.16 2119.37 1167.9C2120.9 1166.62 2122.76 1165.62 2124.94 1164.91C2127.16 1164.17 2129.65 1163.8 2132.41 1163.8C2136.26 1163.8 2139.57 1164.42 2142.33 1165.65C2145.12 1166.88 2147.26 1168.57 2148.73 1170.73C2150.24 1172.87 2150.99 1175.3 2150.99 1178.03H2139.18C2139.18 1176.88 2138.93 1175.86 2138.44 1174.96C2137.97 1174.03 2137.23 1173.3 2136.22 1172.78C2135.24 1172.24 2133.95 1171.96 2132.37 1171.96C2131.05 1171.96 2129.92 1172.2 2128.96 1172.66C2128.01 1173.1 2127.27 1173.7 2126.75 1174.46C2126.26 1175.2 2126.01 1176.02 2126.01 1176.93C2126.01 1177.61 2126.15 1178.22 2126.42 1178.77C2126.72 1179.29 2127.2 1179.77 2127.86 1180.21C2128.51 1180.64 2129.36 1181.05 2130.4 1181.44C2131.46 1181.79 2132.78 1182.12 2134.34 1182.42C2137.54 1183.08 2140.39 1183.94 2142.91 1185.01C2145.42 1186.04 2147.42 1187.47 2148.9 1189.27C2150.37 1191.05 2151.11 1193.39 2151.11 1196.29C2151.11 1198.25 2150.67 1200.06 2149.8 1201.7C2148.92 1203.34 2147.67 1204.78 2146.03 1206.01C2144.38 1207.21 2142.42 1208.15 2140.12 1208.84C2137.85 1209.49 2135.29 1209.82 2132.45 1209.82C2128.32 1209.82 2124.82 1209.08 2121.95 1207.61C2119.11 1206.13 2116.95 1204.26 2115.47 1201.99C2114.02 1199.69 2113.29 1197.34 2113.29 1194.93H2124.49C2124.55 1196.54 2124.96 1197.84 2125.72 1198.83C2126.52 1199.81 2127.51 1200.52 2128.72 1200.96C2129.95 1201.4 2131.27 1201.62 2132.7 1201.62C2134.23 1201.62 2135.5 1201.41 2136.51 1201C2137.52 1200.56 2138.29 1199.99 2138.81 1199.28C2139.35 1198.54 2139.63 1197.69 2139.63 1196.74ZM2180.52 1164.62V1172.99H2154.68V1164.62H2180.52ZM2161.08 1153.67H2172.89V1195.63C2172.89 1196.91 2173.05 1197.9 2173.38 1198.58C2173.74 1199.27 2174.26 1199.74 2174.94 1200.02C2175.62 1200.26 2176.49 1200.39 2177.53 1200.39C2178.26 1200.39 2178.92 1200.36 2179.49 1200.3C2180.1 1200.22 2180.6 1200.14 2181.01 1200.06L2181.05 1208.75C2180.04 1209.08 2178.95 1209.34 2177.77 1209.53C2176.6 1209.72 2175.3 1209.82 2173.88 1209.82C2171.28 1209.82 2169.01 1209.4 2167.07 1208.55C2165.15 1207.67 2163.68 1206.28 2162.64 1204.37C2161.6 1202.45 2161.08 1199.94 2161.08 1196.82V1153.67Z" fill="#75ACFF"/>
<rect x="1823.5" y="1084.5" width="408" height="191" rx="41.5" stroke="#75ACFF" stroke-width="13"/>
<path d="M2656.94 1149.28V1209H2644.63L2620.64 1168.97V1209H2608.33V1149.28H2620.64L2644.67 1189.35V1149.28H2656.94ZM2665.02 1187.26V1186.4C2665.02 1183.15 2665.48 1180.15 2666.41 1177.42C2667.34 1174.66 2668.69 1172.26 2670.47 1170.24C2672.25 1168.22 2674.44 1166.64 2677.03 1165.52C2679.63 1164.38 2682.61 1163.8 2685.97 1163.8C2689.34 1163.8 2692.33 1164.38 2694.96 1165.52C2697.58 1166.64 2699.78 1168.22 2701.56 1170.24C2703.37 1172.26 2704.73 1174.66 2705.66 1177.42C2706.59 1180.15 2707.06 1183.15 2707.06 1186.4V1187.26C2707.06 1190.49 2706.59 1193.48 2705.66 1196.24C2704.73 1198.98 2703.37 1201.37 2701.56 1203.42C2699.78 1205.45 2697.6 1207.02 2695 1208.14C2692.4 1209.26 2689.42 1209.82 2686.06 1209.82C2682.69 1209.82 2679.7 1209.26 2677.07 1208.14C2674.48 1207.02 2672.28 1205.45 2670.47 1203.42C2668.69 1201.37 2667.34 1198.98 2666.41 1196.24C2665.48 1193.48 2665.02 1190.49 2665.02 1187.26ZM2676.83 1186.4V1187.26C2676.83 1189.12 2676.99 1190.86 2677.32 1192.47C2677.65 1194.08 2678.17 1195.51 2678.88 1196.74C2679.62 1197.94 2680.57 1198.88 2681.75 1199.57C2682.93 1200.25 2684.36 1200.59 2686.06 1200.59C2687.7 1200.59 2689.11 1200.25 2690.28 1199.57C2691.46 1198.88 2692.4 1197.94 2693.11 1196.74C2693.82 1195.51 2694.34 1194.08 2694.67 1192.47C2695.03 1190.86 2695.2 1189.12 2695.2 1187.26V1186.4C2695.2 1184.6 2695.03 1182.9 2694.67 1181.31C2694.34 1179.7 2693.81 1178.28 2693.07 1177.05C2692.36 1175.79 2691.42 1174.81 2690.24 1174.1C2689.06 1173.38 2687.64 1173.03 2685.97 1173.03C2684.31 1173.03 2682.88 1173.38 2681.71 1174.1C2680.56 1174.81 2679.62 1175.79 2678.88 1177.05C2678.17 1178.28 2677.65 1179.7 2677.32 1181.31C2676.99 1182.9 2676.83 1184.6 2676.83 1186.4ZM2726.13 1173.81V1209H2714.28V1164.62H2725.39L2726.13 1173.81ZM2724.49 1185.25H2721.21C2721.21 1182.16 2721.58 1179.32 2722.31 1176.72C2723.08 1174.1 2724.19 1171.83 2725.64 1169.91C2727.11 1167.97 2728.93 1166.47 2731.09 1165.4C2733.25 1164.33 2735.75 1163.8 2738.6 1163.8C2740.57 1163.8 2742.37 1164.1 2744.01 1164.7C2745.65 1165.28 2747.06 1166.19 2748.24 1167.45C2749.44 1168.68 2750.37 1170.29 2751.03 1172.29C2751.68 1174.26 2752.01 1176.62 2752.01 1179.39V1209H2740.2V1180.7C2740.2 1178.68 2739.92 1177.12 2739.38 1176.02C2738.83 1174.93 2738.05 1174.16 2737.04 1173.73C2736.05 1173.29 2734.87 1173.07 2733.47 1173.07C2731.94 1173.07 2730.6 1173.38 2729.45 1174.01C2728.33 1174.64 2727.4 1175.52 2726.66 1176.64C2725.92 1177.73 2725.38 1179.02 2725.02 1180.49C2724.67 1181.97 2724.49 1183.56 2724.49 1185.25ZM2750.9 1183.9L2746.68 1184.43C2746.68 1181.53 2747.03 1178.84 2747.74 1176.35C2748.48 1173.86 2749.56 1171.68 2750.98 1169.79C2752.43 1167.9 2754.22 1166.44 2756.36 1165.4C2758.49 1164.33 2760.95 1163.8 2763.74 1163.8C2765.87 1163.8 2767.81 1164.12 2769.56 1164.74C2771.31 1165.35 2772.8 1166.32 2774.04 1167.66C2775.29 1168.97 2776.25 1170.69 2776.91 1172.82C2777.59 1174.96 2777.93 1177.57 2777.93 1180.66V1209H2766.08V1180.66C2766.08 1178.61 2765.8 1177.05 2765.26 1175.98C2764.74 1174.89 2763.97 1174.14 2762.96 1173.73C2761.98 1173.29 2760.8 1173.07 2759.43 1173.07C2758.01 1173.07 2756.77 1173.36 2755.7 1173.93C2754.63 1174.48 2753.75 1175.24 2753.04 1176.23C2752.32 1177.21 2751.79 1178.36 2751.44 1179.67C2751.08 1180.96 2750.9 1182.37 2750.9 1183.9ZM2799.55 1164.62V1209H2787.69V1164.62H2799.55ZM2786.96 1153.05C2786.96 1151.33 2787.56 1149.91 2788.76 1148.79C2789.96 1147.67 2791.58 1147.11 2793.6 1147.11C2795.6 1147.11 2797.2 1147.67 2798.4 1148.79C2799.63 1149.91 2800.24 1151.33 2800.24 1153.05C2800.24 1154.78 2799.63 1156.2 2798.4 1157.32C2797.2 1158.44 2795.6 1159 2793.6 1159C2791.58 1159 2789.96 1158.44 2788.76 1157.32C2787.56 1156.2 2786.96 1154.78 2786.96 1153.05ZM2820.88 1174.1V1209H2809.06V1164.62H2820.14L2820.88 1174.1ZM2819.15 1185.25H2815.95C2815.95 1181.97 2816.38 1179.02 2817.22 1176.39C2818.07 1173.74 2819.26 1171.48 2820.79 1169.62C2822.32 1167.74 2824.14 1166.3 2826.25 1165.32C2828.38 1164.31 2830.76 1163.8 2833.38 1163.8C2835.46 1163.8 2837.36 1164.1 2839.09 1164.7C2840.81 1165.3 2842.29 1166.26 2843.52 1167.57C2844.77 1168.89 2845.73 1170.62 2846.39 1172.78C2847.07 1174.94 2847.41 1177.58 2847.41 1180.7V1209H2835.52V1180.66C2835.52 1178.69 2835.24 1177.16 2834.7 1176.06C2834.15 1174.97 2833.34 1174.21 2832.28 1173.77C2831.24 1173.3 2829.95 1173.07 2828.42 1173.07C2826.84 1173.07 2825.46 1173.38 2824.28 1174.01C2823.13 1174.64 2822.17 1175.52 2821.41 1176.64C2820.67 1177.73 2820.11 1179.02 2819.73 1180.49C2819.34 1181.97 2819.15 1183.56 2819.15 1185.25ZM2880.35 1198.99V1179.22C2880.35 1177.8 2880.12 1176.58 2879.65 1175.57C2879.19 1174.53 2878.46 1173.73 2877.48 1173.15C2876.52 1172.58 2875.28 1172.29 2873.74 1172.29C2872.43 1172.29 2871.3 1172.52 2870.34 1172.99C2869.38 1173.43 2868.64 1174.07 2868.12 1174.92C2867.61 1175.74 2867.35 1176.71 2867.35 1177.83H2855.53C2855.53 1175.94 2855.97 1174.15 2856.85 1172.46C2857.72 1170.76 2858.99 1169.27 2860.66 1167.98C2862.33 1166.67 2864.31 1165.65 2866.61 1164.91C2868.93 1164.17 2871.53 1163.8 2874.4 1163.8C2877.85 1163.8 2880.91 1164.38 2883.59 1165.52C2886.27 1166.67 2888.37 1168.39 2889.9 1170.69C2891.46 1172.99 2892.24 1175.86 2892.24 1179.3V1198.29C2892.24 1200.73 2892.39 1202.72 2892.69 1204.28C2892.99 1205.81 2893.43 1207.15 2894.01 1208.3V1209H2882.07C2881.5 1207.8 2881.06 1206.29 2880.76 1204.49C2880.48 1202.66 2880.35 1200.82 2880.35 1198.99ZM2881.91 1181.97L2881.99 1188.66H2875.38C2873.83 1188.66 2872.47 1188.83 2871.32 1189.19C2870.18 1189.54 2869.23 1190.05 2868.49 1190.71C2867.76 1191.34 2867.21 1192.07 2866.85 1192.92C2866.53 1193.77 2866.36 1194.7 2866.36 1195.71C2866.36 1196.72 2866.59 1197.64 2867.06 1198.46C2867.52 1199.25 2868.19 1199.88 2869.07 1200.35C2869.94 1200.78 2870.97 1201 2872.14 1201C2873.92 1201 2875.47 1200.65 2876.78 1199.94C2878.09 1199.22 2879.1 1198.35 2879.81 1197.31C2880.55 1196.27 2880.94 1195.29 2880.96 1194.36L2884.08 1199.36C2883.64 1200.48 2883.04 1201.64 2882.28 1202.85C2881.54 1204.05 2880.59 1205.19 2879.45 1206.25C2878.3 1207.29 2876.92 1208.15 2875.3 1208.84C2873.69 1209.49 2871.78 1209.82 2869.56 1209.82C2866.74 1209.82 2864.19 1209.26 2861.89 1208.14C2859.62 1206.99 2857.82 1205.42 2856.48 1203.42C2855.16 1201.4 2854.51 1199.1 2854.51 1196.53C2854.51 1194.21 2854.95 1192.14 2855.82 1190.34C2856.7 1188.53 2857.98 1187.02 2859.68 1185.79C2861.4 1184.53 2863.54 1183.58 2866.12 1182.96C2868.69 1182.3 2871.67 1181.97 2875.06 1181.97H2881.91ZM2923.09 1164.62V1172.99H2897.25V1164.62H2923.09ZM2903.64 1153.67H2915.46V1195.63C2915.46 1196.91 2915.62 1197.9 2915.95 1198.58C2916.3 1199.27 2916.82 1199.74 2917.51 1200.02C2918.19 1200.26 2919.05 1200.39 2920.09 1200.39C2920.83 1200.39 2921.49 1200.36 2922.06 1200.3C2922.66 1200.22 2923.17 1200.14 2923.58 1200.06L2923.62 1208.75C2922.61 1209.08 2921.51 1209.34 2920.34 1209.53C2919.16 1209.72 2917.86 1209.82 2916.44 1209.82C2913.84 1209.82 2911.57 1209.4 2909.63 1208.55C2907.72 1207.67 2906.24 1206.28 2905.2 1204.37C2904.16 1202.45 2903.64 1199.94 2903.64 1196.82V1153.67ZM2942.28 1164.62V1209H2930.43V1164.62H2942.28ZM2929.69 1153.05C2929.69 1151.33 2930.29 1149.91 2931.49 1148.79C2932.7 1147.67 2934.31 1147.11 2936.33 1147.11C2938.33 1147.11 2939.93 1147.67 2941.13 1148.79C2942.36 1149.91 2942.98 1151.33 2942.98 1153.05C2942.98 1154.78 2942.36 1156.2 2941.13 1157.32C2939.93 1158.44 2938.33 1159 2936.33 1159C2934.31 1159 2932.7 1158.44 2931.49 1157.32C2930.29 1156.2 2929.69 1154.78 2929.69 1153.05ZM2950.16 1187.26V1186.4C2950.16 1183.15 2950.62 1180.15 2951.55 1177.42C2952.48 1174.66 2953.83 1172.26 2955.61 1170.24C2957.39 1168.22 2959.58 1166.64 2962.17 1165.52C2964.77 1164.38 2967.75 1163.8 2971.12 1163.8C2974.48 1163.8 2977.47 1164.38 2980.1 1165.52C2982.72 1166.64 2984.92 1168.22 2986.7 1170.24C2988.51 1172.26 2989.87 1174.66 2990.8 1177.42C2991.73 1180.15 2992.2 1183.15 2992.2 1186.4V1187.26C2992.2 1190.49 2991.73 1193.48 2990.8 1196.24C2989.87 1198.98 2988.51 1201.37 2986.7 1203.42C2984.92 1205.45 2982.74 1207.02 2980.14 1208.14C2977.54 1209.26 2974.56 1209.82 2971.2 1209.82C2967.83 1209.82 2964.84 1209.26 2962.21 1208.14C2959.62 1207.02 2957.42 1205.45 2955.61 1203.42C2953.83 1201.37 2952.48 1198.98 2951.55 1196.24C2950.62 1193.48 2950.16 1190.49 2950.16 1187.26ZM2961.97 1186.4V1187.26C2961.97 1189.12 2962.13 1190.86 2962.46 1192.47C2962.79 1194.08 2963.31 1195.51 2964.02 1196.74C2964.76 1197.94 2965.71 1198.88 2966.89 1199.57C2968.07 1200.25 2969.5 1200.59 2971.2 1200.59C2972.84 1200.59 2974.25 1200.25 2975.42 1199.57C2976.6 1198.88 2977.54 1197.94 2978.25 1196.74C2978.96 1195.51 2979.48 1194.08 2979.81 1192.47C2980.17 1190.86 2980.34 1189.12 2980.34 1187.26V1186.4C2980.34 1184.6 2980.17 1182.9 2979.81 1181.31C2979.48 1179.7 2978.95 1178.28 2978.21 1177.05C2977.5 1175.79 2976.56 1174.81 2975.38 1174.1C2974.21 1173.38 2972.78 1173.03 2971.12 1173.03C2969.45 1173.03 2968.03 1173.38 2966.85 1174.1C2965.7 1174.81 2964.76 1175.79 2964.02 1177.05C2963.31 1178.28 2962.79 1179.7 2962.46 1181.31C2962.13 1182.9 2961.97 1184.6 2961.97 1186.4ZM3011.02 1174.1V1209H2999.21V1164.62H3010.29L3011.02 1174.1ZM3009.3 1185.25H3006.1C3006.1 1181.97 3006.53 1179.02 3007.37 1176.39C3008.22 1173.74 3009.41 1171.48 3010.94 1169.62C3012.47 1167.74 3014.29 1166.3 3016.4 1165.32C3018.53 1164.31 3020.91 1163.8 3023.53 1163.8C3025.61 1163.8 3027.51 1164.1 3029.23 1164.7C3030.96 1165.3 3032.43 1166.26 3033.66 1167.57C3034.92 1168.89 3035.88 1170.62 3036.54 1172.78C3037.22 1174.94 3037.56 1177.58 3037.56 1180.7V1209H3025.67V1180.66C3025.67 1178.69 3025.39 1177.16 3024.85 1176.06C3024.3 1174.97 3023.49 1174.21 3022.43 1173.77C3021.39 1173.3 3020.1 1173.07 3018.57 1173.07C3016.98 1173.07 3015.6 1173.38 3014.43 1174.01C3013.28 1174.64 3012.32 1175.52 3011.56 1176.64C3010.82 1177.73 3010.26 1179.02 3009.88 1180.49C3009.49 1181.97 3009.3 1183.56 3009.3 1185.25ZM3099.29 1193.37C3099.29 1192.31 3099.12 1191.35 3098.8 1190.5C3098.5 1189.63 3097.92 1188.83 3097.07 1188.12C3096.23 1187.38 3095.04 1186.66 3093.51 1185.95C3091.97 1185.24 3089.99 1184.5 3087.56 1183.73C3084.85 1182.86 3082.28 1181.88 3079.85 1180.78C3077.44 1179.69 3075.31 1178.42 3073.45 1176.97C3071.62 1175.49 3070.17 1173.78 3069.1 1171.84C3068.06 1169.9 3067.54 1167.64 3067.54 1165.07C3067.54 1162.58 3068.09 1160.33 3069.18 1158.3C3070.28 1156.25 3071.81 1154.5 3073.78 1153.05C3075.75 1151.58 3078.07 1150.44 3080.75 1149.65C3083.46 1148.86 3086.42 1148.46 3089.65 1148.46C3094.05 1148.46 3097.89 1149.25 3101.18 1150.84C3104.46 1152.43 3107 1154.6 3108.8 1157.36C3110.64 1160.12 3111.55 1163.28 3111.55 1166.84H3099.33C3099.33 1165.09 3098.96 1163.55 3098.22 1162.24C3097.51 1160.9 3096.42 1159.85 3094.94 1159.08C3093.49 1158.32 3091.66 1157.94 3089.45 1157.94C3087.31 1157.94 3085.54 1158.26 3084.11 1158.92C3082.69 1159.55 3081.62 1160.41 3080.91 1161.5C3080.2 1162.57 3079.85 1163.77 3079.85 1165.11C3079.85 1166.12 3080.09 1167.04 3080.59 1167.86C3081.11 1168.68 3081.87 1169.45 3082.88 1170.16C3083.89 1170.87 3085.14 1171.54 3086.62 1172.17C3088.09 1172.8 3089.8 1173.41 3091.74 1174.01C3095 1175 3097.85 1176.11 3100.31 1177.34C3102.8 1178.57 3104.88 1179.95 3106.55 1181.48C3108.22 1183.01 3109.47 1184.75 3110.32 1186.69C3111.17 1188.63 3111.59 1190.83 3111.59 1193.29C3111.59 1195.89 3111.09 1198.21 3110.08 1200.26C3109.06 1202.31 3107.6 1204.05 3105.69 1205.47C3103.77 1206.89 3101.49 1207.97 3098.84 1208.71C3096.19 1209.45 3093.22 1209.82 3089.94 1209.82C3086.98 1209.82 3084.07 1209.44 3081.2 1208.67C3078.33 1207.88 3075.72 1206.69 3073.37 1205.1C3071.04 1203.52 3069.18 1201.49 3067.79 1199.03C3066.39 1196.57 3065.7 1193.66 3065.7 1190.3H3078.04C3078.04 1192.16 3078.33 1193.73 3078.9 1195.01C3079.48 1196.3 3080.29 1197.34 3081.32 1198.13C3082.39 1198.92 3083.65 1199.5 3085.1 1199.85C3086.57 1200.21 3088.19 1200.39 3089.94 1200.39C3092.07 1200.39 3093.82 1200.09 3095.19 1199.48C3096.58 1198.88 3097.61 1198.05 3098.26 1196.98C3098.95 1195.92 3099.29 1194.71 3099.29 1193.37ZM3140.96 1164.62V1172.99H3115.12V1164.62H3140.96ZM3121.52 1153.67H3133.33V1195.63C3133.33 1196.91 3133.5 1197.9 3133.82 1198.58C3134.18 1199.27 3134.7 1199.74 3135.38 1200.02C3136.07 1200.26 3136.93 1200.39 3137.97 1200.39C3138.71 1200.39 3139.36 1200.36 3139.94 1200.3C3140.54 1200.22 3141.04 1200.14 3141.45 1200.06L3141.49 1208.75C3140.48 1209.08 3139.39 1209.34 3138.21 1209.53C3137.04 1209.72 3135.74 1209.82 3134.32 1209.82C3131.72 1209.82 3129.45 1209.4 3127.51 1208.55C3125.59 1207.67 3124.12 1206.28 3123.08 1204.37C3122.04 1202.45 3121.52 1199.94 3121.52 1196.82V1153.67ZM3171.64 1198.99V1179.22C3171.64 1177.8 3171.41 1176.58 3170.94 1175.57C3170.48 1174.53 3169.75 1173.73 3168.77 1173.15C3167.81 1172.58 3166.57 1172.29 3165.04 1172.29C3163.72 1172.29 3162.59 1172.52 3161.63 1172.99C3160.68 1173.43 3159.94 1174.07 3159.42 1174.92C3158.9 1175.74 3158.64 1176.71 3158.64 1177.83H3146.83C3146.83 1175.94 3147.26 1174.15 3148.14 1172.46C3149.01 1170.76 3150.29 1169.27 3151.95 1167.98C3153.62 1166.67 3155.6 1165.65 3157.9 1164.91C3160.22 1164.17 3162.82 1163.8 3165.69 1163.8C3169.14 1163.8 3172.2 1164.38 3174.88 1165.52C3177.56 1166.67 3179.67 1168.39 3181.2 1170.69C3182.76 1172.99 3183.54 1175.86 3183.54 1179.3V1198.29C3183.54 1200.73 3183.69 1202.72 3183.99 1204.28C3184.29 1205.81 3184.72 1207.15 3185.3 1208.3V1209H3173.36C3172.79 1207.8 3172.35 1206.29 3172.05 1204.49C3171.78 1202.66 3171.64 1200.82 3171.64 1198.99ZM3173.2 1181.97L3173.28 1188.66H3166.68C3165.12 1188.66 3163.77 1188.83 3162.62 1189.19C3161.47 1189.54 3160.53 1190.05 3159.79 1190.71C3159.05 1191.34 3158.5 1192.07 3158.15 1192.92C3157.82 1193.77 3157.65 1194.7 3157.65 1195.71C3157.65 1196.72 3157.89 1197.64 3158.35 1198.46C3158.82 1199.25 3159.49 1199.88 3160.36 1200.35C3161.24 1200.78 3162.26 1201 3163.44 1201C3165.21 1201 3166.76 1200.65 3168.07 1199.94C3169.38 1199.22 3170.4 1198.35 3171.11 1197.31C3171.85 1196.27 3172.23 1195.29 3172.26 1194.36L3175.37 1199.36C3174.94 1200.48 3174.33 1201.64 3173.57 1202.85C3172.83 1204.05 3171.89 1205.19 3170.74 1206.25C3169.59 1207.29 3168.21 1208.15 3166.6 1208.84C3164.98 1209.49 3163.07 1209.82 3160.85 1209.82C3158.04 1209.82 3155.48 1209.26 3153.18 1208.14C3150.91 1206.99 3149.11 1205.42 3147.77 1203.42C3146.46 1201.4 3145.8 1199.1 3145.8 1196.53C3145.8 1194.21 3146.24 1192.14 3147.11 1190.34C3147.99 1188.53 3149.27 1187.02 3150.97 1185.79C3152.69 1184.53 3154.84 1183.58 3157.41 1182.96C3159.98 1182.3 3162.96 1181.97 3166.35 1181.97H3173.2ZM3214.38 1164.62V1172.99H3188.54V1164.62H3214.38ZM3194.94 1153.67H3206.75V1195.63C3206.75 1196.91 3206.91 1197.9 3207.24 1198.58C3207.6 1199.27 3208.12 1199.74 3208.8 1200.02C3209.48 1200.26 3210.35 1200.39 3211.38 1200.39C3212.12 1200.39 3212.78 1200.36 3213.35 1200.3C3213.96 1200.22 3214.46 1200.14 3214.87 1200.06L3214.91 1208.75C3213.9 1209.08 3212.81 1209.34 3211.63 1209.53C3210.46 1209.72 3209.16 1209.82 3207.73 1209.82C3205.14 1209.82 3202.87 1209.4 3200.93 1208.55C3199.01 1207.67 3197.54 1206.28 3196.5 1204.37C3195.46 1202.45 3194.94 1199.94 3194.94 1196.82V1153.67ZM3245.1 1196.74C3245.1 1195.89 3244.85 1195.12 3244.36 1194.44C3243.87 1193.76 3242.95 1193.13 3241.61 1192.55C3240.3 1191.95 3238.4 1191.4 3235.91 1190.91C3233.67 1190.42 3231.58 1189.8 3229.64 1189.07C3227.72 1188.3 3226.05 1187.38 3224.63 1186.32C3223.24 1185.25 3222.14 1183.99 3221.35 1182.54C3220.56 1181.07 3220.16 1179.39 3220.16 1177.5C3220.16 1175.64 3220.56 1173.89 3221.35 1172.25C3222.17 1170.61 3223.33 1169.16 3224.84 1167.9C3226.37 1166.62 3228.23 1165.62 3230.42 1164.91C3232.63 1164.17 3235.12 1163.8 3237.88 1163.8C3241.74 1163.8 3245.04 1164.42 3247.81 1165.65C3250.6 1166.88 3252.73 1168.57 3254.21 1170.73C3255.71 1172.87 3256.46 1175.3 3256.46 1178.03H3244.65C3244.65 1176.88 3244.4 1175.86 3243.91 1174.96C3243.45 1174.03 3242.71 1173.3 3241.7 1172.78C3240.71 1172.24 3239.43 1171.96 3237.84 1171.96C3236.53 1171.96 3235.39 1172.2 3234.44 1172.66C3233.48 1173.1 3232.74 1173.7 3232.22 1174.46C3231.73 1175.2 3231.48 1176.02 3231.48 1176.93C3231.48 1177.61 3231.62 1178.22 3231.89 1178.77C3232.19 1179.29 3232.67 1179.77 3233.33 1180.21C3233.98 1180.64 3234.83 1181.05 3235.87 1181.44C3236.94 1181.79 3238.25 1182.12 3239.81 1182.42C3243.01 1183.08 3245.87 1183.94 3248.38 1185.01C3250.9 1186.04 3252.89 1187.47 3254.37 1189.27C3255.85 1191.05 3256.58 1193.39 3256.58 1196.29C3256.58 1198.25 3256.15 1200.06 3255.27 1201.7C3254.4 1203.34 3253.14 1204.78 3251.5 1206.01C3249.86 1207.21 3247.89 1208.15 3245.59 1208.84C3243.32 1209.49 3240.77 1209.82 3237.92 1209.82C3233.79 1209.82 3230.29 1209.08 3227.42 1207.61C3224.58 1206.13 3222.42 1204.26 3220.94 1201.99C3219.49 1199.69 3218.77 1197.34 3218.77 1194.93H3229.96C3230.02 1196.54 3230.43 1197.84 3231.2 1198.83C3231.99 1199.81 3232.99 1200.52 3234.19 1200.96C3235.42 1201.4 3236.75 1201.62 3238.17 1201.62C3239.7 1201.62 3240.97 1201.41 3241.98 1201C3242.99 1200.56 3243.76 1199.99 3244.28 1199.28C3244.83 1198.54 3245.1 1197.69 3245.1 1196.74Z" fill="#75ACFF"/>
<rect x="2554.5" y="1084.5" width="754" height="191" rx="41.5" stroke="#75ACFF" stroke-width="13"/>
<path d="M1978.31 1603.28H1990.57V1642.74C1990.57 1647.33 1989.59 1651.2 1987.62 1654.35C1985.68 1657.49 1982.98 1659.86 1979.54 1661.44C1976.12 1663.03 1972.18 1663.82 1967.73 1663.82C1963.27 1663.82 1959.3 1663.03 1955.83 1661.44C1952.39 1659.86 1949.68 1657.49 1947.71 1654.35C1945.77 1651.2 1944.8 1647.33 1944.8 1642.74V1603.28H1957.1V1642.74C1957.1 1645.42 1957.53 1647.61 1958.38 1649.3C1959.22 1651 1960.44 1652.24 1962.03 1653.03C1963.64 1653.83 1965.54 1654.22 1967.73 1654.22C1969.97 1654.22 1971.87 1653.83 1973.43 1653.03C1975.01 1652.24 1976.22 1651 1977.04 1649.3C1977.88 1647.61 1978.31 1645.42 1978.31 1642.74V1603.28ZM2023.96 1650.74C2023.96 1649.89 2023.71 1649.12 2023.22 1648.44C2022.73 1647.76 2021.81 1647.13 2020.47 1646.55C2019.16 1645.95 2017.26 1645.4 2014.77 1644.91C2012.53 1644.42 2010.44 1643.8 2008.5 1643.07C2006.58 1642.3 2004.91 1641.38 2003.49 1640.32C2002.1 1639.25 2001 1637.99 2000.21 1636.54C1999.42 1635.07 1999.02 1633.39 1999.02 1631.5C1999.02 1629.64 1999.42 1627.89 2000.21 1626.25C2001.03 1624.61 2002.19 1623.16 2003.7 1621.9C2005.23 1620.62 2007.09 1619.62 2009.28 1618.91C2011.49 1618.17 2013.98 1617.8 2016.74 1617.8C2020.6 1617.8 2023.9 1618.42 2026.67 1619.65C2029.46 1620.88 2031.59 1622.57 2033.06 1624.73C2034.57 1626.87 2035.32 1629.3 2035.32 1632.03H2023.51C2023.51 1630.88 2023.26 1629.86 2022.77 1628.96C2022.3 1628.03 2021.57 1627.3 2020.55 1626.78C2019.57 1626.24 2018.29 1625.96 2016.7 1625.96C2015.39 1625.96 2014.25 1626.2 2013.29 1626.66C2012.34 1627.1 2011.6 1627.7 2011.08 1628.46C2010.59 1629.2 2010.34 1630.02 2010.34 1630.93C2010.34 1631.61 2010.48 1632.22 2010.75 1632.77C2011.05 1633.29 2011.53 1633.77 2012.19 1634.21C2012.84 1634.64 2013.69 1635.05 2014.73 1635.44C2015.8 1635.79 2017.11 1636.12 2018.67 1636.42C2021.87 1637.08 2024.72 1637.94 2027.24 1639.01C2029.76 1640.04 2031.75 1641.47 2033.23 1643.27C2034.71 1645.05 2035.44 1647.39 2035.44 1650.29C2035.44 1652.25 2035.01 1654.06 2034.13 1655.7C2033.26 1657.34 2032 1658.78 2030.36 1660.01C2028.72 1661.21 2026.75 1662.15 2024.45 1662.84C2022.18 1663.49 2019.62 1663.82 2016.78 1663.82C2012.65 1663.82 2009.15 1663.08 2006.28 1661.61C2003.44 1660.13 2001.28 1658.26 1999.8 1655.99C1998.35 1653.69 1997.63 1651.34 1997.63 1648.93H2008.82C2008.88 1650.54 2009.29 1651.84 2010.05 1652.83C2010.85 1653.81 2011.85 1654.52 2013.05 1654.96C2014.28 1655.4 2015.61 1655.62 2017.03 1655.62C2018.56 1655.62 2019.83 1655.41 2020.84 1655C2021.85 1654.56 2022.62 1653.99 2023.14 1653.28C2023.69 1652.54 2023.96 1651.69 2023.96 1650.74ZM2063.54 1663.82C2060.09 1663.82 2057 1663.27 2054.27 1662.18C2051.54 1661.06 2049.21 1659.51 2047.3 1657.54C2045.41 1655.58 2043.96 1653.29 2042.95 1650.7C2041.94 1648.07 2041.43 1645.28 2041.43 1642.33V1640.69C2041.43 1637.32 2041.91 1634.25 2042.87 1631.46C2043.82 1628.67 2045.19 1626.25 2046.97 1624.2C2048.77 1622.15 2050.96 1620.58 2053.53 1619.48C2056.1 1618.36 2059 1617.8 2062.23 1617.8C2065.37 1617.8 2068.16 1618.32 2070.59 1619.36C2073.03 1620.4 2075.06 1621.88 2076.71 1623.79C2078.37 1625.7 2079.63 1628 2080.48 1630.68C2081.33 1633.33 2081.75 1636.29 2081.75 1639.54V1644.46H2046.48V1636.59H2070.14V1635.68C2070.14 1634.04 2069.84 1632.58 2069.24 1631.29C2068.67 1629.98 2067.79 1628.94 2066.62 1628.18C2065.44 1627.41 2063.94 1627.03 2062.1 1627.03C2060.54 1627.03 2059.21 1627.37 2058.08 1628.05C2056.96 1628.74 2056.05 1629.7 2055.34 1630.93C2054.65 1632.16 2054.13 1633.61 2053.78 1635.27C2053.45 1636.91 2053.29 1638.72 2053.29 1640.69V1642.33C2053.29 1644.11 2053.53 1645.75 2054.02 1647.25C2054.54 1648.75 2055.27 1650.05 2056.2 1651.15C2057.15 1652.24 2058.3 1653.09 2059.64 1653.69C2061.01 1654.29 2062.55 1654.59 2064.28 1654.59C2066.41 1654.59 2068.39 1654.18 2070.22 1653.36C2072.08 1652.51 2073.68 1651.24 2075.02 1649.55L2080.77 1655.78C2079.84 1657.12 2078.56 1658.41 2076.95 1659.64C2075.37 1660.87 2073.45 1661.88 2071.21 1662.67C2068.97 1663.44 2066.41 1663.82 2063.54 1663.82ZM2100.29 1628.3V1663H2088.48V1618.62H2099.59L2100.29 1628.3ZM2113.66 1618.33L2113.46 1629.29C2112.88 1629.2 2112.18 1629.13 2111.36 1629.08C2110.57 1629 2109.85 1628.96 2109.19 1628.96C2107.52 1628.96 2106.07 1629.18 2104.84 1629.61C2103.64 1630.02 2102.63 1630.64 2101.81 1631.46C2101.01 1632.28 2100.41 1633.28 2100 1634.45C2099.62 1635.63 2099.4 1636.97 2099.35 1638.47L2096.97 1637.73C2096.97 1634.86 2097.25 1632.22 2097.83 1629.82C2098.4 1627.38 2099.24 1625.27 2100.33 1623.46C2101.45 1621.66 2102.82 1620.26 2104.43 1619.28C2106.04 1618.29 2107.89 1617.8 2109.97 1617.8C2110.62 1617.8 2111.29 1617.86 2111.98 1617.96C2112.66 1618.05 2113.22 1618.17 2113.66 1618.33Z" fill="#75ACFF"/>
<rect x="1891.5" y="1538.5" width="272" height="191" rx="41.5" stroke="#75ACFF" stroke-width="13"/>
<path d="M2639.42 737.373C2639.42 736.307 2639.26 735.35 2638.93 734.502C2638.63 733.627 2638.05 732.834 2637.21 732.123C2636.36 731.385 2635.17 730.66 2633.64 729.949C2632.11 729.238 2630.12 728.5 2627.69 727.734C2624.98 726.859 2622.41 725.875 2619.98 724.781C2617.57 723.688 2615.44 722.416 2613.58 720.967C2611.75 719.49 2610.3 717.781 2609.23 715.84C2608.2 713.898 2607.68 711.643 2607.68 709.072C2607.68 706.584 2608.22 704.328 2609.32 702.305C2610.41 700.254 2611.94 698.504 2613.91 697.055C2615.88 695.578 2618.2 694.443 2620.88 693.65C2623.59 692.857 2626.56 692.461 2629.78 692.461C2634.19 692.461 2638.03 693.254 2641.31 694.84C2644.59 696.426 2647.13 698.6 2648.94 701.361C2650.77 704.123 2651.69 707.281 2651.69 710.836H2639.46C2639.46 709.086 2639.09 707.555 2638.36 706.242C2637.64 704.902 2636.55 703.85 2635.07 703.084C2633.62 702.318 2631.79 701.936 2629.58 701.936C2627.45 701.936 2625.67 702.264 2624.25 702.92C2622.82 703.549 2621.76 704.41 2621.05 705.504C2620.34 706.57 2619.98 707.773 2619.98 709.113C2619.98 710.125 2620.23 711.041 2620.72 711.861C2621.24 712.682 2622 713.447 2623.02 714.158C2624.03 714.869 2625.27 715.539 2626.75 716.168C2628.22 716.797 2629.93 717.412 2631.88 718.014C2635.13 718.998 2637.99 720.105 2640.45 721.336C2642.94 722.566 2645.01 723.947 2646.68 725.479C2648.35 727.01 2649.61 728.746 2650.46 730.688C2651.3 732.629 2651.73 734.83 2651.73 737.291C2651.73 739.889 2651.22 742.213 2650.21 744.264C2649.2 746.314 2647.73 748.051 2645.82 749.473C2643.91 750.895 2641.62 751.975 2638.97 752.713C2636.32 753.451 2633.35 753.82 2630.07 753.82C2627.12 753.82 2624.21 753.438 2621.33 752.672C2618.46 751.879 2615.85 750.689 2613.5 749.104C2611.18 747.518 2609.32 745.494 2607.92 743.033C2606.53 740.572 2605.83 737.66 2605.83 734.297H2618.18C2618.18 736.156 2618.46 737.729 2619.04 739.014C2619.61 740.299 2620.42 741.338 2621.46 742.131C2622.52 742.924 2623.78 743.498 2625.23 743.854C2626.71 744.209 2628.32 744.387 2630.07 744.387C2632.2 744.387 2633.95 744.086 2635.32 743.484C2636.71 742.883 2637.74 742.049 2638.4 740.982C2639.08 739.916 2639.42 738.713 2639.42 737.373ZM2681.09 708.621V716.988H2655.25V708.621H2681.09ZM2661.65 697.67H2673.46V739.629C2673.46 740.914 2673.63 741.898 2673.96 742.582C2674.31 743.266 2674.83 743.744 2675.52 744.018C2676.2 744.264 2677.06 744.387 2678.1 744.387C2678.84 744.387 2679.49 744.359 2680.07 744.305C2680.67 744.223 2681.18 744.141 2681.59 744.059L2681.63 752.754C2680.62 753.082 2679.52 753.342 2678.35 753.533C2677.17 753.725 2675.87 753.82 2674.45 753.82C2671.85 753.82 2669.58 753.396 2667.64 752.549C2665.73 751.674 2664.25 750.279 2663.21 748.365C2662.17 746.451 2661.65 743.936 2661.65 740.818V697.67ZM2711.77 742.992V723.223C2711.77 721.801 2711.54 720.584 2711.08 719.572C2710.61 718.533 2709.89 717.727 2708.9 717.152C2707.95 716.578 2706.7 716.291 2705.17 716.291C2703.86 716.291 2702.72 716.523 2701.77 716.988C2700.81 717.426 2700.07 718.068 2699.55 718.916C2699.03 719.736 2698.77 720.707 2698.77 721.828H2686.96C2686.96 719.941 2687.4 718.15 2688.27 716.455C2689.15 714.76 2690.42 713.27 2692.09 711.984C2693.75 710.672 2695.74 709.646 2698.03 708.908C2700.36 708.17 2702.96 707.801 2705.83 707.801C2709.27 707.801 2712.33 708.375 2715.01 709.523C2717.69 710.672 2719.8 712.395 2721.33 714.691C2722.89 716.988 2723.67 719.859 2723.67 723.305V742.295C2723.67 744.729 2723.82 746.725 2724.12 748.283C2724.42 749.814 2724.86 751.154 2725.43 752.303V753H2713.5C2712.92 751.797 2712.48 750.293 2712.18 748.488C2711.91 746.656 2711.77 744.824 2711.77 742.992ZM2713.33 725.971L2713.41 732.656H2706.81C2705.25 732.656 2703.9 732.834 2702.75 733.189C2701.6 733.545 2700.66 734.051 2699.92 734.707C2699.18 735.336 2698.63 736.074 2698.28 736.922C2697.95 737.77 2697.79 738.699 2697.79 739.711C2697.79 740.723 2698.02 741.639 2698.48 742.459C2698.95 743.252 2699.62 743.881 2700.49 744.346C2701.37 744.783 2702.39 745.002 2703.57 745.002C2705.35 745.002 2706.89 744.646 2708.21 743.936C2709.52 743.225 2710.53 742.35 2711.24 741.311C2711.98 740.271 2712.36 739.287 2712.39 738.357L2715.51 743.361C2715.07 744.482 2714.47 745.645 2713.7 746.848C2712.96 748.051 2712.02 749.186 2710.87 750.252C2709.72 751.291 2708.34 752.152 2706.73 752.836C2705.12 753.492 2703.2 753.82 2700.99 753.82C2698.17 753.82 2695.61 753.26 2693.32 752.139C2691.05 750.99 2689.24 749.418 2687.9 747.422C2686.59 745.398 2685.93 743.102 2685.93 740.531C2685.93 738.207 2686.37 736.143 2687.25 734.338C2688.12 732.533 2689.41 731.016 2691.1 729.785C2692.82 728.527 2694.97 727.584 2697.54 726.955C2700.11 726.299 2703.09 725.971 2706.48 725.971H2713.33ZM2760.87 708.621H2771.57V751.523C2771.57 755.57 2770.67 759.002 2768.87 761.818C2767.09 764.662 2764.6 766.809 2761.4 768.258C2758.2 769.734 2754.48 770.473 2750.25 770.473C2748.39 770.473 2746.42 770.227 2744.34 769.734C2742.29 769.242 2740.32 768.477 2738.43 767.438C2736.57 766.398 2735.02 765.086 2733.76 763.5L2738.97 756.527C2740.33 758.113 2741.92 759.344 2743.72 760.219C2745.53 761.121 2747.53 761.572 2749.71 761.572C2751.85 761.572 2753.65 761.176 2755.13 760.383C2756.6 759.617 2757.74 758.482 2758.53 756.979C2759.32 755.502 2759.72 753.711 2759.72 751.605V718.875L2760.87 708.621ZM2731.01 731.344V730.482C2731.01 727.092 2731.42 724.016 2732.24 721.254C2733.09 718.465 2734.28 716.072 2735.81 714.076C2737.37 712.08 2739.25 710.535 2741.47 709.441C2743.68 708.348 2746.19 707.801 2748.97 707.801C2751.93 707.801 2754.4 708.348 2756.4 709.441C2758.39 710.535 2760.04 712.094 2761.32 714.117C2762.61 716.113 2763.6 718.479 2764.31 721.213C2765.05 723.92 2765.63 726.887 2766.04 730.113V732C2765.63 735.09 2765.01 737.961 2764.19 740.613C2763.37 743.266 2762.29 745.59 2760.95 747.586C2759.61 749.555 2757.94 751.086 2755.95 752.18C2753.98 753.273 2751.63 753.82 2748.89 753.82C2746.16 753.82 2743.68 753.26 2741.47 752.139C2739.28 751.018 2737.41 749.445 2735.85 747.422C2734.29 745.398 2733.09 743.02 2732.24 740.285C2731.42 737.551 2731.01 734.57 2731.01 731.344ZM2742.82 730.482V731.344C2742.82 733.176 2743 734.885 2743.36 736.471C2743.71 738.057 2744.26 739.465 2745 740.695C2745.76 741.898 2746.71 742.842 2747.83 743.525C2748.97 744.182 2750.33 744.51 2751.89 744.51C2754.05 744.51 2755.81 744.059 2757.18 743.156C2758.54 742.227 2759.57 740.955 2760.25 739.342C2760.94 737.729 2761.33 735.869 2761.44 733.764V728.391C2761.39 726.668 2761.16 725.123 2760.75 723.756C2760.34 722.361 2759.76 721.172 2759.02 720.188C2758.29 719.203 2757.33 718.438 2756.15 717.891C2754.98 717.344 2753.58 717.07 2751.97 717.07C2750.41 717.07 2749.06 717.426 2747.91 718.137C2746.79 718.82 2745.84 719.764 2745.08 720.967C2744.34 722.17 2743.78 723.592 2743.4 725.232C2743.01 726.846 2742.82 728.596 2742.82 730.482ZM2801.19 753.82C2797.74 753.82 2794.65 753.273 2791.92 752.18C2789.18 751.059 2786.86 749.514 2784.95 747.545C2783.06 745.576 2781.61 743.293 2780.6 740.695C2779.59 738.07 2779.08 735.281 2779.08 732.328V730.688C2779.08 727.324 2779.56 724.248 2780.52 721.459C2781.47 718.67 2782.84 716.25 2784.62 714.199C2786.42 712.148 2788.61 710.576 2791.18 709.482C2793.75 708.361 2796.65 707.801 2799.88 707.801C2803.02 707.801 2805.81 708.32 2808.24 709.359C2810.68 710.398 2812.71 711.875 2814.35 713.789C2816.02 715.703 2817.28 718 2818.13 720.68C2818.97 723.332 2819.4 726.285 2819.4 729.539V734.461H2784.12V726.586H2807.79V725.684C2807.79 724.043 2807.49 722.58 2806.89 721.295C2806.31 719.982 2805.44 718.943 2804.26 718.178C2803.09 717.412 2801.58 717.029 2799.75 717.029C2798.19 717.029 2796.85 717.371 2795.73 718.055C2794.61 718.738 2793.7 719.695 2792.98 720.926C2792.3 722.156 2791.78 723.605 2791.43 725.273C2791.1 726.914 2790.93 728.719 2790.93 730.688V732.328C2790.93 734.105 2791.18 735.746 2791.67 737.25C2792.19 738.754 2792.92 740.053 2793.85 741.146C2794.8 742.24 2795.95 743.088 2797.29 743.689C2798.66 744.291 2800.2 744.592 2801.93 744.592C2804.06 744.592 2806.04 744.182 2807.87 743.361C2809.73 742.514 2811.33 741.242 2812.67 739.547L2818.41 745.781C2817.48 747.121 2816.21 748.406 2814.6 749.637C2813.01 750.867 2811.1 751.879 2808.86 752.672C2806.62 753.438 2804.06 753.82 2801.19 753.82Z" fill="#75ACFF"/>
<rect x="2554.5" y="628.5" width="316" height="191" rx="41.5" stroke="#75ACFF" stroke-width="13"/>
<path d="M3210.59 731.713H3195.37V722.115H3210.59C3212.94 722.115 3214.85 721.732 3216.33 720.967C3217.81 720.174 3218.89 719.08 3219.57 717.686C3220.25 716.291 3220.6 714.719 3220.6 712.969C3220.6 711.191 3220.25 709.537 3219.57 708.006C3218.89 706.475 3217.81 705.244 3216.33 704.314C3214.85 703.385 3212.94 702.92 3210.59 702.92H3199.64V753H3187.33V693.281H3210.59C3215.26 693.281 3219.27 694.129 3222.61 695.824C3225.97 697.492 3228.54 699.803 3230.32 702.756C3232.09 705.709 3232.98 709.086 3232.98 712.887C3232.98 716.742 3232.09 720.078 3230.32 722.895C3228.54 725.711 3225.97 727.885 3222.61 729.416C3219.27 730.947 3215.26 731.713 3210.59 731.713ZM3238.27 731.262V730.4C3238.27 727.146 3238.74 724.152 3239.67 721.418C3240.6 718.656 3241.95 716.264 3243.73 714.24C3245.51 712.217 3247.69 710.645 3250.29 709.523C3252.89 708.375 3255.87 707.801 3259.23 707.801C3262.6 707.801 3265.59 708.375 3268.21 709.523C3270.84 710.645 3273.04 712.217 3274.82 714.24C3276.62 716.264 3277.99 718.656 3278.92 721.418C3279.85 724.152 3280.31 727.146 3280.31 730.4V731.262C3280.31 734.488 3279.85 737.482 3278.92 740.244C3277.99 742.979 3276.62 745.371 3274.82 747.422C3273.04 749.445 3270.85 751.018 3268.26 752.139C3265.66 753.26 3262.68 753.82 3259.31 753.82C3255.95 753.82 3252.96 753.26 3250.33 752.139C3247.73 751.018 3245.53 749.445 3243.73 747.422C3241.95 745.371 3240.6 742.979 3239.67 740.244C3238.74 737.482 3238.27 734.488 3238.27 731.262ZM3250.09 730.4V731.262C3250.09 733.121 3250.25 734.857 3250.58 736.471C3250.91 738.084 3251.43 739.506 3252.14 740.736C3252.88 741.939 3253.83 742.883 3255.01 743.566C3256.18 744.25 3257.62 744.592 3259.31 744.592C3260.96 744.592 3262.36 744.25 3263.54 743.566C3264.71 742.883 3265.66 741.939 3266.37 740.736C3267.08 739.506 3267.6 738.084 3267.93 736.471C3268.28 734.857 3268.46 733.121 3268.46 731.262V730.4C3268.46 728.596 3268.28 726.9 3267.93 725.314C3267.6 723.701 3267.07 722.279 3266.33 721.049C3265.62 719.791 3264.67 718.807 3263.5 718.096C3262.32 717.385 3260.9 717.029 3259.23 717.029C3257.56 717.029 3256.14 717.385 3254.97 718.096C3253.82 718.807 3252.88 719.791 3252.14 721.049C3251.43 722.279 3250.91 723.701 3250.58 725.314C3250.25 726.9 3250.09 728.596 3250.09 730.4ZM3285.69 731.262V730.4C3285.69 727.146 3286.15 724.152 3287.08 721.418C3288.01 718.656 3289.37 716.264 3291.14 714.24C3292.92 712.217 3295.11 710.645 3297.71 709.523C3300.3 708.375 3303.28 707.801 3306.65 707.801C3310.01 707.801 3313 708.375 3315.63 709.523C3318.25 710.645 3320.46 712.217 3322.23 714.24C3324.04 716.264 3325.4 718.656 3326.33 721.418C3327.26 724.152 3327.73 727.146 3327.73 730.4V731.262C3327.73 734.488 3327.26 737.482 3326.33 740.244C3325.4 742.979 3324.04 745.371 3322.23 747.422C3320.46 749.445 3318.27 751.018 3315.67 752.139C3313.07 753.26 3310.09 753.82 3306.73 753.82C3303.37 753.82 3300.37 753.26 3297.75 752.139C3295.15 751.018 3292.95 749.445 3291.14 747.422C3289.37 745.371 3288.01 742.979 3287.08 740.244C3286.15 737.482 3285.69 734.488 3285.69 731.262ZM3297.5 730.4V731.262C3297.5 733.121 3297.66 734.857 3297.99 736.471C3298.32 738.084 3298.84 739.506 3299.55 740.736C3300.29 741.939 3301.25 742.883 3302.42 743.566C3303.6 744.25 3305.03 744.592 3306.73 744.592C3308.37 744.592 3309.78 744.25 3310.95 743.566C3312.13 742.883 3313.07 741.939 3313.78 740.736C3314.49 739.506 3315.01 738.084 3315.34 736.471C3315.7 734.857 3315.88 733.121 3315.88 731.262V730.4C3315.88 728.596 3315.7 726.9 3315.34 725.314C3315.01 723.701 3314.48 722.279 3313.74 721.049C3313.03 719.791 3312.09 718.807 3310.91 718.096C3309.74 717.385 3308.31 717.029 3306.65 717.029C3304.98 717.029 3303.56 717.385 3302.38 718.096C3301.23 718.807 3300.29 719.791 3299.55 721.049C3298.84 722.279 3298.32 723.701 3297.99 725.314C3297.66 726.9 3297.5 728.596 3297.5 730.4ZM3347.46 690V753H3335.6V690H3347.46Z" fill="#75ACFF"/>
<rect x="3133.5" y="628.5" width="268" height="191" rx="41.5" stroke="#75ACFF" stroke-width="13"/>
<path d="M3730.64 693.281V753H3718.33V693.281H3730.64ZM3754.43 718.793V728.391H3727.27V718.793H3754.43ZM3757.3 693.281V702.92H3727.27V693.281H3757.3ZM3776.16 708.621V753H3764.31V708.621H3776.16ZM3763.57 697.055C3763.57 695.332 3764.17 693.91 3765.38 692.789C3766.58 691.668 3768.19 691.107 3770.22 691.107C3772.21 691.107 3773.81 691.668 3775.02 692.789C3776.25 693.91 3776.86 695.332 3776.86 697.055C3776.86 698.777 3776.25 700.199 3775.02 701.32C3773.81 702.441 3772.21 703.002 3770.22 703.002C3768.19 703.002 3766.58 702.441 3765.38 701.32C3764.17 700.199 3763.57 698.777 3763.57 697.055ZM3814.02 708.621H3824.73V751.523C3824.73 755.57 3823.82 759.002 3822.02 761.818C3820.24 764.662 3817.75 766.809 3814.55 768.258C3811.36 769.734 3807.64 770.473 3803.4 770.473C3801.54 770.473 3799.57 770.227 3797.49 769.734C3795.44 769.242 3793.47 768.477 3791.59 767.438C3789.73 766.398 3788.17 765.086 3786.91 763.5L3792.12 756.527C3793.49 758.113 3795.07 759.344 3796.88 760.219C3798.68 761.121 3800.68 761.572 3802.87 761.572C3805 761.572 3806.8 761.176 3808.28 760.383C3809.76 759.617 3810.89 758.482 3811.68 756.979C3812.48 755.502 3812.87 753.711 3812.87 751.605V718.875L3814.02 708.621ZM3784.16 731.344V730.482C3784.16 727.092 3784.57 724.016 3785.39 721.254C3786.24 718.465 3787.43 716.072 3788.96 714.076C3790.52 712.08 3792.41 710.535 3794.62 709.441C3796.84 708.348 3799.34 707.801 3802.13 707.801C3805.08 707.801 3807.55 708.348 3809.55 709.441C3811.55 710.535 3813.19 712.094 3814.47 714.117C3815.76 716.113 3816.76 718.479 3817.47 721.213C3818.21 723.92 3818.78 726.887 3819.19 730.113V732C3818.78 735.09 3818.16 737.961 3817.34 740.613C3816.52 743.266 3815.44 745.59 3814.1 747.586C3812.76 749.555 3811.1 751.086 3809.1 752.18C3807.13 753.273 3804.78 753.82 3802.04 753.82C3799.31 753.82 3796.84 753.26 3794.62 752.139C3792.43 751.018 3790.56 749.445 3789 747.422C3787.44 745.398 3786.24 743.02 3785.39 740.285C3784.57 737.551 3784.16 734.57 3784.16 731.344ZM3795.97 730.482V731.344C3795.97 733.176 3796.15 734.885 3796.51 736.471C3796.86 738.057 3797.41 739.465 3798.15 740.695C3798.91 741.898 3799.86 742.842 3800.98 743.525C3802.13 744.182 3803.48 744.51 3805.04 744.51C3807.2 744.51 3808.96 744.059 3810.33 743.156C3811.7 742.227 3812.72 740.955 3813.41 739.342C3814.09 737.729 3814.49 735.869 3814.6 733.764V728.391C3814.54 726.668 3814.31 725.123 3813.9 723.756C3813.49 722.361 3812.91 721.172 3812.18 720.188C3811.44 719.203 3810.48 718.438 3809.3 717.891C3808.13 717.344 3806.73 717.07 3805.12 717.07C3803.56 717.07 3802.21 717.426 3801.06 718.137C3799.94 718.82 3799 719.764 3798.23 720.967C3797.49 722.17 3796.93 723.592 3796.55 725.232C3796.17 726.846 3795.97 728.596 3795.97 730.482ZM3845.44 690V753H3833.63V690H3845.44ZM3843.76 729.252H3840.52C3840.54 726.162 3840.96 723.318 3841.75 720.721C3842.54 718.096 3843.68 715.826 3845.15 713.912C3846.63 711.971 3848.39 710.467 3850.44 709.4C3852.52 708.334 3854.82 707.801 3857.33 707.801C3859.52 707.801 3861.5 708.115 3863.28 708.744C3865.09 709.346 3866.63 710.33 3867.92 711.697C3869.23 713.037 3870.24 714.801 3870.95 716.988C3871.66 719.176 3872.02 721.828 3872.02 724.945V753H3860.12V724.863C3860.12 722.895 3859.84 721.35 3859.26 720.229C3858.71 719.08 3857.91 718.273 3856.84 717.809C3855.8 717.316 3854.52 717.07 3852.99 717.07C3851.29 717.07 3849.84 717.385 3848.64 718.014C3847.46 718.643 3846.52 719.518 3845.81 720.639C3845.1 721.732 3844.58 723.018 3844.25 724.494C3843.92 725.971 3843.76 727.557 3843.76 729.252ZM3902.74 708.621V716.988H3876.9V708.621H3902.74ZM3883.3 697.67H3895.11V739.629C3895.11 740.914 3895.27 741.898 3895.6 742.582C3895.96 743.266 3896.48 743.744 3897.16 744.018C3897.84 744.264 3898.71 744.387 3899.74 744.387C3900.48 744.387 3901.14 744.359 3901.71 744.305C3902.31 744.223 3902.82 744.141 3903.23 744.059L3903.27 752.754C3902.26 753.082 3901.17 753.342 3899.99 753.533C3898.81 753.725 3897.52 753.82 3896.09 753.82C3893.5 753.82 3891.23 753.396 3889.29 752.549C3887.37 751.674 3885.89 750.279 3884.86 748.365C3883.82 746.451 3883.3 743.936 3883.3 740.818V697.67Z" fill="#75ACFF"/>
<rect x="3664.5" y="628.5" width="289" height="191" rx="41.5" stroke="#75ACFF" stroke-width="13"/>
</svg>
